<svg width="33" height="33" viewBox="0 0 33 33" fill="#5DA1DE" stroke="none" xmlns="http://www.w3.org/2000/svg">
<path fill-rule="evenodd" clip-rule="evenodd" d="M12.7399 2.31627C11.8184 2.31627 10.9347 2.68232 10.2831 3.3339C9.63154 3.98547 9.26549 4.8692 9.26549 5.79067V24.3208C9.26549 24.9604 8.74697 25.4789 8.10735 25.4789C7.46773 25.4789 6.94922 24.9604 6.94922 24.3208V5.79067C6.94922 4.25489 7.5593 2.78201 8.64527 1.69605C9.73123 0.610087 11.2041 0 12.7399 0H27.2166C27.8562 0 28.3747 0.518514 28.3747 1.15813C28.3747 1.79775 27.8562 2.31627 27.2166 2.31627H12.7399Z" fill="inherit" stroke="none"/>
<path fill-rule="evenodd" clip-rule="evenodd" d="M23.1618 6.94922C23.8014 6.94922 24.3199 7.46773 24.3199 8.10735V26.6375C24.3199 28.1733 23.7098 29.6462 22.6238 30.7321C21.5379 31.8181 20.065 32.4282 18.5292 32.4282C17.8896 32.4282 17.3711 31.9096 17.3711 31.27C17.3711 30.6304 17.8896 30.1119 18.5292 30.1119C19.4507 30.1119 20.3344 29.7458 20.986 29.0943C21.6376 28.4427 22.0036 27.559 22.0036 26.6375V8.10735C22.0036 7.46773 22.5221 6.94922 23.1618 6.94922Z" fill="inherit" stroke="none"/>
<path fill-rule="evenodd" clip-rule="evenodd" d="M0.678419 23.8405C1.1128 23.4061 1.70196 23.1621 2.31627 23.1621H12.7395C13.3538 23.1621 13.9429 23.4061 14.3773 23.8405C14.8117 24.2749 15.0557 24.8641 15.0557 25.4784V26.6365C15.0557 27.558 15.4218 28.4417 16.0734 29.0933C16.7249 29.7449 17.6087 30.1109 18.5301 30.1109C19.1698 30.1109 19.6883 30.6294 19.6883 31.269C19.6883 31.9087 19.1698 32.4272 18.5301 32.4272H5.79067C4.25489 32.4272 2.78201 31.8171 1.69605 30.7311C0.610087 29.6452 0 28.1723 0 26.6365V25.4784C0 24.8641 0.244034 24.2749 0.678419 23.8405ZM13.8976 30.1109C13.1502 29.1145 12.7395 27.8967 12.7395 26.6365V25.4784H2.31627L2.31627 26.6365C2.31627 27.558 2.68232 28.4417 3.3339 29.0933C3.98547 29.7449 4.8692 30.1109 5.79067 30.1109H13.8976Z" fill="inherit" stroke="none"/>
<path fill-rule="evenodd" clip-rule="evenodd" d="M27.2155 2.31627C26.4476 2.31627 25.7112 2.62131 25.1682 3.16429C24.6252 3.70727 24.3202 4.44371 24.3202 5.2116V6.9488H30.1108V5.2116C30.1108 4.44371 29.8058 3.70727 29.2628 3.16429C28.7198 2.62131 27.9834 2.31627 27.2155 2.31627ZM23.5303 1.52644C24.5077 0.549078 25.8333 0 27.2155 0C28.5977 0 29.9233 0.549078 30.9007 1.52644C31.878 2.50381 32.4271 3.8294 32.4271 5.2116V6.9488C32.4271 7.56311 32.1831 8.15226 31.7487 8.58665C31.3143 9.02104 30.7252 9.26507 30.1108 9.26507H23.162C22.5224 9.26507 22.0039 8.74656 22.0039 8.10694V5.2116C22.0039 3.8294 22.553 2.50381 23.5303 1.52644Z" fill="inherit" stroke="none"/>
<path fill-rule="evenodd" clip-rule="evenodd" d="M12.7383 9.26556C12.7383 8.62594 13.2568 8.10742 13.8964 8.10742H17.3708C18.0104 8.10742 18.5289 8.62594 18.5289 9.26556C18.5289 9.90518 18.0104 10.4237 17.3708 10.4237H13.8964C13.2568 10.4237 12.7383 9.90518 12.7383 9.26556Z" fill="inherit" stroke="none"/>
<path fill-rule="evenodd" clip-rule="evenodd" d="M12.7383 16.2128C12.7383 15.5732 13.2568 15.0547 13.8964 15.0547H17.3708C18.0104 15.0547 18.5289 15.5732 18.5289 16.2128C18.5289 16.8524 18.0104 17.371 17.3708 17.371H13.8964C13.2568 17.371 12.7383 16.8524 12.7383 16.2128Z" fill="inherit" stroke="none"/>
</svg>
