<svg width="20" height="17" viewBox="0 0 20 17" fill="#364B91" stroke="none" xmlns="http://www.w3.org/2000/svg">
<path fill-rule="evenodd" clip-rule="evenodd" d="M18.8217 1.91593C18.2014 1.82979 17.6343 1.76032 17 1.76032C14.7215 1.76032 12.5479 2.38747 10.647 3.63639L10 4.06149L9.353 3.63639C7.4521 2.38747 5.27852 1.76032 3 1.76032C2.45254 1.76032 1.80975 1.83071 1.17829 1.91631L1.17829 13.2875C1.7244 13.1983 2.35526 13.1026 3 13.1026C5.50636 13.1026 7.91624 13.8459 10.0015 15.3317C12.5824 13.5586 15.786 12.8037 18.8217 13.2869V1.91593ZM20 13.6895C19.9 14.1823 19.3 14.5765 18.8 14.478C16 13.9852 13 14.6751 10.6 16.3505C10.2 16.6461 9.7 16.6461 9.4 16.3505C7.5 14.9707 5.3 14.2809 3 14.2809C2.4 14.2809 1.8 14.3794 1.2 14.478H1C0.4 14.478 0 14.0838 0 13.4924L0 1.66611C0 1.2719 0.4 0.779137 0.8 0.779137C1.5 0.680584 2.3 0.582031 3 0.582031C5.5 0.582031 7.9 1.2719 10 2.65164C12.1 1.2719 14.5 0.582031 17 0.582031C17.8 0.582031 18.5 0.680584 19.2 0.779137C19.6 0.779137 20 1.2719 20 1.66611V13.6895ZM9.89531 15.4058C9.89488 15.406 9.89532 15.4058 9.89531 15.4058V15.4058Z" fill="inherit" stroke="none"/>
<path fill-rule="evenodd" clip-rule="evenodd" d="M3.41406 6.23619C3.90722 6.12395 4.51691 6 5.06835 6C6.843 6 8.52711 6.73706 9.99922 8.15726C11.4713 6.73706 13.1554 6 14.9301 6C15.5467 6 16.0835 6.12219 16.5676 6.23237L16.5844 6.23619L16.3752 7.15531C15.8775 7.04204 15.4334 6.94263 14.9301 6.94263C13.3222 6.94263 11.7498 7.6562 10.3424 9.15098L9.99922 9.51541L9.65608 9.15098C8.24863 7.6562 6.67627 6.94263 5.06835 6.94263C4.63362 6.94263 4.11625 7.04311 3.62324 7.15531L3.41406 6.23619Z" fill="inherit" stroke="none"/>
<path fill-rule="evenodd" clip-rule="evenodd" d="M3.41406 9.77134C3.90722 9.65911 4.51691 9.53516 5.06835 9.53516C6.843 9.53516 8.52711 10.2722 9.99922 11.6924C11.4713 10.2722 13.1554 9.53516 14.9301 9.53516C15.5467 9.53516 16.0835 9.65734 16.5676 9.76752L16.5844 9.77134L16.3752 10.6905C15.8775 10.5772 15.4334 10.4778 14.9301 10.4778C13.3222 10.4778 11.7498 11.1914 10.3424 12.6861L9.99922 13.0506L9.65608 12.6861C8.24863 11.1914 6.67627 10.4778 5.06835 10.4778C4.63362 10.4778 4.11625 10.5783 3.62324 10.6905L3.41406 9.77134Z" fill="inherit" stroke="none"/>
</svg>
