<svg width="21" height="30" viewBox="0 0 21 30" fill="#C2383A" stroke="#C2383A" xmlns="http://www.w3.org/2000/svg">
<rect x="4.1582" y="5.30664" width="8.42103" height="2.15384" rx="1.07692" fill="inherit" stroke="none"/>
<rect x="4.1582" y="9.61523" width="8.42103" height="2.15384" rx="1.07692" fill="inherit" stroke="none"/>
<path d="M15.7368 15V3C15.7368 1.89543 14.8414 1 13.7368 1H3C1.89543 1 1 1.89543 1 3V20.5384C1 21.643 1.89543 22.5384 3 22.5384H13.6316" stroke="inherit" fill="none" stroke-width="2"/>
<path d="M20.2491 17.6918C20.2491 19.9703 18.4481 21.788 16.2622 21.788C14.0764 21.788 12.2754 19.9703 12.2754 17.6918C12.2754 15.4134 14.0764 13.5957 16.2622 13.5957C18.4481 13.5957 20.2491 15.4134 20.2491 17.6918Z" fill="white" stroke="inherit" stroke-width="1.5"/>
<path d="M13.6328 20.3848V28.3669C13.6328 28.62 13.927 28.7594 14.1228 28.5991L16.0744 27.0018C16.1849 26.9113 16.3439 26.9113 16.4544 27.0018L18.4059 28.5991C18.6018 28.7594 18.896 28.62 18.896 28.3669V20.3848" stroke="inherit" fill="none" stroke-width="1.3"/>
</svg>
