<svg width="6" height="12" viewBox="0 0 6 12" fill="#364B91" stroke="none" xmlns="http://www.w3.org/2000/svg">
<path fill-rule="evenodd" clip-rule="evenodd" d="M1.90286 6.26875L5.7749 10.2561C5.9148 10.3984 5.99316 10.59 5.99316 10.7895C5.99316 10.989 5.9148 11.1805 5.7749 11.3228C5.70825 11.3924 5.62817 11.4478 5.53955 11.4856C5.45092 11.5235 5.35555 11.543 5.25919 11.543C5.16282 11.543 5.06745 11.5235 4.97883 11.4856C4.89021 11.4478 4.81021 11.3924 4.74356 11.3228L0.343519 6.80211C0.203302 6.66 0.124685 6.46839 0.124685 6.26875C0.124685 6.06912 0.203302 5.87752 0.343519 5.73542L4.74356 1.2147C4.81021 1.1451 4.89021 1.08971 4.97883 1.05187C5.06745 1.01404 5.16283 0.994541 5.25919 0.994541C5.35555 0.994541 5.45092 1.01404 5.53955 1.05187C5.62817 1.08971 5.70825 1.1451 5.7749 1.2147C5.9148 1.35697 5.99316 1.5485 5.99316 1.74803C5.99316 1.94756 5.9148 2.13911 5.7749 2.28138L1.90286 6.26875Z" fill="inherit" stroke="none"/>
</svg>
