<svg width="27" height="27" viewBox="0 0 27 27" fill="none" stroke="#F4BA36" xmlns="http://www.w3.org/2000/svg">
<path d="M0.75 13.5C0.75 6.42785 6.42785 0.75 13.5 0.75C20.5722 0.75 26.25 6.42785 26.25 13.5C26.25 20.5722 20.5722 26.25 13.5 26.25C6.42785 26.25 0.75 20.5722 0.75 13.5ZM14.7273 11.5227H12.2727C12.075 11.5227 11.9685 11.4601 11.9133 11.4049C11.8581 11.3497 11.7955 11.2432 11.7955 11.0455C11.7955 10.8477 11.8581 10.7412 11.9133 10.686C11.9685 10.6308 12.075 10.5682 12.2727 10.5682H17.1818C17.7204 10.5682 18.2276 10.3854 18.6019 10.011C18.9763 9.63665 19.1591 9.12953 19.1591 8.59091C19.1591 8.05229 18.9763 7.54516 18.6019 7.17081C18.2276 6.79645 17.7204 6.61364 17.1818 6.61364H15.4773V6.13636C15.4773 5.59775 15.2945 5.09062 14.9201 4.71626C14.5457 4.3419 14.0386 4.15909 13.5 4.15909C12.9614 4.15909 12.4543 4.3419 12.0799 4.71626C11.7055 5.09062 11.5227 5.59775 11.5227 6.13636V6.67312C9.3963 7.01579 7.84091 8.80136 7.84091 11.0455C7.84091 13.546 9.77215 15.4773 12.2727 15.4773H14.7273C14.925 15.4773 15.0315 15.5399 15.0867 15.5951C15.1419 15.6503 15.2045 15.7568 15.2045 15.9545C15.2045 16.1523 15.1419 16.2588 15.0867 16.314C15.0315 16.3692 14.925 16.4318 14.7273 16.4318H9.81818C9.27956 16.4318 8.77244 16.6146 8.39808 16.989C8.02372 17.3633 7.84091 17.8705 7.84091 18.4091C7.84091 18.9477 8.02372 19.4548 8.39808 19.8292C8.77244 20.2036 9.27956 20.3864 9.81818 20.3864H11.5227V20.8636C11.5227 21.4023 11.7055 21.9094 12.0799 22.2837C12.4543 22.6581 12.9614 22.8409 13.5 22.8409C14.0386 22.8409 14.5457 22.6581 14.9201 22.2837C15.2945 21.9094 15.4773 21.4023 15.4773 20.8636V20.3269C17.6037 19.9842 19.1591 18.1986 19.1591 15.9545C19.1591 13.454 17.2278 11.5227 14.7273 11.5227Z" stroke="inherit" stroke-width="1.5" fill="none"/>
</svg>
