<svg width="24" height="24" viewBox="0 0 24 24" fill="none" xmlns="http://www.w3.org/2000/svg">
<path d="M12 24C18.6274 24 24 18.6274 24 12C24 5.37258 18.6274 0 12 0C5.37258 0 0 5.37258 0 12C0 18.6274 5.37258 24 12 24Z" fill="url(#paint0_linear_1174_41467)"/>
<path d="M15.0318 6.39867C14.6353 6.40445 14.2558 6.56323 13.9757 6.84217L6.84592 13.9719C6.55989 14.258 6.40247 14.6463 6.40242 15.0498L6.39844 17.0873C6.39819 17.1545 6.41123 17.2211 6.43683 17.2832C6.46242 17.3453 6.50006 17.4018 6.54757 17.4493C6.59509 17.4968 6.65153 17.5345 6.71366 17.56C6.77579 17.5856 6.84237 17.5987 6.90956 17.5984L8.94707 17.5945C9.35054 17.5944 9.73892 17.437 10.025 17.151L17.1548 10.0212C17.7463 9.42907 17.7463 8.45257 17.1548 7.86042L16.1365 6.84217C15.8438 6.55057 15.4449 6.39146 15.0318 6.39867ZM15.0467 7.41295C15.1847 7.41102 15.3168 7.46573 15.4146 7.5631L16.4338 8.58234C16.6367 8.78543 16.6367 9.0972 16.4338 9.30029L15.7746 9.95857L14.0384 8.22238L14.6966 7.5631C14.7905 7.46958 14.9154 7.41487 15.0467 7.41295ZM13.3184 8.94231L15.0546 10.6785L9.66402 16.0691L7.92782 14.3329L13.3184 8.94231ZM7.4167 15.2616L8.73427 16.5792H7.4167V15.2616Z" fill="white"/>
<defs>
<linearGradient id="paint0_linear_1174_41467" x1="20" y1="21.6" x2="2.8" y2="2.4" gradientUnits="userSpaceOnUse">
<stop stop-color="#7467F0"/>
<stop offset="1" stop-color="#2896E9"/>
</linearGradient>
</defs>
</svg>
