<svg width="24" height="24" viewBox="0 0 24 24" fill="none" xmlns="http://www.w3.org/2000/svg">
<path d="M12 24C18.6274 24 24 18.6274 24 12C24 5.37258 18.6274 0 12 0C5.37258 0 0 5.37258 0 12C0 18.6274 5.37258 24 12 24Z" fill="url(#paint0_linear_1174_41417)"/>
<path fill-rule="evenodd" clip-rule="evenodd" d="M5 8.74609C5 8.33188 5.33579 7.99609 5.75 7.99609H18.25C18.6642 7.99609 19 8.33188 19 8.74609C19 9.16031 18.6642 9.49609 18.25 9.49609H5.75C5.33579 9.49609 5 9.16031 5 8.74609Z" fill="white"/>
<path fill-rule="evenodd" clip-rule="evenodd" d="M6.75607 8.70467C6.77805 8.30716 7.1068 7.99609 7.50492 7.99609H16.4905C16.8887 7.99609 17.2174 8.30716 17.2394 8.70468L17.3037 9.86732C17.4297 12.1459 17.3227 14.4314 16.9841 16.6883C16.7847 18.0175 15.6429 19.0009 14.2987 19.0009H9.69673C8.3526 19.0009 7.21073 18.0175 7.01134 16.6883C6.67281 14.4314 6.56573 12.1459 6.69176 9.86732L6.75607 8.70467ZM8.21459 9.49609L8.18947 9.95016C8.06908 12.1268 8.17137 14.3099 8.49474 16.4657C8.58399 17.0607 9.09509 17.5009 9.69673 17.5009H14.2987C14.9004 17.5009 15.4115 17.0607 15.5007 16.4657C15.8241 14.3099 15.9264 12.1268 15.806 9.95016L15.7809 9.49609H8.21459Z" fill="white"/>
<path fill-rule="evenodd" clip-rule="evenodd" d="M11.996 6.5C11.5329 6.5 11.0888 6.68395 10.7614 7.01139C10.434 7.33883 10.25 7.78294 10.25 8.24601V8.74521C10.25 9.15942 9.91421 9.49521 9.5 9.49521C9.08579 9.49521 8.75 9.15942 8.75 8.74521V8.24601C8.75 7.38511 9.09199 6.55948 9.70073 5.95073C10.3095 5.34199 11.1351 5 11.996 5C12.8569 5 13.6825 5.34199 14.2913 5.95073C14.9 6.55948 15.242 7.38511 15.242 8.24601V8.74521C15.242 9.15942 14.9062 9.49521 14.492 9.49521C14.0778 9.49521 13.742 9.15942 13.742 8.74521V8.24601C13.742 7.78294 13.5581 7.33883 13.2306 7.01139C12.9032 6.68395 12.4591 6.5 11.996 6.5Z" fill="white"/>
<path fill-rule="evenodd" clip-rule="evenodd" d="M10.5 10.668C10.9142 10.668 11.25 11.0038 11.25 11.418V15.5559C11.25 15.9701 10.9142 16.3059 10.5 16.3059C10.0858 16.3059 9.75 15.9701 9.75 15.5559V11.418C9.75 11.0038 10.0858 10.668 10.5 10.668Z" fill="white"/>
<path fill-rule="evenodd" clip-rule="evenodd" d="M13.4961 10.668C13.9103 10.668 14.2461 11.0038 14.2461 11.418V15.5559C14.2461 15.9701 13.9103 16.3059 13.4961 16.3059C13.0819 16.3059 12.7461 15.9701 12.7461 15.5559V11.418C12.7461 11.0038 13.0819 10.668 13.4961 10.668Z" fill="white"/>
<defs>
<linearGradient id="paint0_linear_1174_41417" x1="8" y1="8.4" x2="18" y2="24" gradientUnits="userSpaceOnUse">
<stop stop-color="#B8B8B8"/>
<stop offset="1" stop-color="#727473"/>
</linearGradient>
</defs>
</svg>
