<svg width="28" height="32" viewBox="0 0 28 32" fill="#5DA1DE" stroke="none" xmlns="http://www.w3.org/2000/svg">
<path fill-rule="evenodd" clip-rule="evenodd" d="M2.67052 1.24865C3.47002 0.449153 4.55437 0 5.68503 0H17.764C18.1409 0 18.5023 0.149718 18.7688 0.416217L26.5846 8.23201C26.8511 8.49851 27.0008 8.85996 27.0008 9.23684V27C27.0008 28.1307 26.5517 29.215 25.7522 30.0145C24.9527 30.814 23.8683 31.2632 22.7377 31.2632H2.84293C2.0581 31.2632 1.42188 30.6269 1.42188 29.8421C1.42188 29.0573 2.0581 28.4211 2.84293 28.4211H22.7377C23.1145 28.4211 23.476 28.2713 23.7425 28.0048C24.009 27.7383 24.1587 27.3769 24.1587 27V9.82546L17.1754 2.84211H5.68503C5.30815 2.84211 4.9467 2.99182 4.6802 3.25832C4.4137 3.52482 4.26398 3.88627 4.26398 4.26316V9.94737C4.26398 10.7322 3.62775 11.3684 2.84293 11.3684C2.0581 11.3684 1.42188 10.7322 1.42188 9.94737V4.26316C1.42188 3.1325 1.87103 2.04815 2.67052 1.24865Z" fill="inherit" stroke="none"/>
<path fill-rule="evenodd" clip-rule="evenodd" d="M17.0539 0C17.8387 0 18.4749 0.636227 18.4749 1.42105V8.52632H25.5802C26.365 8.52632 27.0012 9.16254 27.0012 9.94737C27.0012 10.7322 26.365 11.3684 25.5802 11.3684H17.0539C16.269 11.3684 15.6328 10.7322 15.6328 9.94737V1.42105C15.6328 0.636227 16.269 0 17.0539 0Z" fill="inherit" stroke="none"/>
<path fill-rule="evenodd" clip-rule="evenodd" d="M0 19.8957C0 19.1108 0.636227 18.4746 1.42105 18.4746H9.94737C10.7322 18.4746 11.3684 19.1108 11.3684 19.8957C11.3684 20.6805 10.7322 21.3167 9.94737 21.3167H1.42105C0.636227 21.3167 0 20.6805 0 19.8957Z" fill="inherit" stroke="none"/>
<path fill-rule="evenodd" clip-rule="evenodd" d="M5.68277 14.2109C6.4676 14.2109 7.10382 14.8472 7.10382 15.632V24.1583C7.10382 24.9431 6.4676 25.5794 5.68277 25.5794C4.89795 25.5794 4.26172 24.9431 4.26172 24.1583V15.632C4.26172 14.8472 4.89795 14.2109 5.68277 14.2109Z" fill="inherit" stroke="none"/>
</svg>
