<svg width="48" height="52" viewBox="0 0 48 52" fill="#E32B2B" stroke="#E32B2B" xmlns="http://www.w3.org/2000/svg">
<path d="M39.1 16.675V16.7977L39.1391 16.9141C39.1917 17.0705 39.2288 17.2316 39.25 17.3951V17.3954V17.3961V17.3968V17.3975V17.3982V17.3988V17.3995V17.4002V17.4009V17.4015V17.4022V17.4028V17.4035V17.4041V17.4048V17.4054V17.4061V17.4067V17.4074V17.408V17.4086V17.4093V17.4099V17.4105V17.4111V17.4118V17.4124V17.413V17.4136V17.4142V17.4148V17.4154V17.416V17.4166V17.4172V17.4178V17.4184V17.419V17.4195V17.4201V17.4207V17.4213V17.4218V17.4224V17.423V17.4235V17.4241V17.4247V17.4252V17.4258V17.4263V17.4269V17.4274V17.4279V17.4285V17.429V17.4295V17.4301V17.4306V17.4311V17.4316V17.4322V17.4327V17.4332V17.4337V17.4342V17.4347V17.4352V17.4357V17.4362V17.4367V17.4372V17.4377V17.4382V17.4387V17.4392V17.4396V17.4401V17.4406V17.4411V17.4415V17.442V17.4425V17.4429V17.4434V17.4438V17.4443V17.4448V17.4452V17.4457V17.4461V17.4465V17.447V17.4474V17.4479V17.4483V17.4487V17.4492V17.4496V17.45V17.4504V17.4508V17.4513V17.4517V17.4521V17.4525V17.4529V17.4533V17.4537V17.4541V17.4545V17.4549V17.4553V17.4557V17.4561V17.4565V17.4568V17.4572V17.4576V17.458V17.4584V17.4587V17.4591V17.4595V17.4598V17.4602V17.4606V17.4609V17.4613V17.4616V17.462V17.4623V17.4627V17.463V17.4634V17.4637V17.4641V17.4644V17.4647V17.4651V17.4654V17.4657V17.4661V17.4664V17.4667V17.467V17.4673V17.4677V17.468V17.4683V17.4686V17.4689V17.4692V17.4695V17.4698V17.4701V17.4704V17.4707V17.471V17.4713V17.4716V17.4719V17.4722V17.4725V17.4727V17.473V17.4733V17.4736V17.4739V17.4741V17.4744V17.4747V17.4749V17.4752V17.4755V17.4757V17.476V17.4762V17.4765V17.4768V17.477V17.4773V17.4775V17.4778V17.478V17.4782V17.4785V17.4787V17.479V17.4792V17.4794V17.4797V17.4799V17.4801V17.4804V17.4806V17.4808V17.481V17.4812V17.4815V17.4817V17.4819V17.4821V17.4823V17.4825V17.4827V17.483V17.4832V17.4834V17.4836V17.4838V17.484V17.4842V17.4844V17.4846V17.4847V17.4849V17.4851V17.4853V17.4855V17.4857V17.4859V17.486V17.4862V17.4864V17.4866V17.4868V17.4869V17.4871V17.4873V17.4874V17.4876V17.4878V17.4879V17.4881V17.4883V17.4884V17.4886V17.4887V17.4889V17.489V17.4892V17.4894V17.4895V17.4896V17.4898V17.4899V17.4901V17.4902V17.4904V17.4905V17.4907V17.4908V17.4909V17.4911V17.4912V17.4913V17.4915V17.4916V17.4917V17.4918V17.492V17.4921V17.4922V17.4923V17.4925V17.4926V17.4927V17.4928V17.4929V17.493V17.4932V17.4933V17.4934V17.4935V17.4936V17.4937V17.4938V17.4939V17.494V17.4941V17.4942V17.4943V17.4944V17.4945V17.4946V17.4947V17.4948V17.4949V17.495V17.4951V17.4952V17.4952V17.4953V17.4954V17.4955V17.4956V17.4957V17.4958V17.4958V17.4959V17.496V17.4961V17.4962V17.4962V17.4963V17.4964V17.4965V17.4965V17.4966V17.4967V17.4967V17.4968V17.4969V17.4969V17.497V17.4971V17.4971V17.4972V17.4972V17.4973V17.4974V17.4974V17.4975V17.4975V17.4976V17.4977V17.4977V17.4978V17.4978V17.4979V17.4979V17.498V17.498V17.4981V17.4981V17.4982V17.4982V17.4983V17.4983V17.4983V17.4984V17.4984V17.4985V17.4985V17.4986V17.4986V17.4986V17.4987V17.4987V17.4987V17.4988V17.4988V17.4988V17.4989V17.4989V17.4989V17.499V17.499V17.499V17.4991V17.4991V17.4991V17.4992V17.4992V17.4993V17.4993V17.4994V17.4994V17.4995V17.4995V17.4995V17.4996V17.4996V17.4996V17.4997V17.4997V17.4998V17.4998V17.4998V17.4999V17.4999V17.4999V17.5V17.5V42.5C39.25 44.2902 38.5388 46.0071 37.273 47.273C36.0071 48.5388 34.2902 49.25 32.5 49.25H7.5C5.70979 49.25 3.9929 48.5388 2.72703 47.273C1.46116 46.0071 0.75 44.2902 0.75 42.5V7.5C0.75 5.70979 1.46116 3.9929 2.72703 2.72703C3.9929 1.46116 5.70979 0.75 7.5 0.75H22.5247L23.2062 0.984265L23.3247 1.025H23.45H23.4938C23.6234 1.0987 23.744 1.18728 23.8534 1.28904L38.836 16.2716C38.9377 16.381 39.0263 16.5017 39.1 16.6312V16.675ZM25.5303 7.99467L24.25 6.71434V8.525V15V15.75H25H31.475H33.2857L32.0053 14.4697L25.5303 7.99467ZM20.75 5V4.25H20H7.5C6.63805 4.25 5.8114 4.59241 5.2019 5.2019C4.59241 5.8114 4.25 6.63805 4.25 7.5V42.5C4.25 43.362 4.59241 44.1886 5.2019 44.7981C5.8114 45.4076 6.63805 45.75 7.5 45.75H32.5C33.3619 45.75 34.1886 45.4076 34.7981 44.7981C35.4076 44.1886 35.75 43.3619 35.75 42.5V20V19.25H35H22.5C22.0359 19.25 21.5908 19.0656 21.2626 18.7374C20.9344 18.4092 20.75 17.9641 20.75 17.5V5Z" fill="inherit" stroke="#FFF2F2" stroke-width="1.5"/>
<rect x="27" y="32" width="21" height="20" fill="white" stroke="none"/>
<path d="M43 47.0917L31.8212 37" stroke="inherit" fill="none" stroke-width="3" stroke-linecap="round" stroke-linejoin="round"/>
<path d="M31.8203 47.0917L42.9991 37" stroke="inherit" fill="none" stroke-width="3" stroke-linecap="round" stroke-linejoin="round"/>
</svg>
