<svg width="21" height="29" viewBox="0 0 21 29" fill="#5DA1DE" stroke="#5DA1DE" xmlns="http://www.w3.org/2000/svg">
<path d="M16.8422 13.101C16.8313 12.9892 16.8101 12.879 16.7791 12.7723V12.6627C16.7285 12.5376 16.6609 12.4225 16.5791 12.3219L10.2632 5.01756C10.1762 4.92287 10.0767 4.84479 9.96849 4.78626H9.87375L9.53691 4.65234H3.15792C2.32038 4.65234 1.51716 5.03712 0.924932 5.72203C0.332708 6.40695 0 7.33588 0 8.3045V25.3479C0 26.3165 0.332708 27.2454 0.924932 27.9303C1.51716 28.6152 2.32038 29 3.15792 29H13.6843C14.5218 29 15.3251 28.6152 15.9173 27.9303C16.5095 27.2454 16.8422 26.3165 16.8422 25.3479V13.174C16.8422 13.174 16.8422 13.174 16.8422 13.101ZM10.5264 8.80362L13.2527 11.9566H10.5264V8.80362ZM14.7369 25.3479C14.7369 25.6707 14.626 25.9804 14.4286 26.2087C14.2312 26.437 13.9635 26.5653 13.6843 26.5653H3.15792C2.87874 26.5653 2.611 26.437 2.41359 26.2087C2.21618 25.9804 2.10528 25.6707 2.10528 25.3479V8.3045C2.10528 7.98163 2.21618 7.67198 2.41359 7.44368C2.611 7.21537 2.87874 7.08711 3.15792 7.08711H8.42111V13.174C8.42111 13.4969 8.53201 13.8065 8.72942 14.0349C8.92683 14.2632 9.19457 14.3914 9.47375 14.3914H14.7369V25.3479Z" fill="inherit" stroke="none"/>
<path d="M5.26367 4.65215V3C5.26367 1.89543 6.1591 1 7.26367 1H18.0006C19.1052 1 20.0006 1.89543 20.0006 3V20.9129C20.0006 22.0175 19.1052 22.9129 18.0006 22.9129H16.8427" fill="none" stroke="inherit" stroke-width="2"/>
</svg>
