<svg width="23" height="30" viewBox="0 0 23 30" fill="#5DA1DE" stroke="#5DA1DE" xmlns="http://www.w3.org/2000/svg">
<path fill-rule="evenodd" clip-rule="evenodd" d="M20.7856 11.9357C20.5827 11.8454 20.3547 11.8841 20.152 12.0433L19.5808 12.492L20.2169 14.6563L20.7881 14.2076C20.9909 14.0483 21.1518 13.7816 21.2355 13.4661C21.3191 13.1505 21.3188 12.812 21.2344 12.525C21.1501 12.238 20.9886 12.026 20.7856 11.9357ZM21.2121 15.6501C21.6851 15.2786 22.0605 14.6563 22.2557 13.9202C22.451 13.184 22.4501 12.3943 22.2533 11.7247C22.0565 11.0551 21.6799 10.5605 21.2063 10.3498C20.7327 10.139 20.201 10.2293 19.728 10.6008L18.6477 11.4494L9.8346 18.3722C9.69949 18.4783 9.59225 18.6561 9.53646 18.8664L8.78517 21.6989C8.66901 22.1368 8.80324 22.5935 9.08498 22.7189L10.8705 23.5136C11.0057 23.5738 11.1577 23.548 11.2928 23.4419L21.2121 15.6501ZM19.198 15.4566L18.5619 13.2924L10.4696 19.6489L10.0158 21.36L11.0798 21.8336L19.198 15.4566Z" fill="inherit" stroke="none"/>
<path d="M8 2V8C8 8.55228 8.44772 9 9 9H16" stroke="inherit" fill="none" stroke-width="2"/>
<path d="M16.1308 18.5V27C16.1308 28.1046 15.2354 29 14.1308 29H3C1.89543 29 1 28.1046 1 27V3C1 1.89543 1.89543 1 3 1H9.7443C10.364 1 10.9487 1.28729 11.3274 1.77784L15.714 7.46001C15.9842 7.8101 16.1308 8.2399 16.1308 8.68217V14.3" stroke="inherit" fill="none" stroke-width="2"/>
</svg>
