<svg width="27" height="27" viewBox="0 0 27 27" fill="#C2383A" stroke="none" xmlns="http://www.w3.org/2000/svg">
<rect width="27" height="27" rx="13.5" fill="inherit" stroke="none" />
<path fill-rule="evenodd" clip-rule="evenodd" d="M14.25 13.798V7.46053C14.25 7.06811 13.9142 6.75 13.5 6.75C13.0858 6.75 12.75 7.06811 12.75 7.46053V13.798L10.2185 11.8794C9.89508 11.6342 9.42311 11.6839 9.16435 11.9903C8.90559 12.2968 8.95803 12.7439 9.28148 12.989L12.7972 15.6536C12.841 15.6868 12.8867 15.7164 12.934 15.7425C13.0715 15.8922 13.2741 15.9868 13.5 15.9868C13.7259 15.9868 13.9285 15.8922 14.066 15.7425C14.1133 15.7164 14.159 15.6868 14.2028 15.6536L17.7185 12.989C18.042 12.7439 18.0944 12.2968 17.8357 11.9903C17.5769 11.6839 17.1049 11.6342 16.7815 11.8794L14.25 13.798ZM7.5 15.2763C7.91421 15.2763 8.25 15.5944 8.25 15.9868V18.8289L18.75 18.8289V15.9868C18.75 15.5944 19.0858 15.2763 19.5 15.2763C19.9142 15.2763 20.25 15.5944 20.25 15.9868V19.1842C20.25 19.7728 19.7463 20.25 19.125 20.25L7.875 20.25C7.25368 20.25 6.75 19.7728 6.75 19.1842L6.75 15.9868C6.75 15.5944 7.08579 15.2763 7.5 15.2763Z" fill="white" stroke="none"/>
</svg>
