<svg width="24" height="24" viewBox="0 0 24 24" fill="none" xmlns="http://www.w3.org/2000/svg">
<path d="M12 24C18.6274 24 24 18.6274 24 12C24 5.37258 18.6274 0 12 0C5.37258 0 0 5.37258 0 12C0 18.6274 5.37258 24 12 24Z" fill="url(#paint0_linear_1174_41430)"/>
<path d="M12.25 12.875C12.1679 12.875 12.0867 12.8589 12.0108 12.8275C11.935 12.7961 11.8661 12.75 11.808 12.692C11.75 12.6339 11.704 12.565 11.6726 12.4892C11.6412 12.4134 11.625 12.3321 11.625 12.25V10.375C11.625 10.2092 11.6909 10.0503 11.8081 9.93306C11.9253 9.81585 12.0843 9.75 12.25 9.75C12.4158 9.75 12.5748 9.81585 12.692 9.93306C12.8092 10.0503 12.875 10.2092 12.875 10.375V12.25C12.875 12.3321 12.8589 12.4134 12.8275 12.4892C12.7961 12.565 12.7501 12.6339 12.692 12.692C12.634 12.75 12.5651 12.7961 12.4892 12.8275C12.4134 12.8589 12.3321 12.875 12.25 12.875ZM12.25 14.75C12.1677 14.7508 12.0861 14.7352 12.0099 14.7041C11.9337 14.6729 11.8645 14.6269 11.8063 14.5687C11.7481 14.5105 11.7021 14.4413 11.671 14.3651C11.6398 14.2889 11.6242 14.2073 11.625 14.125C11.6273 13.9595 11.6921 13.801 11.8063 13.6812C11.8659 13.6247 11.9358 13.5802 12.0123 13.55C12.1261 13.5023 12.2516 13.4892 12.3728 13.5126C12.4941 13.536 12.6057 13.5946 12.6937 13.6812C12.8078 13.8011 12.8726 13.9595 12.875 14.125C12.8758 14.2073 12.8602 14.2889 12.8291 14.3651C12.798 14.4413 12.7519 14.5105 12.6938 14.5687C12.6356 14.6269 12.5663 14.6729 12.4901 14.7041C12.414 14.7352 12.3323 14.7508 12.25 14.75Z" fill="white"/>
<path d="M12.25 6C10.6126 6.00422 9.04208 6.64975 7.87501 7.79821V6.625C7.87501 6.45924 7.80916 6.30027 7.69195 6.18306C7.57474 6.06585 7.41577 6 7.25001 6C7.08425 6 6.92527 6.06585 6.80806 6.18306C6.69085 6.30027 6.62501 6.45924 6.62501 6.625V9.4375C6.62498 9.51958 6.64114 9.60086 6.67254 9.6767C6.70394 9.75254 6.74998 9.82145 6.80802 9.87949C6.86606 9.93753 6.93497 9.98357 7.0108 10.015C7.08664 10.0464 7.16792 10.0625 7.25001 10.0625H10.0625C10.2283 10.0625 10.3872 9.99665 10.5044 9.87944C10.6217 9.76223 10.6875 9.60326 10.6875 9.4375C10.6875 9.27174 10.6217 9.11277 10.5044 8.99556C10.3872 8.87835 10.2283 8.8125 10.0625 8.8125H8.63653C9.32299 8.08588 10.2119 7.58227 11.1881 7.36701C12.1643 7.15175 13.1826 7.23476 14.111 7.60527C15.0394 7.97578 15.835 8.6167 16.3948 9.44491C16.9545 10.2731 17.2525 11.2504 17.25 12.25C17.25 12.4158 17.3159 12.5747 17.4331 12.6919C17.5503 12.8092 17.7092 12.875 17.875 12.875C18.0408 12.875 18.1997 12.8092 18.3169 12.6919C18.4342 12.5747 18.5 12.4158 18.5 12.25C18.4981 10.593 17.839 9.00437 16.6673 7.83268C15.4956 6.66098 13.907 6.0019 12.25 6ZM17.25 14.4375H14.4375C14.2717 14.4375 14.1128 14.5033 13.9956 14.6206C13.8784 14.7378 13.8125 14.8967 13.8125 15.0625C13.8125 15.2283 13.8784 15.3872 13.9956 15.5044C14.1128 15.6217 14.2717 15.6875 14.4375 15.6875H15.8635C15.177 16.4141 14.2881 16.9177 13.3119 17.133C12.3358 17.3483 11.3174 17.2652 10.389 16.8947C9.46063 16.5242 8.66496 15.8833 8.10524 15.0551C7.54552 14.2269 7.24756 13.2496 7.25001 12.25C7.25001 12.0842 7.18416 11.9253 7.06695 11.8081C6.94974 11.6908 6.79077 11.625 6.62501 11.625C6.45925 11.625 6.30027 11.6908 6.18306 11.8081C6.06585 11.9253 6.00001 12.0842 6.00001 12.25C5.99835 13.4816 6.36108 14.6861 7.04253 15.712C7.72399 16.7378 8.6937 17.5392 9.8296 18.0151C10.9655 18.4911 12.2168 18.6203 13.426 18.3866C14.6352 18.1529 15.7482 17.5667 16.625 16.7018V17.875C16.625 18.0408 16.6909 18.1997 16.8081 18.3169C16.9253 18.4342 17.0842 18.5 17.25 18.5C17.4158 18.5 17.5747 18.4342 17.6919 18.3169C17.8092 18.1997 17.875 18.0408 17.875 17.875V15.0625C17.875 14.9804 17.8589 14.8991 17.8275 14.8233C17.7961 14.7475 17.75 14.6786 17.692 14.6205C17.634 14.5625 17.565 14.5164 17.4892 14.485C17.4134 14.4536 17.3321 14.4375 17.25 14.4375Z" fill="white"/>
<defs>
<linearGradient id="paint0_linear_1174_41430" x1="8" y1="8.4" x2="18" y2="24" gradientUnits="userSpaceOnUse">
<stop stop-color="#FF708B"/>
<stop offset="1" stop-color="#E2294C"/>
</linearGradient>
</defs>
</svg>
