<svg width="20" height="18" viewBox="0 0 20 18" fill="#364B91" stroke="none" xmlns="http://www.w3.org/2000/svg">
<path d="M18.9232 10.5881L17.0172 9.48828L10.1895 13.4311C9.8892 13.6042 9.51941 13.6042 9.2191 13.4311L2.39137 9.48828L0.485368 10.5881C0.0211319 10.8563 -0.137841 11.45 0.130303 11.9142C0.215467 12.0617 0.337924 12.1841 0.485368 12.2693L9.2191 17.3128C9.51941 17.4859 9.8892 17.4859 10.1895 17.3128L18.9232 12.2693C19.3875 12.0011 19.5465 11.4074 19.2783 10.9432C19.1931 10.7957 19.0707 10.6733 18.9232 10.5881Z" fill="white" stroke="none"/>
<path fill-rule="evenodd" clip-rule="evenodd" d="M10.6741 14.2719C10.0739 14.6179 9.33474 14.6179 8.73448 14.2719L8.7338 14.2715L2.39119 10.6088L0.970744 11.4284L0.970739 11.429L9.70372 16.472C9.70372 16.472 9.70371 16.472 9.70372 16.472C9.70407 16.4722 9.70452 16.4722 9.70487 16.472C9.70488 16.472 9.70486 16.472 9.70487 16.472L18.4379 11.429L18.4379 11.4284L17.0174 10.6088L10.6741 14.2719ZM18.9232 10.5881L17.0172 9.48828L10.1895 13.4311C9.8892 13.6042 9.51941 13.6042 9.2191 13.4311L2.39137 9.48828L0.485368 10.5881C0.0211319 10.8563 -0.137841 11.45 0.130304 11.9142C0.215467 12.0617 0.337924 12.1841 0.485368 12.2693L9.2191 17.3128C9.51941 17.4859 9.8892 17.4859 10.1895 17.3128L18.9232 12.2693C19.3875 12.0011 19.5465 11.4074 19.2783 10.9432C19.1931 10.7957 19.0707 10.6733 18.9232 10.5881Z" fill="inherit" stroke="none"/>
<path d="M18.9232 7.75609L17.0172 6.65625L10.1895 10.5991C9.8892 10.7722 9.51941 10.7722 9.2191 10.5991L2.39137 6.65625L0.485368 7.75609C0.0211319 8.02423 -0.137841 8.61795 0.130303 9.08219C0.215467 9.22963 0.337924 9.35209 0.485368 9.43725L9.2191 14.4807C9.51941 14.6539 9.8892 14.6539 10.1895 14.4807L18.9232 9.43725C19.3875 9.16911 19.5465 8.57539 19.2783 8.11115C19.1931 7.96371 19.0707 7.84125 18.9232 7.75609Z" fill="#FEFEFE" stroke="none"/>
<path fill-rule="evenodd" clip-rule="evenodd" d="M10.6742 11.4398C10.0739 11.7859 9.33473 11.7859 8.73446 11.4398L2.39119 7.77676L0.970744 8.59641L0.970739 8.59692L9.70372 13.64C9.70408 13.6402 9.70453 13.6402 9.70489 13.64L18.4379 8.59692L18.4379 8.59642L17.0174 7.77676L10.6742 11.4398ZM17.0172 6.65625L18.9232 7.75609C19.0707 7.84125 19.1931 7.96371 19.2783 8.11115C19.5465 8.57539 19.3875 9.16911 18.9232 9.43725L10.1895 14.4807C9.8892 14.6539 9.51941 14.6539 9.2191 14.4807L0.485368 9.43725C0.337924 9.35209 0.215467 9.22963 0.130304 9.08219C-0.137841 8.61795 0.0211319 8.02423 0.485368 7.75609L2.39137 6.65625L9.2191 10.5991C9.51941 10.7722 9.8892 10.7722 10.1895 10.5991L17.0172 6.65625Z" fill="inherit" stroke="none"/>
<path d="M9.70431 12.0236C9.53399 12.0235 9.36667 11.9788 9.2191 11.8937L0.485368 6.85024C0.0211319 6.58209 -0.137841 5.98837 0.130303 5.52414C0.215467 5.37669 0.337924 5.25424 0.485368 5.16907L9.2191 0.129361C9.51958 -0.0431204 9.88903 -0.0431204 10.1895 0.129361L18.9232 5.16907C19.3875 5.43722 19.5465 6.03094 19.2783 6.49517C19.1931 6.64262 19.0707 6.76507 18.9232 6.85024L10.1895 11.8937C10.0419 11.9788 9.87462 12.0235 9.70431 12.0236Z" fill="white" stroke="none"/>
<path fill-rule="evenodd" clip-rule="evenodd" d="M0.970629 6.00951L9.70353 11.0529C9.70354 11.0529 9.70353 11.0529 9.70353 11.0529C9.70377 11.053 9.70405 11.0531 9.70431 11.0531C9.70457 11.0531 9.70482 11.053 9.70505 11.0529C9.70506 11.0529 9.70504 11.0529 9.70505 11.0529L18.4379 6.00991L18.4379 6.0094L9.7064 0.970989C9.70636 0.970966 9.70644 0.971011 9.7064 0.970989C9.70517 0.970334 9.70357 0.970267 9.70233 0.970922C9.70229 0.970944 9.70237 0.970899 9.70233 0.970922L0.970629 6.00951ZM9.2191 0.129361L0.485368 5.16907C0.337924 5.25424 0.215467 5.37669 0.130304 5.52414C-0.137841 5.98837 0.0211319 6.58209 0.485368 6.85024L9.2191 11.8937C9.36667 11.9788 9.53399 12.0235 9.70431 12.0236C9.87462 12.0235 10.0419 11.9788 10.1895 11.8937L18.9232 6.85024C19.0707 6.76507 19.1931 6.64262 19.2783 6.49517C19.5465 6.03094 19.3875 5.43722 18.9232 5.16907L10.1895 0.129361C9.88903 -0.0431204 9.51958 -0.0431204 9.2191 0.129361Z" fill="inherit" stroke="none"/>
</svg>
