<svg width="29" height="31" viewBox="0 0 29 31" fill="#5DA1DE" stroke="none" xmlns="http://www.w3.org/2000/svg">
<path fill-rule="evenodd" clip-rule="evenodd" d="M4.14277 8.16123C2.99878 8.16123 2.07139 9.08862 2.07139 10.2326C2.07139 11.3766 2.99878 12.304 4.14277 12.304C5.28677 12.304 6.21416 11.3766 6.21416 10.2326C6.21416 9.08862 5.28677 8.16123 4.14277 8.16123ZM0 10.2326C0 7.94463 1.85478 6.08984 4.14277 6.08984C6.43076 6.08984 8.28554 7.94463 8.28554 10.2326C8.28554 12.5206 6.43076 14.3754 4.14277 14.3754C1.85478 14.3754 0 12.5206 0 10.2326Z" fill="inherit" stroke="none"/>
<path fill-rule="evenodd" clip-rule="evenodd" d="M4.14311 13.2148C4.71511 13.2148 5.17881 13.6785 5.17881 14.2505V29.7859C5.17881 30.3579 4.71511 30.8216 4.14311 30.8216C3.57112 30.8216 3.10742 30.3579 3.10742 29.7859V14.2505C3.10742 13.6785 3.57112 13.2148 4.14311 13.2148Z" fill="inherit" stroke="none"/>
<path fill-rule="evenodd" clip-rule="evenodd" d="M4.14311 0C4.71511 0 5.17881 0.463696 5.17881 1.03569V6.21416C5.17881 6.78616 4.71511 7.24985 4.14311 7.24985C3.57112 7.24985 3.10742 6.78616 3.10742 6.21416V1.03569C3.10742 0.463696 3.57112 0 4.14311 0Z" fill="inherit" stroke="none"/>
<path fill-rule="evenodd" clip-rule="evenodd" d="M24.8576 8.16123C23.7136 8.16123 22.7862 9.08862 22.7862 10.2326C22.7862 11.3766 23.7136 12.304 24.8576 12.304C26.0016 12.304 26.929 11.3766 26.929 10.2326C26.929 9.08862 26.0016 8.16123 24.8576 8.16123ZM20.7148 10.2326C20.7148 7.94463 22.5696 6.08984 24.8576 6.08984C27.1456 6.08984 29.0004 7.94463 29.0004 10.2326C29.0004 12.5206 27.1456 14.3754 24.8576 14.3754C22.5696 14.3754 20.7148 12.5206 20.7148 10.2326Z" fill="inherit" stroke="none"/>
<path fill-rule="evenodd" clip-rule="evenodd" d="M24.856 0C25.428 0 25.8917 0.463696 25.8917 1.03569V6.21416C25.8917 6.78616 25.428 7.24985 24.856 7.24985C24.284 7.24985 23.8203 6.78616 23.8203 6.21416V1.03569C23.8203 0.463696 24.284 0 24.856 0Z" fill="inherit" stroke="none"/>
<path fill-rule="evenodd" clip-rule="evenodd" d="M24.856 13.2148C25.428 13.2148 25.8917 13.6785 25.8917 14.2505V29.7859C25.8917 30.3579 25.428 30.8216 24.856 30.8216C24.284 30.8216 23.8203 30.3579 23.8203 29.7859V14.2505C23.8203 13.6785 24.284 13.2148 24.856 13.2148Z" fill="inherit" stroke="none"/>
<path fill-rule="evenodd" clip-rule="evenodd" d="M14.5002 13.3409C13.3562 13.3409 12.4288 14.2683 12.4288 15.4123C12.4288 16.5563 13.3562 17.4837 14.5002 17.4837C15.6442 17.4837 16.5716 16.5563 16.5716 15.4123C16.5716 14.2683 15.6442 13.3409 14.5002 13.3409ZM10.3574 15.4123C10.3574 13.1243 12.2122 11.2695 14.5002 11.2695C16.7882 11.2695 18.643 13.1243 18.643 15.4123C18.643 17.7003 16.7882 19.5551 14.5002 19.5551C12.2122 19.5551 10.3574 17.7003 10.3574 15.4123Z" fill="inherit" stroke="none"/>
<path fill-rule="evenodd" clip-rule="evenodd" d="M14.5005 0C15.0725 0 15.5362 0.463696 15.5362 1.03569V11.3926C15.5362 11.9646 15.0725 12.4283 14.5005 12.4283C13.9285 12.4283 13.4648 11.9646 13.4648 11.3926V1.03569C13.4648 0.463696 13.9285 0 14.5005 0Z" fill="inherit" stroke="none"/>
<path fill-rule="evenodd" clip-rule="evenodd" d="M14.5005 18.3945C15.0725 18.3945 15.5362 18.8582 15.5362 19.4302V29.7872C15.5362 30.3592 15.0725 30.8228 14.5005 30.8228C13.9285 30.8228 13.4648 30.3592 13.4648 29.7872V19.4302C13.4648 18.8582 13.9285 18.3945 14.5005 18.3945Z" fill="inherit" stroke="none"/>
</svg>
