<svg width="50" height="40" viewBox="0 0 50 40" fill="#364B91" stroke="#364B91" xmlns="http://www.w3.org/2000/svg">
<mask id="path-1-inside-1_2325_49975" fill="white" stroke="none">
<path d="M23.6246 0.000758903H23.6259C23.8797 -0.00706307 24.1318 0.0456732 24.3615 0.154666C24.5912 0.263659 24.7921 0.42581 24.9478 0.627907C25.4336 1.21638 25.9223 1.80223 26.4137 2.38542C26.9499 3.0253 27.4843 3.66675 28.017 4.30979C28.0445 4.35337 28.0842 4.3878 28.1311 4.40875C28.1779 4.42971 28.2299 4.43626 28.2805 4.4276L36.4167 4.42269C39.3544 4.42269 42.2919 4.42064 45.2293 4.41652C46.862 4.41652 48.1505 5.02277 49.074 6.21851C49.6874 7.01988 50.0121 8.0075 49.9948 9.01926L49.9961 10.344C50.0021 16.9729 50.0012 23.6018 49.9934 30.2307C49.9863 32.9021 48.06 34.8065 45.3091 34.8621C45.1806 34.8612 45.0524 34.8524 44.925 34.8357C44.8877 34.8314 44.8504 34.8266 44.8137 34.823C44.8167 34.8752 44.8211 34.9303 44.8248 34.9755C44.8344 35.0942 44.8432 35.213 44.8421 35.3205C44.8063 38.0682 42.8952 39.9872 40.1943 39.9889L24.9713 39.9934H22.432C16.5111 39.9934 10.5907 39.9956 4.6708 40C2.56711 40 0.743543 38.666 0.201862 36.7458L0 36.6983V8.79459L0.0696538 8.66871C0.169327 8.4778 0.256337 8.28047 0.330117 8.07798C0.464267 7.68775 0.654309 7.31937 0.894255 6.98453C1.83646 5.76726 3.14007 5.14785 4.76889 5.14168C4.9014 5.14168 5.04521 5.14025 5.15131 5.13519C5.15603 5.03021 5.15683 4.88835 5.15745 4.75725C5.17317 1.96552 7.11277 0.0135776 9.87415 0.0100942L16.7238 0.0064606C19.024 0.00656616 21.3242 0.00466446 23.6246 0.000758903ZM28.2812 5.53608C28.0681 5.54456 27.8561 5.5018 27.6626 5.41136C27.4691 5.32092 27.2998 5.18539 27.1686 5.01597C26.6413 4.37536 26.107 3.73789 25.5728 3.10012C25.0811 2.51334 24.5909 1.92539 24.102 1.33629C24.0493 1.25998 23.9778 1.19883 23.8945 1.1589C23.8112 1.11897 23.719 1.10163 23.627 1.10861C21.3262 1.1142 19.0251 1.11615 16.7238 1.11446L9.87572 1.11812C7.69077 1.12097 6.27037 2.55151 6.25779 4.76295C6.25151 5.99336 6.0019 6.24337 4.77361 6.2497C3.48087 6.25414 2.49623 6.71724 1.7623 7.6655C1.58871 7.91809 1.45112 8.19396 1.35359 8.48504C1.27499 8.6847 1.19638 8.88388 1.10049 9.07546V36.0067C1.17099 36.1146 1.21859 36.236 1.24026 36.3632C1.63009 37.8604 3.03744 38.8918 4.66704 38.8918C10.5911 38.8855 16.5129 38.8833 22.4326 38.8852L40.194 38.8809C42.2557 38.8795 43.7151 37.4103 43.7423 35.308C43.7423 35.2334 43.7353 35.1496 43.7286 35.0663C43.7023 34.7432 43.6696 34.341 43.9266 34.0307C44.0224 33.9217 44.1415 33.8361 44.2749 33.7802C44.4084 33.7243 44.5526 33.6996 44.6969 33.708C44.8156 33.7102 44.9341 33.7192 45.0518 33.7348C45.127 33.7455 45.2027 33.752 45.2786 33.7542C47.4391 33.7107 48.8882 32.2936 48.894 30.228C48.9087 23.601 48.9096 16.9733 48.8967 10.345L48.8955 9.01957C48.911 8.25406 48.6678 7.50597 48.2059 6.89792C47.4924 5.9742 46.5239 5.52468 45.2453 5.52468C42.2943 5.53048 39.3518 5.53255 36.4178 5.53086L28.2812 5.53608ZM23.3277 1.23418C23.5167 1.23417 23.7032 1.27921 23.8717 1.36561C24.0402 1.45201 24.186 1.57734 24.2972 1.73135L25.271 2.89003C25.9169 3.65478 26.5626 4.41953 27.1861 5.20169C27.289 5.35214 27.4294 5.47263 27.5932 5.55106C27.7571 5.6295 27.9385 5.66312 28.1193 5.64851V6.20268L28.1313 5.64851C31.6419 5.63585 35.1525 5.63156 38.6631 5.63568L45.1749 5.63266C46.7122 5.63266 47.8111 6.25698 48.4489 7.4885C48.7675 8.10426 48.7947 8.73933 48.7947 9.28542V20.1772H48.7695V22.2355L48.7678 30.0581C48.7659 32.2998 47.4317 33.6415 45.1996 33.6471C44.6357 33.6471 44.244 33.647 43.9714 33.3248C43.7396 33.0508 43.7396 32.7222 43.7396 32.1779V27.7129L43.7379 14.34C43.7364 12.7789 43.0993 11.6902 41.7901 11.012C41.3196 10.7674 40.7701 10.6585 40.0077 10.6585L33.6415 10.6572C30.1472 10.6572 26.6531 10.6598 23.1592 10.6648C22.9311 10.6755 22.7038 10.6305 22.4967 10.5336C22.2895 10.4367 22.1088 10.2909 21.9697 10.1084C21.494 9.52704 21.0108 8.95182 20.5276 8.37644C20.0144 7.76527 19.5012 7.1541 18.9967 6.53581C18.9251 6.43592 18.829 6.3565 18.7177 6.30537C18.6064 6.25423 18.4838 6.23314 18.362 6.24416L13.5331 6.24953C11.4973 6.24953 9.4616 6.25302 7.42587 6.25998C7.25186 6.25998 6.8713 6.25999 6.61209 5.98433C6.52112 5.87389 6.45373 5.74575 6.41414 5.6079C6.37454 5.47006 6.36361 5.32546 6.38198 5.18316L6.39315 4.81361C6.40305 4.30694 6.41437 3.73314 6.68631 3.17755C7.30454 1.91089 8.37154 1.24241 9.7718 1.24241L14.612 1.24098C17.5171 1.24056 20.4224 1.2383 23.3278 1.23418H23.3277ZM28.1193 6.75684C27.7739 6.77121 27.4302 6.70035 27.1182 6.55042C26.8061 6.4005 26.5352 6.17604 26.3289 5.8966C25.7112 5.12156 25.0714 4.36489 24.4329 3.60806L23.4542 2.44337L23.3338 1.78817L23.3321 2.34234C20.4237 2.34846 17.5168 2.3507 14.6114 2.34901L9.77134 2.35042C8.79157 2.35042 8.1051 2.7811 7.67251 3.66697C7.50872 4.00153 7.50118 4.38785 7.49237 4.8353L7.48293 5.14421C9.57766 5.14152 11.5542 5.1412 13.5321 5.14089L18.3521 5.13551C18.6381 5.12356 18.9228 5.18052 19.1825 5.30169C19.4422 5.42286 19.6695 5.60472 19.8454 5.83216C20.3467 6.4465 20.8566 7.05372 21.3665 7.66077C21.8527 8.23979 22.3389 8.81865 22.8176 9.40353C22.8524 9.45836 22.9021 9.50195 22.9609 9.52907C23.0196 9.55619 23.0848 9.56571 23.1488 9.55649C26.6509 9.55058 30.148 9.54803 33.64 9.54888L40.0063 9.55015C40.9532 9.55015 41.6584 9.69709 42.2925 10.0267C43.9787 10.9003 44.8347 12.3512 44.8366 14.3393L44.8383 27.7129V32.1779C44.8383 32.3012 44.8383 32.4342 44.842 32.536C44.9289 32.539 45.0296 32.539 45.0921 32.539C46.8105 32.5349 47.665 31.6768 47.6662 30.0573L47.6679 22.2357V19.069H47.6931V9.28558C47.6931 8.75595 47.6562 8.35617 47.473 8.00119C47.0219 7.13035 46.3153 6.74117 45.1824 6.74117L38.6629 6.74417C35.1537 6.74417 31.6448 6.74845 28.1363 6.757L28.1193 6.75684ZM18.2175 6.38316C18.3948 6.38483 18.5691 6.42901 18.726 6.51202C18.883 6.59503 19.018 6.7145 19.12 6.86054L20.1526 8.09143C20.8326 8.90019 21.5127 9.70895 22.1816 10.5277C22.2476 10.6227 22.3373 10.6987 22.4415 10.748C22.5458 10.7973 22.6611 10.8182 22.7759 10.8086C26.2117 10.8011 29.6481 10.7979 33.0852 10.7991L40.1089 10.8007C41.8421 10.8026 43.1493 11.7964 43.5211 13.3945C43.5866 13.7183 43.6147 14.0487 43.6047 14.379C43.6094 21.3201 43.6104 28.262 43.6078 35.2047C43.6059 37.4198 42.2353 38.7968 40.0307 38.7989L34.1572 38.8003L22.4106 38.7989H19.5978H12.4456L4.83992 38.8024C3.29662 38.8024 2.19819 38.1747 1.56754 36.9369C1.3307 36.4552 1.21384 35.9226 1.22706 35.3852V26.8563C1.22706 21.1703 1.22855 15.4843 1.23159 9.79811C1.23347 7.80802 2.62135 6.40977 4.60652 6.39916C6.70953 6.38671 8.81258 6.38143 10.9157 6.38333L15.4662 6.38475L18.2175 6.38316ZM22.7783 11.9169H22.777C22.4998 11.9262 22.2243 11.869 21.9732 11.7501C21.7222 11.6312 21.5027 11.454 21.3329 11.2331C20.6664 10.4175 19.9897 9.6127 19.313 8.80789L18.2941 7.59331L15.467 7.49372L10.9165 7.49229C8.81576 7.49229 6.71466 7.49758 4.61312 7.50813C3.22873 7.51589 2.33384 8.41537 2.33227 9.79968C2.32703 15.4857 2.3255 21.1714 2.3277 26.8568V35.386C2.31461 35.7471 2.38967 36.1059 2.54634 36.431C2.99182 37.3055 3.69685 37.6951 4.83271 37.6951L12.4459 37.6917H19.5981H22.4108L34.1575 37.6931L40.0303 37.6917C41.6268 37.6904 42.5067 36.8074 42.508 35.2058C42.5096 28.2635 42.5085 21.3219 42.5048 14.3811C42.5136 14.1359 42.4953 13.8906 42.4503 13.6496C42.1935 12.5455 41.34 11.912 40.1081 11.9106L33.085 11.909C29.6496 11.9079 26.2141 11.9106 22.7785 11.9169H22.7783Z"/>
</mask>
<path d="M23.6246 0.000758903H23.6259C23.8797 -0.00706307 24.1318 0.0456732 24.3615 0.154666C24.5912 0.263659 24.7921 0.42581 24.9478 0.627907C25.4336 1.21638 25.9223 1.80223 26.4137 2.38542C26.9499 3.0253 27.4843 3.66675 28.017 4.30979C28.0445 4.35337 28.0842 4.3878 28.1311 4.40875C28.1779 4.42971 28.2299 4.43626 28.2805 4.4276L36.4167 4.42269C39.3544 4.42269 42.2919 4.42064 45.2293 4.41652C46.862 4.41652 48.1505 5.02277 49.074 6.21851C49.6874 7.01988 50.0121 8.0075 49.9948 9.01926L49.9961 10.344C50.0021 16.9729 50.0012 23.6018 49.9934 30.2307C49.9863 32.9021 48.06 34.8065 45.3091 34.8621C45.1806 34.8612 45.0524 34.8524 44.925 34.8357C44.8877 34.8314 44.8504 34.8266 44.8137 34.823C44.8167 34.8752 44.8211 34.9303 44.8248 34.9755C44.8344 35.0942 44.8432 35.213 44.8421 35.3205C44.8063 38.0682 42.8952 39.9872 40.1943 39.9889L24.9713 39.9934H22.432C16.5111 39.9934 10.5907 39.9956 4.6708 40C2.56711 40 0.743543 38.666 0.201862 36.7458L0 36.6983V8.79459L0.0696538 8.66871C0.169327 8.4778 0.256337 8.28047 0.330117 8.07798C0.464267 7.68775 0.654309 7.31937 0.894255 6.98453C1.83646 5.76726 3.14007 5.14785 4.76889 5.14168C4.9014 5.14168 5.04521 5.14025 5.15131 5.13519C5.15603 5.03021 5.15683 4.88835 5.15745 4.75725C5.17317 1.96552 7.11277 0.0135776 9.87415 0.0100942L16.7238 0.0064606C19.024 0.00656616 21.3242 0.00466446 23.6246 0.000758903ZM28.2812 5.53608C28.0681 5.54456 27.8561 5.5018 27.6626 5.41136C27.4691 5.32092 27.2998 5.18539 27.1686 5.01597C26.6413 4.37536 26.107 3.73789 25.5728 3.10012C25.0811 2.51334 24.5909 1.92539 24.102 1.33629C24.0493 1.25998 23.9778 1.19883 23.8945 1.1589C23.8112 1.11897 23.719 1.10163 23.627 1.10861C21.3262 1.1142 19.0251 1.11615 16.7238 1.11446L9.87572 1.11812C7.69077 1.12097 6.27037 2.55151 6.25779 4.76295C6.25151 5.99336 6.0019 6.24337 4.77361 6.2497C3.48087 6.25414 2.49623 6.71724 1.7623 7.6655C1.58871 7.91809 1.45112 8.19396 1.35359 8.48504C1.27499 8.6847 1.19638 8.88388 1.10049 9.07546V36.0067C1.17099 36.1146 1.21859 36.236 1.24026 36.3632C1.63009 37.8604 3.03744 38.8918 4.66704 38.8918C10.5911 38.8855 16.5129 38.8833 22.4326 38.8852L40.194 38.8809C42.2557 38.8795 43.7151 37.4103 43.7423 35.308C43.7423 35.2334 43.7353 35.1496 43.7286 35.0663C43.7023 34.7432 43.6696 34.341 43.9266 34.0307C44.0224 33.9217 44.1415 33.8361 44.2749 33.7802C44.4084 33.7243 44.5526 33.6996 44.6969 33.708C44.8156 33.7102 44.9341 33.7192 45.0518 33.7348C45.127 33.7455 45.2027 33.752 45.2786 33.7542C47.4391 33.7107 48.8882 32.2936 48.894 30.228C48.9087 23.601 48.9096 16.9733 48.8967 10.345L48.8955 9.01957C48.911 8.25406 48.6678 7.50597 48.2059 6.89792C47.4924 5.9742 46.5239 5.52468 45.2453 5.52468C42.2943 5.53048 39.3518 5.53255 36.4178 5.53086L28.2812 5.53608ZM23.3277 1.23418C23.5167 1.23417 23.7032 1.27921 23.8717 1.36561C24.0402 1.45201 24.186 1.57734 24.2972 1.73135L25.271 2.89003C25.9169 3.65478 26.5626 4.41953 27.1861 5.20169C27.289 5.35214 27.4294 5.47263 27.5932 5.55106C27.7571 5.6295 27.9385 5.66312 28.1193 5.64851V6.20268L28.1313 5.64851C31.6419 5.63585 35.1525 5.63156 38.6631 5.63568L45.1749 5.63266C46.7122 5.63266 47.8111 6.25698 48.4489 7.4885C48.7675 8.10426 48.7947 8.73933 48.7947 9.28542V20.1772H48.7695V22.2355L48.7678 30.0581C48.7659 32.2998 47.4317 33.6415 45.1996 33.6471C44.6357 33.6471 44.244 33.647 43.9714 33.3248C43.7396 33.0508 43.7396 32.7222 43.7396 32.1779V27.7129L43.7379 14.34C43.7364 12.7789 43.0993 11.6902 41.7901 11.012C41.3196 10.7674 40.7701 10.6585 40.0077 10.6585L33.6415 10.6572C30.1472 10.6572 26.6531 10.6598 23.1592 10.6648C22.9311 10.6755 22.7038 10.6305 22.4967 10.5336C22.2895 10.4367 22.1088 10.2909 21.9697 10.1084C21.494 9.52704 21.0108 8.95182 20.5276 8.37644C20.0144 7.76527 19.5012 7.1541 18.9967 6.53581C18.9251 6.43592 18.829 6.3565 18.7177 6.30537C18.6064 6.25423 18.4838 6.23314 18.362 6.24416L13.5331 6.24953C11.4973 6.24953 9.4616 6.25302 7.42587 6.25998C7.25186 6.25998 6.8713 6.25999 6.61209 5.98433C6.52112 5.87389 6.45373 5.74575 6.41414 5.6079C6.37454 5.47006 6.36361 5.32546 6.38198 5.18316L6.39315 4.81361C6.40305 4.30694 6.41437 3.73314 6.68631 3.17755C7.30454 1.91089 8.37154 1.24241 9.7718 1.24241L14.612 1.24098C17.5171 1.24056 20.4224 1.2383 23.3278 1.23418H23.3277ZM28.1193 6.75684C27.7739 6.77121 27.4302 6.70035 27.1182 6.55042C26.8061 6.4005 26.5352 6.17604 26.3289 5.8966C25.7112 5.12156 25.0714 4.36489 24.4329 3.60806L23.4542 2.44337L23.3338 1.78817L23.3321 2.34234C20.4237 2.34846 17.5168 2.3507 14.6114 2.34901L9.77134 2.35042C8.79157 2.35042 8.1051 2.7811 7.67251 3.66697C7.50872 4.00153 7.50118 4.38785 7.49237 4.8353L7.48293 5.14421C9.57766 5.14152 11.5542 5.1412 13.5321 5.14089L18.3521 5.13551C18.6381 5.12356 18.9228 5.18052 19.1825 5.30169C19.4422 5.42286 19.6695 5.60472 19.8454 5.83216C20.3467 6.4465 20.8566 7.05372 21.3665 7.66077C21.8527 8.23979 22.3389 8.81865 22.8176 9.40353C22.8524 9.45836 22.9021 9.50195 22.9609 9.52907C23.0196 9.55619 23.0848 9.56571 23.1488 9.55649C26.6509 9.55058 30.148 9.54803 33.64 9.54888L40.0063 9.55015C40.9532 9.55015 41.6584 9.69709 42.2925 10.0267C43.9787 10.9003 44.8347 12.3512 44.8366 14.3393L44.8383 27.7129V32.1779C44.8383 32.3012 44.8383 32.4342 44.842 32.536C44.9289 32.539 45.0296 32.539 45.0921 32.539C46.8105 32.5349 47.665 31.6768 47.6662 30.0573L47.6679 22.2357V19.069H47.6931V9.28558C47.6931 8.75595 47.6562 8.35617 47.473 8.00119C47.0219 7.13035 46.3153 6.74117 45.1824 6.74117L38.6629 6.74417C35.1537 6.74417 31.6448 6.74845 28.1363 6.757L28.1193 6.75684ZM18.2175 6.38316C18.3948 6.38483 18.5691 6.42901 18.726 6.51202C18.883 6.59503 19.018 6.7145 19.12 6.86054L20.1526 8.09143C20.8326 8.90019 21.5127 9.70895 22.1816 10.5277C22.2476 10.6227 22.3373 10.6987 22.4415 10.748C22.5458 10.7973 22.6611 10.8182 22.7759 10.8086C26.2117 10.8011 29.6481 10.7979 33.0852 10.7991L40.1089 10.8007C41.8421 10.8026 43.1493 11.7964 43.5211 13.3945C43.5866 13.7183 43.6147 14.0487 43.6047 14.379C43.6094 21.3201 43.6104 28.262 43.6078 35.2047C43.6059 37.4198 42.2353 38.7968 40.0307 38.7989L34.1572 38.8003L22.4106 38.7989H19.5978H12.4456L4.83992 38.8024C3.29662 38.8024 2.19819 38.1747 1.56754 36.9369C1.3307 36.4552 1.21384 35.9226 1.22706 35.3852V26.8563C1.22706 21.1703 1.22855 15.4843 1.23159 9.79811C1.23347 7.80802 2.62135 6.40977 4.60652 6.39916C6.70953 6.38671 8.81258 6.38143 10.9157 6.38333L15.4662 6.38475L18.2175 6.38316ZM22.7783 11.9169H22.777C22.4998 11.9262 22.2243 11.869 21.9732 11.7501C21.7222 11.6312 21.5027 11.454 21.3329 11.2331C20.6664 10.4175 19.9897 9.6127 19.313 8.80789L18.2941 7.59331L15.467 7.49372L10.9165 7.49229C8.81576 7.49229 6.71466 7.49758 4.61312 7.50813C3.22873 7.51589 2.33384 8.41537 2.33227 9.79968C2.32703 15.4857 2.3255 21.1714 2.3277 26.8568V35.386C2.31461 35.7471 2.38967 36.1059 2.54634 36.431C2.99182 37.3055 3.69685 37.6951 4.83271 37.6951L12.4459 37.6917H19.5981H22.4108L34.1575 37.6931L40.0303 37.6917C41.6268 37.6904 42.5067 36.8074 42.508 35.2058C42.5096 28.2635 42.5085 21.3219 42.5048 14.3811C42.5136 14.1359 42.4953 13.8906 42.4503 13.6496C42.1935 12.5455 41.34 11.912 40.1081 11.9106L33.085 11.909C29.6496 11.9079 26.2141 11.9106 22.7785 11.9169H22.7783Z" fill="inherit" stroke="inherit" stroke-width="2" mask="url(#path-1-inside-1_2325_49975)"/>
</svg>
