<svg width="24" height="30" viewBox="0 0 24 30" fill="#5DA1DE" stroke="none" xmlns="http://www.w3.org/2000/svg">
<path fill-rule="evenodd" clip-rule="evenodd" d="M8.4 3C8.08174 3 7.77652 3.15804 7.55147 3.43934C7.32643 3.72064 7.2 4.10217 7.2 4.5V6H16.8V4.5C16.8 4.10218 16.6736 3.72064 16.4485 3.43934C16.2235 3.15804 15.9183 3 15.6 3L8.4 3ZM19.2 6.25736V4.5C19.2 3.30653 18.8207 2.16193 18.1456 1.31802C17.4705 0.474106 16.5548 0 15.6 0L8.4 0C7.44522 0 6.52955 0.474105 5.85442 1.31802C5.17928 2.16193 4.8 3.30653 4.8 4.5V6.25736C4.29852 6.479 3.8377 6.83891 3.45442 7.31802C2.77928 8.16193 2.4 9.30653 2.4 10.5V12.2574C1.89852 12.479 1.4377 12.8389 1.05442 13.318C0.379285 14.1619 0 15.3065 0 16.5L0 25.5C0 26.6935 0.379285 27.8381 1.05442 28.682C1.72955 29.5259 2.64522 30 3.6 30H20.4C21.3548 30 22.2705 29.5259 22.9456 28.682C23.6207 27.8381 24 26.6935 24 25.5V16.5C24 15.3065 23.6207 14.1619 22.9456 13.318C22.5623 12.8389 22.1015 12.479 21.6 12.2574V10.5C21.6 9.30653 21.2207 8.16193 20.5456 7.31802C20.1623 6.83891 19.7015 6.479 19.2 6.25736ZM19.2 12V10.5C19.2 10.1022 19.0736 9.72064 18.8485 9.43934C18.6235 9.15804 18.3183 9 18 9H6C5.68174 9 5.37652 9.15804 5.15147 9.43934C4.92643 9.72064 4.8 10.1022 4.8 10.5V12H19.2ZM3.6 15C3.28174 15 2.97652 15.158 2.75147 15.4393C2.52643 15.7206 2.4 16.1022 2.4 16.5V25.5C2.4 25.8978 2.52643 26.2794 2.75147 26.5607C2.97652 26.842 3.28174 27 3.6 27H20.4C20.7183 27 21.0235 26.842 21.2485 26.5607C21.4736 26.2794 21.6 25.8978 21.6 25.5V16.5C21.6 16.1022 21.4736 15.7206 21.2485 15.4393C21.0235 15.158 20.7183 15 20.4 15H3.6Z" fill="inherit" stroke="none"/>
</svg>
