<svg width="29" height="27" viewBox="0 0 29 27" fill="none" stroke="#E78C8C" xmlns="http://www.w3.org/2000/svg">
<path fill-rule="evenodd" clip-rule="evenodd" d="M8.94571 1C4.65525 1 1 4.585 1 9.24103C1 12.453 2.34591 15.1572 4.12967 17.3973C5.90731 19.6297 8.20074 21.5035 10.2741 23.0718L13.8514 25.7777C14.2431 26.0741 14.7569 26.0741 15.1486 25.7777L18.7259 23.0718C20.7993 21.5035 23.0927 19.6297 24.8703 17.3973C26.6541 15.1572 28 12.453 28 9.24103C28 4.585 24.3448 1 20.0543 1C17.8426 1 15.8965 2.15886 14.5 3.65833C13.1035 2.15886 11.1574 1 8.94571 1ZM9.48571 13.931C9.48571 13.2169 10.0038 12.6379 10.6429 12.6379H13.3429V9.62069C13.3429 8.90653 13.8609 8.32759 14.5 8.32759C15.1391 8.32759 15.6571 8.90653 15.6571 9.62069V12.6379H18.3571C18.9962 12.6379 19.5143 13.2169 19.5143 13.931C19.5143 14.6452 18.9962 15.2241 18.3571 15.2241H15.6571V18.2414C15.6571 18.9555 15.1391 19.5345 14.5 19.5345C13.8609 19.5345 13.3429 18.9555 13.3429 18.2414V15.2241H10.6429C10.0038 15.2241 9.48571 14.6452 9.48571 13.931Z" stroke="inherit" stroke-width="1.5" stroke-linecap="round" stroke-linejoin="round" fill="none"/>
</svg>
