<svg width="17" height="17" viewBox="0 0 17 17" fill="none" xmlns="http://www.w3.org/2000/svg">
<path d="M1.8077 17C1.30257 17 0.875 16.825 0.525 16.475C0.175 16.125 0 15.6974 0 15.1923V1.8077C0 1.30257 0.175 0.875 0.525 0.525C0.875 0.175 1.30257 0 1.8077 0H8.5096V1.49998H1.8077C1.73077 1.49998 1.66024 1.53203 1.59612 1.59613C1.53202 1.66024 1.49997 1.73077 1.49997 1.8077V15.1923C1.49997 15.2692 1.53202 15.3397 1.59612 15.4038C1.66024 15.4679 1.73077 15.5 1.8077 15.5H8.5096V17H1.8077ZM12.7308 12.7692L11.6923 11.6846L14.1269 9.24995H5.59613V7.75H14.1269L11.6923 5.31538L12.7308 4.2308L17 8.49998L12.7308 12.7692Z" fill="black"/>
</svg>
