<svg width="20" height="20" viewBox="0 0 20 20" fill="none" xmlns="http://www.w3.org/2000/svg">
<path d="M7.69245 19.5L7.31168 16.4538C7.04373 16.3641 6.76905 16.2384 6.48763 16.0769C6.20621 15.9154 5.9546 15.7423 5.7328 15.5577L2.91165 16.75L0.604004 12.75L3.04438 10.9058C3.0213 10.7571 3.00495 10.6077 2.99533 10.4577C2.98571 10.3077 2.9809 10.1583 2.9809 10.0096C2.9809 9.86732 2.98571 9.72276 2.99533 9.57596C3.00495 9.42916 3.0213 9.26858 3.04438 9.09423L0.604004 7.25001L2.91165 3.26928L5.72318 4.45198C5.96421 4.26095 6.22159 4.08626 6.4953 3.92793C6.76904 3.76958 7.03795 3.64233 7.30205 3.54618L7.69245 0.500031H12.3078L12.6885 3.55581C12.9885 3.66477 13.26 3.79201 13.503 3.93753C13.7459 4.08305 13.9911 4.25453 14.2386 4.45198L17.0886 3.26928L19.3962 7.25001L16.9174 9.12306C16.9533 9.28461 16.9728 9.43557 16.976 9.57596C16.9792 9.71634 16.9808 9.85769 16.9808 10C16.9808 10.1359 16.9776 10.274 16.9712 10.4144C16.9648 10.5548 16.9417 10.7154 16.902 10.8962L19.3616 12.75L17.0539 16.75L14.2386 15.548C13.9911 15.7455 13.7386 15.9202 13.4809 16.0721C13.2232 16.224 12.959 16.3481 12.6885 16.4442L12.3078 19.5H7.69245ZM9.0001 18H10.9655L11.3251 15.3212C11.8354 15.1878 12.3017 14.9984 12.7241 14.7529C13.1466 14.5074 13.5539 14.1917 13.9463 13.8058L16.4309 14.85L17.4155 13.15L15.2463 11.5154C15.3296 11.2564 15.3863 11.0026 15.4165 10.7539C15.4466 10.5051 15.4616 10.2539 15.4616 10C15.4616 9.73976 15.4466 9.48847 15.4165 9.24616C15.3863 9.00386 15.3296 8.75642 15.2463 8.50386L17.4347 6.85001L16.4501 5.15001L13.9366 6.20963C13.602 5.85193 13.2011 5.53591 12.7338 5.26156C12.2664 4.98719 11.7937 4.79296 11.3155 4.67886L11.0001 2.00001H9.01548L8.68473 4.66923C8.17446 4.78975 7.7033 4.97436 7.27125 5.22308C6.8392 5.4718 6.42703 5.79232 6.03473 6.18463L3.5501 5.15001L2.56548 6.85001L4.7251 8.45963C4.64177 8.6968 4.58344 8.94359 4.5501 9.20001C4.51677 9.45642 4.5001 9.7263 4.5001 10.0096C4.5001 10.2699 4.51677 10.525 4.5501 10.775C4.58344 11.025 4.63856 11.2718 4.71548 11.5154L2.56548 13.15L3.5501 14.85L6.0251 13.8C6.40459 14.1898 6.81035 14.509 7.2424 14.7577C7.67445 15.0064 8.15202 15.1974 8.6751 15.3308L9.0001 18ZM10.0116 13C10.8437 13 11.5517 12.708 12.1357 12.124C12.7196 11.54 13.0116 10.832 13.0116 10C13.0116 9.16797 12.7196 8.45997 12.1357 7.87598C11.5517 7.29202 10.8437 7.00003 10.0116 7.00003C9.16935 7.00003 8.45878 7.29202 7.87993 7.87598C7.3011 8.45997 7.01168 9.16797 7.01168 10C7.01168 10.832 7.3011 11.54 7.87993 12.124C8.45878 12.708 9.16935 13 10.0116 13Z" fill="black"/>
</svg>
