<svg width="24" height="24" viewBox="0 0 24 24" fill="#3E3E3E" stroke="#3E3E3E" xmlns="http://www.w3.org/2000/svg">
<path d="M21.2297 11.042L13.6717 3.48399C13.4456 3.23452 13.145 3.06477 12.8147 3H11.9357C11.4838 3.18017 11.0846 3.47109 10.7747 3.84599C10.0667 4.56199 9.35165 5.271 8.63965 5.983C6.94765 7.675 5.25532 9.36667 3.56265 11.058C3.2276 11.3679 3.02668 11.7963 3.00265 12.252C2.98938 12.4901 3.02599 12.7283 3.11015 12.9514C3.1943 13.1746 3.32414 13.3777 3.49134 13.5477C3.65854 13.7177 3.85942 13.8509 4.0811 13.9388C4.30278 14.0267 4.54037 14.0673 4.77865 14.058C4.97065 14.058 5.01565 14.106 5.01365 14.295C5.00632 16.071 5.00632 17.8473 5.01365 19.624C5.00305 19.9022 5.05018 20.1796 5.15208 20.4387C5.25398 20.6978 5.40844 20.933 5.60573 21.1294C5.80302 21.3258 6.03885 21.4793 6.29838 21.5801C6.55791 21.6809 6.8355 21.7268 7.11365 21.715H9.89665C10.3717 21.715 10.5747 21.515 10.5747 21.036C10.5747 19.645 10.5897 18.253 10.5677 16.861C10.5583 16.7227 10.5785 16.5841 10.627 16.4543C10.6756 16.3244 10.7513 16.2065 10.8491 16.1083C10.9469 16.0101 11.0645 15.934 11.1941 15.8849C11.3238 15.8359 11.4624 15.8151 11.6007 15.824C12.1133 15.8407 12.626 15.8407 13.1387 15.824C13.2784 15.8138 13.4188 15.8339 13.5501 15.8829C13.6814 15.9318 13.8007 16.0085 13.8997 16.1076C13.9988 16.2068 14.0753 16.3261 14.1242 16.4575C14.173 16.5889 14.1929 16.7292 14.1827 16.869C14.1607 18.278 14.1757 19.689 14.1767 21.099C14.1681 21.1815 14.178 21.2649 14.2057 21.3431C14.2333 21.4213 14.2779 21.4924 14.3364 21.5513C14.3949 21.6101 14.4657 21.6553 14.5437 21.6834C14.6218 21.7115 14.7051 21.722 14.7877 21.714H17.6807C17.8515 21.7155 18.0218 21.6957 18.1877 21.655C18.6372 21.5516 19.0371 21.296 19.3197 20.9315C19.6024 20.5671 19.7504 20.1161 19.7387 19.655C19.742 17.867 19.742 16.0787 19.7387 14.29C19.7387 14.113 19.7697 14.052 19.9617 14.061C20.2279 14.0757 20.4938 14.0267 20.7373 13.918C20.9808 13.8093 21.1948 13.644 21.3617 13.436C21.5202 13.2282 21.6408 12.9939 21.7177 12.744V11.938C21.6657 11.5911 21.4929 11.2738 21.2297 11.042ZM20.6297 12.5C20.5976 12.6314 20.5225 12.7484 20.4163 12.8323C20.3101 12.9162 20.179 12.9622 20.0437 12.963C19.7747 12.968 19.5067 12.963 19.2377 12.963C19.1578 12.9577 19.0778 12.9697 19.003 12.9981C18.9282 13.0265 18.8603 13.0706 18.8041 13.1275C18.7479 13.1845 18.7045 13.2528 18.677 13.3279C18.6495 13.4031 18.6385 13.4832 18.6447 13.563C18.6447 14.5883 18.6447 15.6137 18.6447 16.639C18.6447 17.6343 18.6447 18.629 18.6447 19.623C18.6555 19.756 18.6373 19.8898 18.5914 20.0151C18.5454 20.1404 18.4729 20.2543 18.3786 20.3488C18.2844 20.4433 18.1708 20.5162 18.0456 20.5625C17.9204 20.6088 17.7867 20.6274 17.6537 20.617C16.9217 20.617 16.1887 20.617 15.4537 20.617C15.3137 20.617 15.2727 20.587 15.2727 20.439C15.2793 19.219 15.2793 17.9983 15.2727 16.777C15.2821 16.3091 15.1271 15.8527 14.8348 15.4873C14.5424 15.1218 14.1312 14.8705 13.6727 14.777C13.6254 14.7651 13.5772 14.7571 13.5287 14.753C12.7679 14.6997 12.0044 14.6997 11.2437 14.753C10.7714 14.8011 10.3326 15.0186 10.0085 15.3654C9.68435 15.7122 9.49683 16.1646 9.48065 16.639C9.46165 17.903 9.47065 19.165 9.48065 20.429C9.48065 20.584 9.43965 20.618 9.28965 20.617C8.55765 20.608 7.82465 20.617 7.08965 20.617C6.95819 20.6262 6.82628 20.6071 6.70286 20.5609C6.57944 20.5147 6.46741 20.4424 6.37437 20.3491C6.28132 20.2558 6.20944 20.1435 6.16359 20.02C6.11774 19.8964 6.09901 19.7644 6.10865 19.633C6.10865 17.637 6.10865 15.6413 6.10865 13.646C6.10865 13.171 5.90865 12.966 5.43165 12.966C5.19365 12.966 4.95565 12.966 4.71765 12.966C4.59688 12.9646 4.47909 12.9283 4.37853 12.8614C4.27797 12.7945 4.19895 12.6999 4.15102 12.589C4.1031 12.4782 4.08833 12.3558 4.1085 12.2367C4.12866 12.1176 4.1829 12.0069 4.26465 11.918C4.32465 11.849 4.39265 11.787 4.45665 11.718L11.8237 4.35199C11.8845 4.2603 11.9671 4.18518 12.0642 4.13341C12.1613 4.08164 12.2698 4.05484 12.3798 4.05544C12.4898 4.05603 12.5979 4.08401 12.6945 4.13683C12.791 4.18964 12.8728 4.26566 12.9327 4.358C15.4187 6.84334 17.9047 9.32866 20.3907 11.814C20.4918 11.8935 20.5678 12.0006 20.6095 12.1223C20.6512 12.244 20.6568 12.3752 20.6257 12.5H20.6297Z" fill="inherit" stroke="inherit"/>
</svg>
