<svg width="35" height="50" viewBox="0 0 35 50" fill="#E8A700" stroke="#FFF8E7" xmlns="http://www.w3.org/2000/svg">
<path fill-rule="evenodd" clip-rule="evenodd" d="M16.2181 21.8823H16.2181C12.0233 21.8799 8.26172 18.6759 8.26172 14.3083V14.2885V14.2687V14.249V14.2292V14.2094V14.1896V14.1698V14.15V14.1302V14.1105V14.0907V14.0709V14.0511V14.0313V14.0115V13.9917V13.972V13.9522V13.9324V13.9126V13.8928V13.873V13.8533V13.8335V13.8137V13.7939V13.7741V13.7543V13.7345V13.7148V13.695V13.6752V13.6554V13.6356V13.6158V13.5961V13.5763V13.5565V13.5367V13.5169V13.4971V13.4773V13.4576V13.4378V13.418V13.3982V13.3784V13.3586V13.3388V13.3191V13.2993V13.2795V13.2597V13.2399V13.2201V13.2004V13.1806V13.1608V13.141V13.1212V13.1014V13.0816V13.0619V13.0421V13.0223V13.0025V12.9827V12.9629V12.9432V12.9234V12.9036V12.8838V12.864V12.8442V12.8244V12.8047V12.7849V12.7651V12.7453V12.7255V12.7057V12.6859V12.6662V12.6464V12.6266V12.6068V12.587V12.5672V12.5475V12.5277V12.5079V12.4881V12.4683V12.4485V12.4287V12.409V12.3892V12.3694V12.3496V12.3298V12.31V12.2903V12.2705V12.2507V12.2309V12.2111V12.1913V12.1715V12.1518V12.132V12.1122V12.0924V12.0726V12.0528V12.033V12.0133V11.9935V11.9737V11.9539V11.9341V11.9143V11.8946V11.8748V11.855V11.8352V11.8154V11.7956V11.7758V11.7561V11.7363V11.7165V11.6967V11.6769V11.6571V11.6374V11.6176V11.5978V11.578V11.5582V11.5384V11.5186V11.4989V11.4791V11.4593V11.4395V11.4197V11.3999V11.3801V11.3604V11.3406V11.3208V11.301V11.2812V11.2614V11.2417V11.2219V11.2021V11.1823V11.1625V11.1427V11.1229V11.1032V11.0834V11.0636V11.0438V11.024V11.0042V10.9845V10.9647V10.9449V10.9251V10.9053V10.8855V10.8657V10.846V10.8262V10.8064V10.7866V10.7668V10.747V10.7272V10.7075V10.6877V10.6679V10.6481V10.6283V10.6085V10.5888V10.569V10.5492V10.5294V10.5096V10.4898V10.47V10.4503V10.4305V10.4107V10.3909V10.3711V10.3513V10.3316V10.3118V10.292V10.2722V10.2524V10.2326V10.2128V10.1931V10.1733V10.1535V10.1337V10.1139V10.0941V10.0743V10.0546V10.0348V10.015V9.99521V9.97542V9.95564V9.93585V9.91607V9.89629V9.8765V9.85672V9.83693V9.81715V9.79736V9.77758V9.75779V9.73801V9.71822V9.69844V9.67865V9.65887V9.63908V9.6193V9.59951V9.57973V9.55994V9.54016V9.52037V9.50059V9.4808V9.46102V9.44123V9.42145V9.40166V9.38188V9.36209V9.34231V9.32253V9.30274V9.28296V9.26317V9.24339V9.2236V9.20382V9.18403V9.16425V9.14446V9.12468V9.10489V9.08511V9.06532V9.04554V9.02575V9.00597V8.98618V8.9664V8.94661V8.92683V8.90704V8.88726V8.86747V8.84769V8.8279V8.80812V8.78833V8.76855V8.74876V8.72898V8.7092V8.68941V8.66963V8.64984V8.63006V8.61027V8.59049V8.5707V8.55092V8.53113V8.51135V8.49156V8.47178V8.45199V8.43221V8.41242V8.39264V8.37285V8.35307V8.33328V8.3135V8.29371V8.27393V8.25414V8.23436V8.21457V8.19479V8.175V8.15522V8.13544V8.11565V8.09587V8.07608V8.0563V8.03651V8.01673V7.99694V7.97716V7.95737V7.93759V7.9178V7.89802V7.87823V7.85845V7.83866V7.81888V7.79909V7.77931V7.75952V7.73974V7.71995V7.70017V7.68038V7.6606V7.64081V7.62103V7.60124V7.58146V7.56167V7.54189V7.52211V7.50232V7.48254V7.46275V7.44297V7.42318V7.4034V7.38361V7.36383V7.34404V7.32426V7.30447V7.28469V7.2649V7.24512V7.22533V7.20555V7.18576V7.16598V7.14619V7.12641V7.10662V7.08684V7.06705V7.04727V7.02748V7.0077V6.98791V6.96813V6.94834V6.92856V6.90877V6.88899V6.86921V6.84942V6.82964V6.80985V6.79007V6.77028V6.7505V6.73071V6.71093V6.69114V6.67136V6.65157V6.63179V6.612V6.59222V6.57243V6.55265V6.53286V6.51308V6.49329V6.47351V6.45372V6.43394V6.41415V6.39437V6.37458V6.3548V6.33501V6.31523V6.29544V6.27566V6.25588V6.23609V6.21631V6.19652V6.17674V6.15695V6.13717V6.11738V6.0976V6.07781V6.05803V6.03824V6.01846V5.99867V5.97889V5.9591V5.93932V5.91953V5.89975V5.87996V5.86018V5.84039V5.82061V5.80082V5.78104V5.76125V5.74147V5.72168V5.7019V5.68211V5.66233V5.64255V5.62276V5.60298V5.58319V5.56341V5.54362V5.52384V5.50405V5.48427V5.46448V5.4447V5.42491V5.40513V5.38534V5.36556V5.34577V5.32599V5.3062V5.28642V5.26663V5.24685V5.22706V5.20728V5.18749V5.16771V5.14792V5.12814V5.10835V5.08857V5.06878V5.049V5.02921V5.00943V4.98965V4.96986V4.95008V4.93029V4.91051V4.89072V4.87094V4.85115V4.83137V4.81158V4.7918V4.77201V4.75223V4.73244V4.71266V4.69287V4.67309V4.6533V4.63352V4.61373V4.59395V4.57416V4.55438V4.53459V4.51481V4.49502V4.47524V4.45545V4.43567V4.41588V4.3961V4.37631V4.35653V4.33675V4.31696V4.29718V4.27739V4.25761V4.23782V4.21804V4.19825V4.17847V3.67847H8.76172H25.9655H26.4655V4.17847L16.2181 21.8823ZM16.2181 21.8823L18.5086 21.8834C18.5086 21.8834 18.5086 21.8834 18.5086 21.8834M16.2181 21.8823L18.5086 21.8834M18.5086 21.8834C22.7057 21.8857 26.4655 18.673 26.4655 14.3083M18.5086 21.8834L26.4655 14.3083M26.4655 14.3083V14.2885M26.4655 14.3083V14.2885M26.4655 14.2885V14.2687M26.4655 14.2885V14.2687M26.4655 14.2687V14.249M26.4655 14.2687V14.249M26.4655 14.249V14.2292M26.4655 14.249V14.2292M26.4655 14.2292V14.2094M26.4655 14.2292V14.2094M26.4655 14.2094V14.1896M26.4655 14.2094V14.1896M26.4655 14.1896V14.1698M26.4655 14.1896V14.1698M26.4655 14.1698V14.15M26.4655 14.1698V14.15M26.4655 14.15V14.1302M26.4655 14.15V14.1302M26.4655 14.1302V14.1105M26.4655 14.1302V14.1105M26.4655 14.1105V14.0907M26.4655 14.1105V14.0907M26.4655 14.0907V14.0709M26.4655 14.0907V14.0709M26.4655 14.0709V14.0511M26.4655 14.0709V14.0511M26.4655 14.0511V14.0313M26.4655 14.0511V14.0313M26.4655 14.0313V14.0115M26.4655 14.0313V14.0115M26.4655 14.0115V13.9917M26.4655 14.0115V13.9917M26.4655 13.9917V13.972M26.4655 13.9917V13.972M26.4655 13.972V13.9522M26.4655 13.972V13.9522M26.4655 13.9522V13.9324M26.4655 13.9522V13.9324M26.4655 13.9324V13.9126M26.4655 13.9324V13.9126M26.4655 13.9126V13.8928M26.4655 13.9126V13.8928M26.4655 13.8928V13.873M26.4655 13.8928V13.873M26.4655 13.873V13.8533M26.4655 13.873V13.8533M26.4655 13.8533V13.8335M26.4655 13.8533V13.8335M26.4655 13.8335V13.8137M26.4655 13.8335V13.8137M26.4655 13.8137V13.7939M26.4655 13.8137V13.7939M26.4655 13.7939V13.7741M26.4655 13.7939V13.7741M26.4655 13.7741V13.7543M26.4655 13.7741V13.7543M26.4655 13.7543V13.7345M26.4655 13.7543V13.7345M26.4655 13.7345V13.7148M26.4655 13.7345V13.7148M26.4655 13.7148V13.695M26.4655 13.7148V13.695M26.4655 13.695V13.6752M26.4655 13.695V13.6752M26.4655 13.6752V13.6554M26.4655 13.6752V13.6554M26.4655 13.6554V13.6356M26.4655 13.6554V13.6356M26.4655 13.6356V13.6158M26.4655 13.6356V13.6158M26.4655 13.6158V13.5961M26.4655 13.6158V13.5961M26.4655 13.5961V13.5763M26.4655 13.5961V13.5763M26.4655 13.5763V13.5565M26.4655 13.5763V13.5565M26.4655 13.5565V13.5367M26.4655 13.5565V13.5367M26.4655 13.5367V13.5169M26.4655 13.5367V13.5169M26.4655 13.5169V13.4971M26.4655 13.5169V13.4971M26.4655 13.4971V13.4773M26.4655 13.4971V13.4773M26.4655 13.4773V13.4576M26.4655 13.4773V13.4576M26.4655 13.4576V13.4378M26.4655 13.4576V13.4378M26.4655 13.4378V13.418M26.4655 13.4378V13.418M26.4655 13.418V13.3982M26.4655 13.418V13.3982M26.4655 13.3982V13.3784M26.4655 13.3982V13.3784M26.4655 13.3784V13.3586M26.4655 13.3784V13.3586M26.4655 13.3586V13.3388M26.4655 13.3586V13.3388M26.4655 13.3388V13.3191M26.4655 13.3388V13.3191M26.4655 13.3191V13.2993M26.4655 13.3191V13.2993M26.4655 13.2993V13.2795M26.4655 13.2993V13.2795M26.4655 13.2795V13.2597M26.4655 13.2795V13.2597M26.4655 13.2597V13.2399M26.4655 13.2597V13.2399M26.4655 13.2399V13.2201M26.4655 13.2399V13.2201M26.4655 13.2201V13.2004M26.4655 13.2201V13.2004M26.4655 13.2004V13.1806M26.4655 13.2004V13.1806M26.4655 13.1806V13.1608M26.4655 13.1806V13.1608M26.4655 13.1608V13.141M26.4655 13.1608V13.141M26.4655 13.141V13.1212M26.4655 13.141V13.1212M26.4655 13.1212V13.1014M26.4655 13.1212V13.1014M26.4655 13.1014V13.0816M26.4655 13.1014V13.0816M26.4655 13.0816V13.0619M26.4655 13.0816V13.0619M26.4655 13.0619V13.0421M26.4655 13.0619V13.0421M26.4655 13.0421V13.0223M26.4655 13.0421V13.0223M26.4655 13.0223V13.0025M26.4655 13.0223V13.0025M26.4655 13.0025V12.9827M26.4655 13.0025V12.9827M26.4655 12.9827V12.9629M26.4655 12.9827V12.9629M26.4655 12.9629V12.9432M26.4655 12.9629V12.9432M26.4655 12.9432V12.9234M26.4655 12.9432V12.9234M26.4655 12.9234V12.9036M26.4655 12.9234V12.9036M26.4655 12.9036V12.8838M26.4655 12.9036V12.8838M26.4655 12.8838V12.864M26.4655 12.8838V12.864M26.4655 12.864V12.8442M26.4655 12.864V12.8442M26.4655 12.8442V12.8244M26.4655 12.8442V12.8244M26.4655 12.8244V12.8047M26.4655 12.8244V12.8047M26.4655 12.8047V12.7849M26.4655 12.8047V12.7849M26.4655 12.7849V12.7651M26.4655 12.7849V12.7651M26.4655 12.7651V12.7453M26.4655 12.7651V12.7453M26.4655 12.7453V12.7255M26.4655 12.7453V12.7255M26.4655 12.7255V12.7057M26.4655 12.7255V12.7057M26.4655 12.7057V12.6859M26.4655 12.7057V12.6859M26.4655 12.6859V12.6662M26.4655 12.6859V12.6662M26.4655 12.6662V12.6464M26.4655 12.6662V12.6464M26.4655 12.6464V12.6266M26.4655 12.6464V12.6266M26.4655 12.6266V12.6068M26.4655 12.6266V12.6068M26.4655 12.6068V12.587M26.4655 12.6068V12.587M26.4655 12.587V12.5672M26.4655 12.587V12.5672M26.4655 12.5672V12.5475M26.4655 12.5672V12.5475M26.4655 12.5475V12.5277M26.4655 12.5475V12.5277M26.4655 12.5277V12.5079M26.4655 12.5277V12.5079M26.4655 12.5079V12.4881M26.4655 12.5079V12.4881M26.4655 12.4881V12.4683M26.4655 12.4881V12.4683M26.4655 12.4683V12.4485M26.4655 12.4683V12.4485M26.4655 12.4485V12.4287M26.4655 12.4485V12.4287M26.4655 12.4287V12.409M26.4655 12.4287V12.409M26.4655 12.409V12.3892M26.4655 12.409V12.3892M26.4655 12.3892V12.3694M26.4655 12.3892V12.3694M26.4655 12.3694V12.3496M26.4655 12.3694V12.3496M26.4655 12.3496V12.3298M26.4655 12.3496V12.3298M26.4655 12.3298V12.31M26.4655 12.3298V12.31M26.4655 12.31V12.2903M26.4655 12.31V12.2903M26.4655 12.2903V12.2705M26.4655 12.2903V12.2705M26.4655 12.2705V12.2507M26.4655 12.2705V12.2507M26.4655 12.2507V12.2309M26.4655 12.2507V12.2309M26.4655 12.2309V12.2111M26.4655 12.2309V12.2111M26.4655 12.2111V12.1913M26.4655 12.2111V12.1913M26.4655 12.1913V12.1715M26.4655 12.1913V12.1715M26.4655 12.1715V12.1518M26.4655 12.1715V12.1518M26.4655 12.1518V12.132M26.4655 12.1518V12.132M26.4655 12.132V12.1122M26.4655 12.132V12.1122M26.4655 12.1122V12.0924M26.4655 12.1122V12.0924M26.4655 12.0924V12.0726M26.4655 12.0924V12.0726M26.4655 12.0726V12.0528M26.4655 12.0726V12.0528M26.4655 12.0528V12.033M26.4655 12.0528V12.033M26.4655 12.033V12.0133M26.4655 12.033V12.0133M26.4655 12.0133V11.9935M26.4655 12.0133V11.9935M26.4655 11.9935V11.9737M26.4655 11.9935V11.9737M26.4655 11.9737V11.9539M26.4655 11.9737V11.9539M26.4655 11.9539V11.9341M26.4655 11.9539V11.9341M26.4655 11.9341V11.9143M26.4655 11.9341V11.9143M26.4655 11.9143V11.8946M26.4655 11.9143V11.8946M26.4655 11.8946V11.8748M26.4655 11.8946V11.8748M26.4655 11.8748V11.855M26.4655 11.8748V11.855M26.4655 11.855V11.8352M26.4655 11.855V11.8352M26.4655 11.8352V11.8154M26.4655 11.8352V11.8154M26.4655 11.8154V11.7956M26.4655 11.8154V11.7956M26.4655 11.7956V11.7758M26.4655 11.7956V11.7758M26.4655 11.7758V11.7561M26.4655 11.7758V11.7561M26.4655 11.7561V11.7363M26.4655 11.7561V11.7363M26.4655 11.7363V11.7165M26.4655 11.7363V11.7165M26.4655 11.7165V11.6967M26.4655 11.7165V11.6967M26.4655 11.6967V11.6769M26.4655 11.6967V11.6769M26.4655 11.6769V11.6571M26.4655 11.6769V11.6571M26.4655 11.6571V11.6374M26.4655 11.6571V11.6374M26.4655 11.6374V11.6176M26.4655 11.6374V11.6176M26.4655 11.6176V11.5978M26.4655 11.6176V11.5978M26.4655 11.5978V11.578M26.4655 11.5978V11.578M26.4655 11.578V11.5582M26.4655 11.578V11.5582M26.4655 11.5582V11.5384M26.4655 11.5582V11.5384M26.4655 11.5384V11.5186M26.4655 11.5384V11.5186M26.4655 11.5186V11.4989M26.4655 11.5186V11.4989M26.4655 11.4989V11.4791M26.4655 11.4989V11.4791M26.4655 11.4791V11.4593M26.4655 11.4791V11.4593M26.4655 11.4593V11.4395M26.4655 11.4593V11.4395M26.4655 11.4395V11.4197M26.4655 11.4395V11.4197M26.4655 11.4197V11.3999M26.4655 11.4197V11.3999M26.4655 11.3999V11.3801M26.4655 11.3999V11.3801M26.4655 11.3801V11.3604M26.4655 11.3801V11.3604M26.4655 11.3604V11.3406M26.4655 11.3604V11.3406M26.4655 11.3406V11.3208M26.4655 11.3406V11.3208M26.4655 11.3208V11.301M26.4655 11.3208V11.301M26.4655 11.301V11.2812M26.4655 11.301V11.2812M26.4655 11.2812V11.2614M26.4655 11.2812V11.2614M26.4655 11.2614V11.2417M26.4655 11.2614V11.2417M26.4655 11.2417V11.2219M26.4655 11.2417V11.2219M26.4655 11.2219V11.2021M26.4655 11.2219V11.2021M26.4655 11.2021V11.1823M26.4655 11.2021V11.1823M26.4655 11.1823V11.1625M26.4655 11.1823V11.1625M26.4655 11.1625V11.1427M26.4655 11.1625V11.1427M26.4655 11.1427V11.1229M26.4655 11.1427V11.1229M26.4655 11.1229V11.1032M26.4655 11.1229V11.1032M26.4655 11.1032V11.0834M26.4655 11.1032V11.0834M26.4655 11.0834V11.0636M26.4655 11.0834V11.0636M26.4655 11.0636V11.0438M26.4655 11.0636V11.0438M26.4655 11.0438V11.024M26.4655 11.0438V11.024M26.4655 11.024V11.0042M26.4655 11.024V11.0042M26.4655 11.0042V10.9845M26.4655 11.0042V10.9845M26.4655 10.9845V10.9647M26.4655 10.9845V10.9647M26.4655 10.9647V10.9449M26.4655 10.9647V10.9449M26.4655 10.9449V10.9251M26.4655 10.9449V10.9251M26.4655 10.9251V10.9053M26.4655 10.9251V10.9053M26.4655 10.9053V10.8855M26.4655 10.9053V10.8855M26.4655 10.8855V10.8657M26.4655 10.8855V10.8657M26.4655 10.8657V10.846M26.4655 10.8657V10.846M26.4655 10.846V10.8262M26.4655 10.846V10.8262M26.4655 10.8262V10.8064M26.4655 10.8262V10.8064M26.4655 10.8064V10.7866M26.4655 10.8064V10.7866M26.4655 10.7866V10.7668M26.4655 10.7866V10.7668M26.4655 10.7668V10.747M26.4655 10.7668V10.747M26.4655 10.747V10.7272M26.4655 10.747V10.7272M26.4655 10.7272V10.7075M26.4655 10.7272V10.7075M26.4655 10.7075V10.6877M26.4655 10.7075V10.6877M26.4655 10.6877V10.6679M26.4655 10.6877V10.6679M26.4655 10.6679V10.6481M26.4655 10.6679V10.6481M26.4655 10.6481V10.6283M26.4655 10.6481V10.6283M26.4655 10.6283V10.6085M26.4655 10.6283V10.6085M26.4655 10.6085V10.5888M26.4655 10.6085V10.5888M26.4655 10.5888V10.569M26.4655 10.5888V10.569M26.4655 10.569V10.5492M26.4655 10.569V10.5492M26.4655 10.5492V10.5294M26.4655 10.5492V10.5294M26.4655 10.5294V10.5096M26.4655 10.5294V10.5096M26.4655 10.5096V10.4898M26.4655 10.5096V10.4898M26.4655 10.4898V10.47M26.4655 10.4898V10.47M26.4655 10.47V10.4503M26.4655 10.47V10.4503M26.4655 10.4503V10.4305M26.4655 10.4503V10.4305M26.4655 10.4305V10.4107M26.4655 10.4305V10.4107M26.4655 10.4107V10.3909M26.4655 10.4107V10.3909M26.4655 10.3909V10.3711M26.4655 10.3909V10.3711M26.4655 10.3711V10.3513M26.4655 10.3711V10.3513M26.4655 10.3513V10.3316M26.4655 10.3513V10.3316M26.4655 10.3316V10.3118M26.4655 10.3316V10.3118M26.4655 10.3118V10.292M26.4655 10.3118V10.292M26.4655 10.292V10.2722M26.4655 10.292V10.2722M26.4655 10.2722V10.2524M26.4655 10.2722V10.2524M26.4655 10.2524V10.2326M26.4655 10.2524V10.2326M26.4655 10.2326V10.2128M26.4655 10.2326V10.2128M26.4655 10.2128V10.1931M26.4655 10.2128V10.1931M26.4655 10.1931V10.1733M26.4655 10.1931V10.1733M26.4655 10.1733V10.1535M26.4655 10.1733V10.1535M26.4655 10.1535V10.1337M26.4655 10.1535V10.1337M26.4655 10.1337V10.1139M26.4655 10.1337V10.1139M26.4655 10.1139V10.0941M26.4655 10.1139V10.0941M26.4655 10.0941V10.0743M26.4655 10.0941V10.0743M26.4655 10.0743V10.0546M26.4655 10.0743V10.0546M26.4655 10.0546V10.0348M26.4655 10.0546V10.0348M26.4655 10.0348V10.015M26.4655 10.0348V10.015M26.4655 10.015V9.99521M26.4655 10.015V9.99521M26.4655 9.99521V9.97542M26.4655 9.99521V9.97542M26.4655 9.97542V9.95564M26.4655 9.97542V9.95564M26.4655 9.95564V9.93585M26.4655 9.95564V9.93585M26.4655 9.93585V9.91607M26.4655 9.93585V9.91607M26.4655 9.91607V9.89629M26.4655 9.91607V9.89629M26.4655 9.89629V9.8765M26.4655 9.89629V9.8765M26.4655 9.8765V9.85672M26.4655 9.8765V9.85672M26.4655 9.85672V9.83693M26.4655 9.85672V9.83693M26.4655 9.83693V9.81715M26.4655 9.83693V9.81715M26.4655 9.81715V9.79736M26.4655 9.81715V9.79736M26.4655 9.79736V9.77758M26.4655 9.79736V9.77758M26.4655 9.77758V9.75779M26.4655 9.77758V9.75779M26.4655 9.75779V9.73801M26.4655 9.75779V9.73801M26.4655 9.73801V9.71822M26.4655 9.73801V9.71822M26.4655 9.71822V9.69844M26.4655 9.71822V9.69844M26.4655 9.69844V9.67865M26.4655 9.69844V9.67865M26.4655 9.67865V9.65887M26.4655 9.67865V9.65887M26.4655 9.65887V9.63908M26.4655 9.65887V9.63908M26.4655 9.63908V9.6193M26.4655 9.63908V9.6193M26.4655 9.6193V9.59951M26.4655 9.6193V9.59951M26.4655 9.59951V9.57973M26.4655 9.59951V9.57973M26.4655 9.57973V9.55994M26.4655 9.57973V9.55994M26.4655 9.55994V9.54016M26.4655 9.55994V9.54016M26.4655 9.54016V9.52037M26.4655 9.54016V9.52037M26.4655 9.52037V9.50059M26.4655 9.52037V9.50059M26.4655 9.50059V9.4808M26.4655 9.50059V9.4808M26.4655 9.4808V9.46102M26.4655 9.4808V9.46102M26.4655 9.46102V9.44123M26.4655 9.46102V9.44123M26.4655 9.44123V9.42145M26.4655 9.44123V9.42145M26.4655 9.42145V9.40166M26.4655 9.42145V9.40166M26.4655 9.40166V9.38188M26.4655 9.40166V9.38188M26.4655 9.38188V9.36209M26.4655 9.38188V9.36209M26.4655 9.36209V9.34231M26.4655 9.36209V9.34231M26.4655 9.34231V9.32253M26.4655 9.34231V9.32253M26.4655 9.32253V9.30274M26.4655 9.32253V9.30274M26.4655 9.30274V9.28296M26.4655 9.30274V9.28296M26.4655 9.28296V9.26317M26.4655 9.28296V9.26317M26.4655 9.26317V9.24339M26.4655 9.26317V9.24339M26.4655 9.24339V9.2236M26.4655 9.24339V9.2236M26.4655 9.2236V9.20382M26.4655 9.2236V9.20382M26.4655 9.20382V9.18403M26.4655 9.20382V9.18403M26.4655 9.18403V9.16425M26.4655 9.18403V9.16425M26.4655 9.16425V9.14446M26.4655 9.16425V9.14446M26.4655 9.14446V9.12468M26.4655 9.14446V9.12468M26.4655 9.12468V9.10489M26.4655 9.12468V9.10489M26.4655 9.10489V9.08511M26.4655 9.10489V9.08511M26.4655 9.08511V9.06532M26.4655 9.08511V9.06532M26.4655 9.06532V9.04554M26.4655 9.06532V9.04554M26.4655 9.04554V9.02575M26.4655 9.04554V9.02575M26.4655 9.02575V9.00597M26.4655 9.02575V9.00597M26.4655 9.00597V8.98618M26.4655 9.00597V8.98618M26.4655 8.98618V8.9664M26.4655 8.98618V8.9664M26.4655 8.9664V8.94661M26.4655 8.9664V8.94661M26.4655 8.94661V8.92683M26.4655 8.94661V8.92683M26.4655 8.92683V8.90704M26.4655 8.92683V8.90704M26.4655 8.90704V8.88726M26.4655 8.90704V8.88726M26.4655 8.88726V8.86747M26.4655 8.88726V8.86747M26.4655 8.86747V8.84769M26.4655 8.86747V8.84769M26.4655 8.84769V8.8279M26.4655 8.84769V8.8279M26.4655 8.8279V8.80812M26.4655 8.8279V8.80812M26.4655 8.80812V8.78833M26.4655 8.80812V8.78833M26.4655 8.78833V8.76855M26.4655 8.78833V8.76855M26.4655 8.76855V8.74876M26.4655 8.76855V8.74876M26.4655 8.74876V8.72898M26.4655 8.74876V8.72898M26.4655 8.72898V8.7092M26.4655 8.72898V8.7092M26.4655 8.7092V8.68941M26.4655 8.7092V8.68941M26.4655 8.68941V8.66963M26.4655 8.68941V8.66963M26.4655 8.66963V8.64984M26.4655 8.66963V8.64984M26.4655 8.64984V8.63006M26.4655 8.64984V8.63006M26.4655 8.63006V8.61027M26.4655 8.63006V8.61027M26.4655 8.61027V8.59049M26.4655 8.61027V8.59049M26.4655 8.59049V8.5707M26.4655 8.59049V8.5707M26.4655 8.5707V8.55092M26.4655 8.5707V8.55092M26.4655 8.55092V8.53113M26.4655 8.55092V8.53113M26.4655 8.53113V8.51135M26.4655 8.53113V8.51135M26.4655 8.51135V8.49156M26.4655 8.51135V8.49156M26.4655 8.49156V8.47178M26.4655 8.49156V8.47178M26.4655 8.47178V8.45199M26.4655 8.47178V8.45199M26.4655 8.45199V8.43221M26.4655 8.45199V8.43221M26.4655 8.43221V8.41242M26.4655 8.43221V8.41242M26.4655 8.41242V8.39264M26.4655 8.41242V8.39264M26.4655 8.39264V8.37285M26.4655 8.39264V8.37285M26.4655 8.37285V8.35307M26.4655 8.37285V8.35307M26.4655 8.35307V8.33328M26.4655 8.35307V8.33328M26.4655 8.33328V8.3135M26.4655 8.33328V8.3135M26.4655 8.3135V8.29371M26.4655 8.3135V8.29371M26.4655 8.29371V8.27393M26.4655 8.29371V8.27393M26.4655 8.27393V8.25414M26.4655 8.27393V8.25414M26.4655 8.25414V8.23436M26.4655 8.25414V8.23436M26.4655 8.23436V8.21457M26.4655 8.23436V8.21457M26.4655 8.21457V8.19479M26.4655 8.21457V8.19479M26.4655 8.19479V8.175M26.4655 8.19479V8.175M26.4655 8.175V8.15522M26.4655 8.175V8.15522M26.4655 8.15522V8.13544M26.4655 8.15522V8.13544M26.4655 8.13544V8.11565M26.4655 8.13544V8.11565M26.4655 8.11565V8.09587M26.4655 8.11565V8.09587M26.4655 8.09587V8.07608M26.4655 8.09587V8.07608M26.4655 8.07608V8.0563M26.4655 8.07608V8.0563M26.4655 8.0563V8.03651M26.4655 8.0563V8.03651M26.4655 8.03651V8.01673M26.4655 8.03651V8.01673M26.4655 8.01673V7.99694M26.4655 8.01673V7.99694M26.4655 7.99694V7.97716M26.4655 7.99694V7.97716M26.4655 7.97716V7.95737M26.4655 7.97716V7.95737M26.4655 7.95737V7.93759M26.4655 7.95737V7.93759M26.4655 7.93759V7.9178M26.4655 7.93759V7.9178M26.4655 7.9178V7.89802M26.4655 7.9178V7.89802M26.4655 7.89802V7.87823M26.4655 7.89802V7.87823M26.4655 7.87823V7.85845M26.4655 7.87823V7.85845M26.4655 7.85845V7.83866M26.4655 7.85845V7.83866M26.4655 7.83866V7.81888M26.4655 7.83866V7.81888M26.4655 7.81888V7.79909M26.4655 7.81888V7.79909M26.4655 7.79909V7.77931M26.4655 7.79909V7.77931M26.4655 7.77931V7.75952M26.4655 7.77931V7.75952M26.4655 7.75952V7.73974M26.4655 7.75952V7.73974M26.4655 7.73974V7.71995M26.4655 7.73974V7.71995M26.4655 7.71995V7.70017M26.4655 7.71995V7.70017M26.4655 7.70017V7.68038M26.4655 7.70017V7.68038M26.4655 7.68038V7.6606V7.68038ZM30.144 3.67736H29.644V4.17736V14.3083C29.644 19.0707 26.5471 23.1119 22.2544 24.5262L20.8121 25.0014L22.2546 25.4761C26.546 26.8882 29.644 30.9293 29.644 35.6917V45.8215V46.3215H30.144H32.6358C33.5143 46.3215 34.225 47.0322 34.225 47.9108C34.225 48.7889 33.5147 49.4989 32.6358 49.4989L2.08923 49.5C1.21071 49.5 0.5 48.7893 0.5 47.9108C0.5 47.0334 1.21182 46.3215 2.08923 46.3215H4.58214H5.08214V45.8215V35.6917C5.08214 30.9292 8.17919 26.8871 12.4705 25.4749L13.9138 25L12.4705 24.5251C8.17913 23.1129 5.08214 19.0719 5.08214 14.3094V4.17847V3.67847H4.58214H2.08923C1.21165 3.67847 0.5 2.96758 0.5 2.08923C0.5 1.21182 1.21182 0.5 2.08923 0.5H32.6358C33.5132 0.5 34.225 1.21182 34.225 2.08923C34.225 2.96741 33.5147 3.67736 32.6358 3.67736H30.144ZM26.4655 46.3215V45.8215V45.8018V45.782V45.7622V45.7424V45.7226V45.7028V45.683V45.6633V45.6435V45.6237V45.6039V45.5841V45.5643V45.5445V45.5248V45.505V45.4852V45.4654V45.4456V45.4258V45.4061V45.3863V45.3665V45.3467V45.3269V45.3071V45.2873V45.2676V45.2478V45.228V45.2082V45.1884V45.1686V45.1488V45.1291V45.1093V45.0895V45.0697V45.0499V45.0301V45.0104V44.9906V44.9708V44.951V44.9312V44.9114V44.8916V44.8719V44.8521V44.8323V44.8125V44.7927V44.7729V44.7532V44.7334V44.7136V44.6938V44.674V44.6542V44.6344V44.6147V44.5949V44.5751V44.5553V44.5355V44.5157V44.4959V44.4762V44.4564V44.4366V44.4168V44.397V44.3772V44.3575V44.3377V44.3179V44.2981V44.2783V44.2585V44.2387V44.219V44.1992V44.1794V44.1596V44.1398V44.12V44.1003V44.0805V44.0607V44.0409V44.0211V44.0013V43.9815V43.9618V43.942V43.9222V43.9024V43.8826V43.8628V43.843V43.8233V43.8035V43.7837V43.7639V43.7441V43.7243V43.7046V43.6848V43.665V43.6452V43.6254V43.6056V43.5858V43.5661V43.5463V43.5265V43.5067V43.4869V43.4671V43.4474V43.4276V43.4078V43.388V43.3682V43.3484V43.3286V43.3089V43.2891V43.2693V43.2495V43.2297V43.2099V43.1902V43.1704V43.1506V43.1308V43.111V43.0912V43.0714V43.0517V43.0319V43.0121V42.9923V42.9725V42.9527V42.9329V42.9132V42.8934V42.8736V42.8538V42.834V42.8142V42.7945V42.7747V42.7549V42.7351V42.7153V42.6955V42.6757V42.656V42.6362V42.6164V42.5966V42.5768V42.557V42.5373V42.5175V42.4977V42.4779V42.4581V42.4383V42.4185V42.3988V42.379V42.3592V42.3394V42.3196V42.2998V42.28V42.2603V42.2405V42.2207V42.2009V42.1811V42.1613V42.1416V42.1218V42.102V42.0822V42.0624V42.0426V42.0228V42.0031V41.9833V41.9635V41.9437V41.9239V41.9041V41.8843V41.8646V41.8448V41.825V41.8052V41.7854V41.7656V41.7459V41.7261V41.7063V41.6865V41.6667V41.6469V41.6271V41.6074V41.5876V41.5678V41.548V41.5282V41.5084V41.4887V41.4689V41.4491V41.4293V41.4095V41.3897V41.3699V41.3502V41.3304V41.3106V41.2908V41.271V41.2512V41.2314V41.2117V41.1919V41.1721V41.1523V41.1325V41.1127V41.093V41.0732V41.0534V41.0336V41.0138V40.994V40.9742V40.9545V40.9347V40.9149V40.8951V40.8753V40.8555V40.8358V40.816V40.7962V40.7764V40.7566V40.7368V40.717V40.6973V40.6775V40.6577V40.6379V40.6181V40.5983V40.5786V40.5588V40.539V40.5192V40.4994V40.4796V40.4598V40.4401V40.4203V40.4005V40.3807V40.3609V40.3411V40.3214V40.3016V40.2818V40.262V40.2422V40.2224V40.2026V40.1829V40.1631V40.1433V40.1235V40.1037V40.0839V40.0641V40.0444V40.0246V40.0048V39.985V39.9652V39.9454V39.9257V39.9059V39.8861V39.8663V39.8465V39.8267V39.8069V39.7872V39.7674V39.7476V39.7278V39.708V39.6882V39.6684V39.6487V39.6289V39.6091V39.5893V39.5695V39.5497V39.53V39.5102V39.4904V39.4706V39.4508V39.431V39.4112V39.3915V39.3717V39.3519V39.3321V39.3123V39.2925V39.2728V39.253V39.2332V39.2134V39.1936V39.1738V39.154V39.1343V39.1145V39.0947V39.0749V39.0551V39.0353V39.0155V38.9958V38.976V38.9562V38.9364V38.9166V38.8968V38.8771V38.8573V38.8375V38.8177V38.7979V38.7781V38.7583V38.7386V38.7188V38.699V38.6792V38.6594V38.6396V38.6199V38.6001V38.5803V38.5605V38.5407V38.5209V38.5011V38.4814V38.4616V38.4418V38.422V38.4022V38.3824V38.3626V38.3429V38.3231V38.3033V38.2835V38.2637V38.2439V38.2242V38.2044V38.1846V38.1648V38.145V38.1252V38.1054V38.0857V38.0659V38.0461V38.0263V38.0065V37.9867V37.967V37.9472V37.9274V37.9076V37.8878V37.868V37.8482V37.8285V37.8087V37.7889V37.7691V37.7493V37.7295V37.7098V37.69V37.6702V37.6504V37.6306V37.6108V37.591V37.5713V37.5515V37.5317V37.5119V37.4921V37.4723V37.4525V37.4328V37.413V37.3932V37.3734V37.3536V37.3338V37.3141V37.2943V37.2745V37.2547V37.2349V37.2151V37.1953V37.1756V37.1558V37.136V37.1162V37.0964V37.0766V37.0569V37.0371V37.0173V36.9975V36.9777V36.9579V36.9381V36.9184V36.8986V36.8788V36.859V36.8392V36.8194V36.7996V36.7799V36.7601V36.7403V36.7205V36.7007V36.6809V36.6612V36.6414V36.6216V36.6018V36.582V36.5622V36.5424V36.5227V36.5029V36.4831V36.4633V36.4435V36.4237V36.4039V36.3842V36.3644V36.3446V36.3248V36.305V36.2852V36.2655V36.2457V36.2259V36.2061V36.1863V36.1665V36.1467V36.127V36.1072V36.0874V36.0676V36.0478V36.028V36.0083V35.9885V35.9687V35.9489V35.9291V35.9093V35.8895V35.8698V35.85V35.8302V35.8104V35.7906V35.7708V35.751V35.7313V35.7115V35.6917C26.4655 31.3256 22.7043 28.1166 18.5089 28.1166H16.2173C12.0218 28.1166 8.26172 31.3257 8.26172 35.6917V35.7115V35.7313V35.751V35.7708V35.7906V35.8104V35.8302V35.85V35.8698V35.8895V35.9093V35.9291V35.9489V35.9687V35.9885V36.0083V36.028V36.0478V36.0676V36.0874V36.1072V36.127V36.1467V36.1665V36.1863V36.2061V36.2259V36.2457V36.2655V36.2852V36.305V36.3248V36.3446V36.3644V36.3842V36.4039V36.4237V36.4435V36.4633V36.4831V36.5029V36.5227V36.5424V36.5622V36.582V36.6018V36.6216V36.6414V36.6612V36.6809V36.7007V36.7205V36.7403V36.7601V36.7799V36.7996V36.8194V36.8392V36.859V36.8788V36.8986V36.9184V36.9381V36.9579V36.9777V36.9975V37.0173V37.0371V37.0569V37.0766V37.0964V37.1162V37.136V37.1558V37.1756V37.1953V37.2151V37.2349V37.2547V37.2745V37.2943V37.3141V37.3338V37.3536V37.3734V37.3932V37.413V37.4328V37.4525V37.4723V37.4921V37.5119V37.5317V37.5515V37.5713V37.591V37.6108V37.6306V37.6504V37.6702V37.69V37.7098V37.7295V37.7493V37.7691V37.7889V37.8087V37.8285V37.8482V37.868V37.8878V37.9076V37.9274V37.9472V37.967V37.9867V38.0065V38.0263V38.0461V38.0659V38.0857V38.1054V38.1252V38.145V38.1648V38.1846V38.2044V38.2242V38.2439V38.2637V38.2835V38.3033V38.3231V38.3429V38.3626V38.3824V38.4022V38.422V38.4418V38.4616V38.4814V38.5011V38.5209V38.5407V38.5605V38.5803V38.6001V38.6199V38.6396V38.6594V38.6792V38.699V38.7188V38.7386V38.7583V38.7781V38.7979V38.8177V38.8375V38.8573V38.8771V38.8968V38.9166V38.9364V38.9562V38.976V38.9958V39.0155V39.0353V39.0551V39.0749V39.0947V39.1145V39.1343V39.154V39.1738V39.1936V39.2134V39.2332V39.253V39.2728V39.2925V39.3123V39.3321V39.3519V39.3717V39.3915V39.4112V39.431V39.4508V39.4706V39.4904V39.5102V39.53V39.5497V39.5695V39.5893V39.6091V39.6289V39.6487V39.6684V39.6882V39.708V39.7278V39.7476V39.7674V39.7872V39.8069V39.8267V39.8465V39.8663V39.8861V39.9059V39.9257V39.9454V39.9652V39.985V40.0048V40.0246V40.0444V40.0641V40.0839V40.1037V40.1235V40.1433V40.1631V40.1829V40.2026V40.2224V40.2422V40.262V40.2818V40.3016V40.3214V40.3411V40.3609V40.3807V40.4005V40.4203V40.4401V40.4598V40.4796V40.4994V40.5192V40.539V40.5588V40.5786V40.5983V40.6181V40.6379V40.6577V40.6775V40.6973V40.717V40.7368V40.7566V40.7764V40.7962V40.816V40.8358V40.8555V40.8753V40.8951V40.9149V40.9347V40.9545V40.9742V40.994V41.0138V41.0336V41.0534V41.0732V41.093V41.1127V41.1325V41.1523V41.1721V41.1919V41.2117V41.2314V41.2512V41.271V41.2908V41.3106V41.3304V41.3502V41.3699V41.3897V41.4095V41.4293V41.4491V41.4689V41.4887V41.5084V41.5282V41.548V41.5678V41.5876V41.6074V41.6271V41.6469V41.6667V41.6865V41.7063V41.7261V41.7459V41.7656V41.7854V41.8052V41.825V41.8448V41.8646V41.8843V41.9041V41.9239V41.9437V41.9635V41.9833V42.0031V42.0228V42.0426V42.0624V42.0822V42.102V42.1218V42.1416V42.1613V42.1811V42.2009V42.2207V42.2405V42.2603V42.28V42.2998V42.3196V42.3394V42.3592V42.379V42.3988V42.4185V42.4383V42.4581V42.4779V42.4977V42.5175V42.5373V42.557V42.5768V42.5966V42.6164V42.6362V42.656V42.6757V42.6955V42.7153V42.7351V42.7549V42.7747V42.7945V42.8142V42.834V42.8538V42.8736V42.8934V42.9132V42.9329V42.9527V42.9725V42.9923V43.0121V43.0319V43.0517V43.0714V43.0912V43.111V43.1308V43.1506V43.1704V43.1902V43.2099V43.2297V43.2495V43.2693V43.2891V43.3089V43.3286V43.3484V43.3682V43.388V43.4078V43.4276V43.4474V43.4671V43.4869V43.5067V43.5265V43.5463V43.5661V43.5858V43.6056V43.6254V43.6452V43.665V43.6848V43.7046V43.7243V43.7441V43.7639V43.7837V43.8035V43.8233V43.843V43.8628V43.8826V43.9024V43.9222V43.942V43.9618V43.9815V44.0013V44.0211V44.0409V44.0607V44.0805V44.1003V44.12V44.1398V44.1596V44.1794V44.1992V44.219V44.2387V44.2585V44.2783V44.2981V44.3179V44.3377V44.3575V44.3772V44.397V44.4168V44.4366V44.4564V44.4762V44.4959V44.5157V44.5355V44.5553V44.5751V44.5949V44.6147V44.6344V44.6542V44.674V44.6938V44.7136V44.7334V44.7532V44.7729V44.7927V44.8125V44.8323V44.8521V44.8719V44.8916V44.9114V44.9312V44.951V44.9708V44.9906V45.0104V45.0301V45.0499V45.0697V45.0895V45.1093V45.1291V45.1488V45.1686V45.1884V45.2082V45.228V45.2478V45.2676V45.2873V45.3071V45.3269V45.3467V45.3665V45.3863V45.4061V45.4258V45.4456V45.4654V45.4852V45.505V45.5248V45.5445V45.5643V45.5841V45.6039V45.6237V45.6435V45.6633V45.683V45.7028V45.7226V45.7424V45.7622V45.782V45.8018V45.8215V46.3215H8.76172H25.9655H26.4655Z" fill="#E8A700" stroke="#FFF8E7"/>
<path fill-rule="evenodd" clip-rule="evenodd" d="M19.6448 41.4715C17.3847 40.8614 17.3923 40.8357 15.5945 41.4394L9 43.6541V46H26V44.216C25.0557 42.9919 22.1366 42.144 19.6448 41.4715Z" fill="#FFDD86" stroke="none"/>
<path fill-rule="evenodd" clip-rule="evenodd" d="M8.76172 14.3086C8.76172 18.362 12.26 21.3803 16.2184 21.3825L18.5089 21.3836C21.9408 21.3859 25.0254 19.1119 25.7864 15.868C20.6932 14.3683 15.2185 11.9738 8.76172 11.3633V14.3086Z" fill="#FFDD86" stroke="none"/>

</svg>
