<svg width="21" height="29" viewBox="0 0 21 29" fill="#5DA1DE" stroke="#5DA1DE" xmlns="http://www.w3.org/2000/svg">
<rect x="4.21289" y="6.375" width="8.56824" height="2.68692" rx="1.34346" fill="inherit" stroke="none"/>
<rect x="4.21289" y="11.748" width="8.56824" height="2.68692" rx="1.34346" fill="inherit" stroke="none"/>
<path d="M15.9944 10.7706V3C15.9944 1.89543 15.099 1 13.9944 1H3C1.89543 1 1 1.89543 1 3V25.8692C1 26.9738 1.89543 27.8692 3 27.8692H13.9944C15.099 27.8692 15.9944 26.9738 15.9944 25.8692V19.3199" stroke="inherit" fill="none" stroke-width="2"/>
<path fill-rule="evenodd" clip-rule="evenodd" d="M18.7504 14.8517C18.5583 14.7395 18.3304 14.7471 18.1167 14.873L17.5147 15.2277L17.9518 17.3739L18.5539 17.0192C18.7675 16.8934 18.9494 16.6596 19.0594 16.3694C19.1695 16.0791 19.1988 15.7562 19.1408 15.4716C19.0829 15.187 18.9424 14.964 18.7504 14.8517ZM18.8452 18.4498C19.3436 18.1561 19.7679 17.6107 20.0247 16.9336C20.2816 16.2564 20.3499 15.5029 20.2146 14.8389C20.0794 14.1749 19.7517 13.6548 19.3036 13.3929C18.8556 13.131 18.3238 13.1489 17.8254 13.4425L16.6868 14.1133L7.39872 19.5852C7.25632 19.6691 7.13511 19.8249 7.06174 20.0184L6.07356 22.6239C5.92078 23.0267 6.01301 23.4796 6.27958 23.6354L7.96887 24.6227C8.09687 24.6976 8.24879 24.6925 8.39118 24.6086L18.8452 18.4498ZM16.878 18.0065L16.4409 15.8603L7.91245 20.8847L7.31552 22.4587L8.32223 23.047L16.878 18.0065Z" fill="inherit" stroke="none"/>
<path d="M15.9961 15.1064V10.4043" stroke="inherit" fill="none" stroke-width="2"/>
</svg>
