<svg width="16" height="16" viewBox="0 0 16 16" fill="white" stroke="none" xmlns="http://www.w3.org/2000/svg">
<path d="M15.0822 11.6506C14.9247 11.3694 14.7335 11.0881 14.5197 10.79C14.0111 10.1548 13.6585 9.40926 13.4904 8.61312L13.2541 5.29437C13.1135 2.72375 11.6116 0.125 8.62474 0.125H7.37599C4.38911 0.125 2.87599 2.72375 2.72411 5.28875L2.48786 8.61312C2.3204 9.41631 1.96794 10.1694 1.45849 10.8125C1.26724 11.105 1.07599 11.375 0.94661 11.6281C0.807762 11.8145 0.723669 12.0359 0.703794 12.2674C0.68392 12.499 0.729051 12.7315 0.83411 12.9388C0.956685 13.1564 1.13726 13.3358 1.35574 13.457C1.57422 13.5782 1.82204 13.6363 2.07161 13.625H6.41411C6.3216 13.8799 6.29187 14.1533 6.32745 14.4221C6.36302 14.6909 6.46285 14.9472 6.61848 15.1693C6.77411 15.3913 6.98095 15.5726 7.2215 15.6977C7.46204 15.8229 7.7292 15.8882 8.00036 15.8882C8.27152 15.8882 8.53868 15.8229 8.77922 15.6977C9.01977 15.5726 9.22662 15.3913 9.38224 15.1693C9.53787 14.9472 9.6377 14.6909 9.67327 14.4221C9.70885 14.1533 9.67912 13.8799 9.58661 13.625H13.9291C14.181 13.6342 14.4304 13.5726 14.6491 13.4474C14.8678 13.3221 15.0471 13.1381 15.1666 12.9163C15.2717 12.7183 15.3196 12.495 15.3046 12.2714C15.2897 12.0478 15.2127 11.8328 15.0822 11.6506ZM8.56286 14.1875C8.56286 14.2988 8.52987 14.4075 8.46806 14.5C8.40625 14.5925 8.3184 14.6646 8.21562 14.7072C8.11284 14.7498 7.99974 14.7609 7.89062 14.7392C7.78151 14.7175 7.68128 14.6639 7.60261 14.5852C7.52395 14.5066 7.47037 14.4064 7.44867 14.2972C7.42696 14.1881 7.4381 14.075 7.48068 13.9722C7.52325 13.8695 7.59535 13.7816 7.68785 13.7198C7.78035 13.658 7.88911 13.625 8.00036 13.625C8.14954 13.625 8.29262 13.6843 8.39811 13.7898C8.5036 13.8952 8.56286 14.0383 8.56286 14.1875ZM14.1879 12.4044C14.1879 12.4494 14.0922 12.5 13.9516 12.5H2.07161C1.93099 12.5 1.85786 12.4494 1.83536 12.4044C1.81286 12.3594 1.83536 12.2975 1.89161 12.2075C2.04349 11.9487 2.21786 11.6788 2.39786 11.4087C2.96036 10.5988 3.52286 9.67625 3.60724 8.69187L3.84911 5.3675C3.96724 3.46625 4.96286 1.25 7.37599 1.25H8.62474C11.0379 1.25 12.0335 3.46625 12.1516 5.37313L12.3935 8.69187C12.461 9.6875 13.0629 10.5988 13.6254 11.4087C13.8054 11.6788 13.9797 11.9712 14.1597 12.2581C14.1776 12.2774 14.1898 12.3014 14.1947 12.3272C14.1997 12.3531 14.1973 12.3798 14.1879 12.4044Z" fill="inherit" stroke="none"/>
</svg>
