<svg width="31" height="28" viewBox="0 0 31 28" fill="none" stroke="#37A168" xmlns="http://www.w3.org/2000/svg">
<path d="M25.4001 6C25.4001 8.99026 23.2114 11.25 20.5107 11.25C17.8099 11.25 15.6213 8.99026 15.6213 6C15.6213 3.00974 17.8099 0.75 20.5107 0.75C23.2114 0.75 25.4001 3.00974 25.4001 6ZM18.1163 14.8829C23.3814 13.4572 28.8364 16.9386 30.25 22.65V22.6503V22.6508V22.6514V22.652V22.6525V22.6531V22.6537V22.6543V22.6548V22.6554V22.656V22.6566V22.6571V22.6577V22.6583V22.6589V22.6595V22.66V22.6606V22.6612V22.6618V22.6624V22.663V22.6636V22.6642V22.6647V22.6653V22.6659V22.6665V22.6671V22.6677V22.6683V22.6689V22.6695V22.6701V22.6707V22.6713V22.6719V22.6725V22.6731V22.6738V22.6744V22.675V22.6756V22.6762V22.6768V22.6774V22.678V22.6787V22.6793V22.6799V22.6805V22.6811V22.6817V22.6824V22.683V22.6836V22.6842V22.6849V22.6855V22.6861V22.6867V22.6874V22.688V22.6886V22.6893V22.6899V22.6905V22.6912V22.6918V22.6924V22.6931V22.6937V22.6943V22.695V22.6956V22.6963V22.6969V22.6975V22.6982V22.6988V22.6995V22.7001V22.7008V22.7014V22.7021V22.7027V22.7034V22.704V22.7047V22.7053V22.706V22.7066V22.7073V22.7079V22.7086V22.7092V22.7099V22.7106V22.7112V22.7119V22.7125V22.7132V22.7139V22.7145V22.7152V22.7158V22.7165V22.7172V22.7178V22.7185V22.7192V22.7198V22.7205V22.7212V22.7218V22.7225V22.7232V22.7238V22.7245V22.7252V22.7259V22.7265V22.7272V22.7279V22.7286V22.7292V22.7299V22.7306V22.7313V22.7319V22.7326V22.7333V22.734V22.7346V22.7353V22.736V22.7367V22.7374V22.7381V22.7387V22.7394V22.7401V22.7408V22.7415V22.7422V22.7428V22.7435V22.7442V22.7449V22.7456V22.7463V22.747V22.7476V22.7483V22.749V22.7497V22.7504V22.7511V22.7518V22.7525V22.7532V22.7539V22.7545V22.7552V22.7559V22.7566V22.7573V22.758V22.7587V22.7594V22.7601V22.7608V22.7615V22.7622V22.7629V22.7636V22.7643V22.765V22.7657V22.7663V22.767V22.7677V22.7684V22.7691V22.7698V22.7705V22.7712V22.7719V22.7726V22.7733V22.774V22.7747V22.7754V22.7761V22.7768V22.7775V22.7782V22.7789V22.7796V22.7803V22.781V22.7817V22.7824V22.7831V22.7838V22.7845V22.7852V22.7859V22.7866V22.7873V22.7881V22.7888V22.7895V22.7902V22.7909V22.7916V22.7923V22.793V22.7937V22.7944V22.7951V22.7958V22.7965V22.7972V22.7979V22.7986V22.7993V22.8C30.25 23.003 30.1885 23.1083 30.1433 23.1563C30.1021 23.2002 30.0255 23.25 29.8721 23.25H11.1493H11.1492H11.1492H11.1492H11.1492H11.1492H11.1491H11.1491H11.1491H11.149H11.149H11.149H11.1489H11.1489H11.1488H11.1488H11.1487H11.1487H11.1486H11.1486H11.1485H11.1485H11.1484H11.1483H11.1483H11.1482H11.1481H11.148H11.148H11.1479H11.1478H11.1477H11.1476H11.1475H11.1474H11.1473H11.1472H11.1471H11.147H11.1469H11.1468H11.1467H11.1466H11.1465H11.1464H11.1463H11.1461H11.146H11.1459H11.1458H11.1456H11.1455H11.1454H11.1452H11.1451H11.1449H11.1448H11.1446H11.1445H11.1443H11.1442H11.144H11.1439H11.1437H11.1436H11.1434H11.1432H11.1431H11.1429H11.1427H11.1425H11.1424H11.1422H11.142H11.1418H11.1416H11.1414H11.1412H11.141H11.1408H11.1406H11.1404H11.1402H11.14H11.1398H11.1396H11.1394H11.1392H11.139H11.1388H11.1385H11.1383H11.1381H11.1379H11.1377H11.1374H11.1372H11.137H11.1367H11.1365H11.1362H11.136H11.1358H11.1355H11.1353H11.135H11.1348H11.1345H11.1342H11.134H11.1337H11.1335H11.1332H11.1329H11.1327H11.1324H11.1321H11.1318H11.1316H11.1313H11.131H11.1307H11.1304H11.1302H11.1299H11.1296H11.1293H11.129H11.1287H11.1284H11.1281H11.1278H11.1275H11.1272H11.1269H11.1266H11.1263H11.126H11.1256H11.1253H11.125H11.1247H11.1244H11.124H11.1237H11.1234H11.1231H11.1227H11.1224H11.1221H11.1217H11.1214H11.121H11.1207H11.1203H11.12H11.1197H11.1193H11.119H11.1186H11.1182H11.1179H11.1175H11.1172H11.1168H11.1164H11.1161H11.1157H11.1153H11.115H11.1146H11.1142H11.1139H11.1135H11.1131H11.1127H11.1123H11.112H11.1116H11.1112H11.1108H11.1104H11.11H11.1096H11.1092H11.1088H11.1084H11.108H11.1076H11.1072H11.1068H11.1064H11.106H11.1056H11.1052H11.1048H11.1043H11.1039H11.1035H11.1031H11.1027H11.1023H11.1018H11.1014H11.101H11.1005H11.1001H11.0997H11.0993H11.0988H11.0984H11.0979H11.0975H11.0971H11.0966H11.0962H11.0957H11.0953H11.0948H11.0944H11.0939H11.0935H11.093H11.0926H11.0921H11.0917H11.0912H11.0907H11.0903H11.0898H11.0893H11.0889H11.0884H11.0879H11.0875H11.087H11.0865H11.0861H11.0856H11.0851H11.0846H11.0841H11.0837H11.0832H11.0827H11.0822H11.0817H11.0812H11.0807H11.0802H11.0798H11.0793H11.0788H11.0783H11.0778H11.0773H11.0768H11.0763H11.0758H11.0753H11.0748H11.0743H11.0737H11.0732H11.0727H11.0722H11.0717H11.0712H11.0707H11.0702H11.0696H11.0691H11.0686H11.0681H11.0676H11.067H11.0665H11.066H11.0655H11.0649H11.0644H11.0639H11.0633H11.0628H11.0623H11.0617H11.0612H11.0607H11.0601H11.0596H11.059H11.0585H11.058H11.0574H11.0569H11.0563H11.0558H11.0552H11.0547H11.0541H11.0536H11.053H11.0525H11.0519H11.0514H11.0508H11.0502H11.0497H11.0491H11.0486H11.048H11.0474H11.0469H11.0463H11.0458H11.0452H11.0446H11.0441H11.0435H11.0429H11.0423H11.0418H11.0412H11.0406H11.04H11.0395H11.0389H11.0383H11.0377H11.0372H11.0366H11.036H11.0354H11.0348H11.0342H11.0337H11.0331H11.0325H11.0319H11.0313H11.0307H11.0301H11.0295H11.0289H11.0284H11.0278H11.0272H11.0266H11.026H11.0254H11.0248H11.0242H11.0236H11.023H11.0224H11.0218H11.0212H11.0206H11.02H11.0194H11.0188H11.0182H11.0176H11.0169H11.0163H11.0157H11.0151H11.0145H11.0139H11.0133H11.0127H11.0121H11.0114H11.0108H11.0102H11.0097C10.9402 23.2262 10.8779 23.1754 10.8268 23.0864C10.7621 22.9738 10.7375 22.8322 10.7559 22.7133C11.7144 18.7818 14.5589 15.8862 18.1163 14.8829Z" fill="none" stroke="inherit" stroke-width="1.5"/>
<path d="M18.2987 6.80885C18.2987 10.1722 15.6995 12.7896 12.3971 12.7896C9.09481 12.7896 6.49556 10.1722 6.49556 6.80885C6.49556 3.44547 9.09481 0.828125 12.3971 0.828125C15.6995 0.828125 18.2987 3.44547 18.2987 6.80885ZM9.52803 16.688C15.8592 15.057 22.3493 19.0501 24.0191 25.48V25.4801V25.4807V25.4813V25.4819V25.4825V25.4832V25.4838V25.4844V25.485V25.4857V25.4863V25.4869V25.4876V25.4882V25.4888V25.4895V25.4901V25.4907V25.4914V25.492V25.4927V25.4933V25.494V25.4946V25.4953V25.4959V25.4966V25.4972V25.4979V25.4985V25.4992V25.4998V25.5005V25.5012V25.5018V25.5025V25.5032V25.5038V25.5045V25.5052V25.5058V25.5065V25.5072V25.5078V25.5085V25.5092V25.5099V25.5105V25.5112V25.5119V25.5126V25.5133V25.5139V25.5146V25.5153V25.516V25.5167V25.5174V25.5181V25.5188V25.5194V25.5201V25.5208V25.5215V25.5222V25.5229V25.5236V25.5243V25.525V25.5257V25.5264V25.5271V25.5278V25.5285V25.5292V25.5299V25.5307V25.5314V25.5321V25.5328V25.5335V25.5342V25.5349V25.5356V25.5364V25.5371V25.5378V25.5385V25.5392V25.54V25.5407V25.5414V25.5421V25.5428V25.5436V25.5443V25.545V25.5457V25.5465V25.5472V25.5479V25.5487V25.5494V25.5501V25.5509V25.5516V25.5523V25.5531V25.5538V25.5545V25.5553V25.556V25.5568V25.5575V25.5582V25.559V25.5597V25.5605V25.5612V25.562V25.5627V25.5635V25.5642V25.5649V25.5657V25.5664V25.5672V25.5679V25.5687V25.5695V25.5702V25.571V25.5717V25.5725V25.5732V25.574V25.5747V25.5755V25.5763V25.577V25.5778V25.5785V25.5793V25.58V25.5808V25.5816V25.5823V25.5831V25.5839V25.5846V25.5854V25.5862V25.5869V25.5877V25.5885V25.5892V25.59V25.5908V25.5915V25.5923V25.5931V25.5938V25.5946V25.5954V25.5961V25.5969V25.5977V25.5985V25.5992V25.6V25.6008V25.6016V25.6023V25.6031V25.6039V25.6047V25.6054V25.6062V25.607V25.6078V25.6085V25.6093V25.6101V25.6109V25.6117V25.6124V25.6132V25.614V25.6148V25.6156V25.6164V25.6171V25.6179V25.6187V25.6195V25.6203V25.621V25.6218V25.6226V25.6234V25.6242V25.625V25.6257V25.6265V25.6273V25.6281V25.6289V25.6297V25.6305V25.6312V25.632V25.6328V25.6336V25.6344V25.6352V25.636V25.6368V25.6375V25.6383V25.6391V25.6399V25.6407V25.6415V25.6423V25.6431V25.6438V25.6446V25.6454V25.6462V25.647V25.6478V25.6486V25.6494V25.6501V25.6509V25.6517V25.6525V25.6533V25.6541V25.6549C24.0191 25.8909 23.9443 26.0282 23.8698 26.1037C23.796 26.1783 23.6647 26.251 23.4388 26.251H1.35552H1.3555H1.35547H1.35545H1.35543H1.3554H1.35537H1.35534H1.35531H1.35527H1.35523H1.35519H1.35514H1.35509H1.35504H1.35498H1.35492H1.35486H1.3548H1.35473H1.35466H1.35459H1.35451H1.35443H1.35435H1.35427H1.35418H1.35409H1.354H1.3539H1.3538H1.3537H1.3536H1.35349H1.35338H1.35327H1.35315H1.35303H1.35291H1.35279H1.35266H1.35253H1.3524H1.35226H1.35213H1.35199H1.35184H1.3517H1.35155H1.3514H1.35124H1.35108H1.35092H1.35076H1.3506H1.35043H1.35026H1.35008H1.34991H1.34973H1.34955H1.34936H1.34918H1.34899H1.3488H1.3486H1.3484H1.3482H1.348H1.3478H1.34759H1.34738H1.34717H1.34695H1.34673H1.34651H1.34629H1.34606H1.34583H1.3456H1.34537H1.34513H1.3449H1.34465H1.34441H1.34416H1.34392H1.34366H1.34341H1.34315H1.3429H1.34263H1.34237H1.3421H1.34184H1.34156H1.34129H1.34102H1.34074H1.34046H1.34017H1.33989H1.3396H1.33931H1.33902H1.33872H1.33842H1.33812H1.33782H1.33751H1.33721H1.3369H1.33659H1.33627H1.33595H1.33564H1.33531H1.33499H1.33466H1.33434H1.33401H1.33367H1.33334H1.333H1.33266H1.33232H1.33197H1.33163H1.33128H1.33093H1.33057H1.33022H1.32986H1.3295H1.32914H1.32877H1.3284H1.32804H1.32766H1.32729H1.32692H1.32654H1.32616H1.32577H1.32539H1.325H1.32462H1.32422H1.32383H1.32344H1.32304H1.32264H1.32224H1.32183H1.32143H1.32102H1.32061H1.3202H1.31978H1.31937H1.31895H1.31853H1.31811H1.31768H1.31726H1.31683H1.3164H1.31596H1.31553H1.31509H1.31465H1.31421H1.31377H1.31332H1.31288H1.31243H1.31198H1.31153H1.31107H1.31061H1.31016H1.3097H1.30923H1.30877H1.3083H1.30783H1.30736H1.30689H1.30642H1.30594H1.30546H1.30498H1.3045H1.30402H1.30353H1.30305H1.30256H1.30207H1.30157H1.30108H1.30058H1.30008H1.29958H1.29908H1.29858H1.29807H1.29756H1.29706H1.29654H1.29603H1.29552H1.295H1.29448H1.29396H1.29344H1.29292H1.29239H1.29187H1.29134H1.29081H1.29028H1.28974H1.28921H1.28867H1.28813H1.28759H1.28705H1.2865H1.28596H1.28541H1.28486H1.28431H1.28376H1.28321H1.28265H1.28209H1.28153H1.28097H1.28041H1.27985H1.27928H1.27872H1.27815H1.27758H1.27701H1.27643H1.27586H1.27528H1.27471H1.27413H1.27355H1.27296H1.27238H1.27179H1.27121H1.27062H1.27003H1.26944H1.26884H1.26825H1.26765H1.26706H1.26646H1.26586H1.26526H1.26465H1.26405H1.26344H1.26284H1.26223H1.26162H1.261H1.26039H1.25978H1.25916H1.25854H1.25792H1.2573H1.25668H1.25606H1.25544H1.25481H1.25418H1.25355H1.25293H1.25229H1.25166H1.25103H1.25039H1.24976H1.24912H1.24848H1.24784H1.2472H1.24656H1.24591H1.24527H1.24462H1.24397H1.24332H1.24267H1.24202H1.24137H1.24072H1.24006H1.2394H1.23875H1.23809H1.23743H1.23677H1.2361H1.23544H1.23478H1.23411H1.23344H1.23278H1.23211H1.23144H1.23076H1.23009H1.22942H1.22874H1.22807H1.22739H1.22671H1.22603H1.22535H1.22467H1.22399H1.2233H1.22262H1.22193H1.22125H1.22056H1.21987H1.21918H1.21849H1.2178H1.2171H1.21641H1.21571H1.21502H1.21432H1.21362H1.21292H1.21222H1.21152H1.21082H1.21012H1.20941H1.20871H1.208H1.2073H1.20659H1.20588H1.20517H1.20446H1.20375H1.20304H1.20233H1.20161H1.2009H1.20018H1.19946H1.19875H1.19803H1.19731H1.19659H1.19587H1.19515H1.19442H1.1937H1.19298H1.19225H1.19153H1.1908H1.19007H1.18935H1.18862H1.18789H1.18716H1.18643H1.18569H1.18496H1.18423H1.18349H1.18276H1.18202H1.18129H1.18055H1.17981H1.17907H1.17833H1.17759H1.17685H1.17611H1.17537H1.17463H1.17389H1.17314H1.1724H1.17165H1.17091H1.17016H1.16941H1.16866H1.16792H1.16717H1.16642H1.16567H1.16548C1.029 26.2152 0.924242 26.1302 0.850133 26.0075C0.764245 25.8653 0.733809 25.6922 0.758084 25.5469C1.89252 21.1179 5.26988 17.8299 9.52803 16.688Z" fill="white" stroke="inherit" stroke-width="1.5"/>
</svg>
