<svg width="31" height="31" viewBox="0 0 31 31" fill="#C2383A" xmlns="http://www.w3.org/2000/svg">
<path fill-rule="evenodd" clip-rule="evenodd" d="M12.8421 2.8739C13.3338 1.94503 14.0807 1.10082 15.0225 0.786881C15.2434 0.713244 15.4822 0.713245 15.7031 0.786882C16.6449 1.10082 17.3918 1.94503 17.8835 2.8739C18.3946 3.83922 18.722 5.0587 18.722 6.37391L18.722 11.112L25.836 15.6649L25.2559 16.5714L25.8528 15.6759C26.7187 16.2532 26.9769 17.157 26.854 18.0173C26.8406 18.1108 26.815 18.2022 26.7778 18.289L26.5495 18.8217C26.1698 19.7076 25.2993 20.3826 24.1904 20.2242C24.1692 20.2212 24.148 20.2175 24.127 20.2132L18.4891 19.06L18.0531 21.2403L19.9288 23.116C20.1307 23.3178 20.244 23.5916 20.244 23.877V25.399C20.244 25.7215 20.0995 26.0269 19.8501 26.2313C19.6008 26.4357 19.2729 26.5176 18.9568 26.4544L15.3628 25.7356L11.7688 26.4544C11.4527 26.5176 11.1248 26.4357 10.8755 26.2313C10.6261 26.0269 10.4815 25.7215 10.4815 25.399L10.4815 23.877C10.4815 23.5916 10.5949 23.3178 10.7968 23.116L12.6725 21.2403L12.2364 19.06L6.59861 20.2132C6.57756 20.2175 6.5564 20.2212 6.53514 20.2242C5.4263 20.3826 4.55577 19.7076 4.17612 18.8217C4.15351 18.769 4.13516 18.7145 4.12124 18.6588L3.9775 18.0839C3.68791 17.1511 4.05338 16.2221 4.87275 15.6759L4.88959 15.6649L12.0036 11.112V6.37391C12.0036 5.0587 12.331 3.83922 12.8421 2.8739ZM24.6647 17.4708L17.0657 12.6074C16.7566 12.4096 16.5696 12.0679 16.5696 11.7009L16.5696 6.37391C16.5696 5.4061 16.3263 4.53281 15.9812 3.881C15.7707 3.48338 15.5501 3.21625 15.3628 3.0487C15.1755 3.21625 14.9549 3.48338 14.7444 3.881C14.3993 4.53281 14.156 5.4061 14.156 6.37391L14.156 11.7009C14.156 12.0679 13.969 12.4096 13.6599 12.6074L6.06087 17.4708C6.05481 17.475 6.04947 17.4789 6.04479 17.4825C6.04926 17.4976 6.05341 17.5127 6.05722 17.528L6.18292 18.0308C6.20253 18.0643 6.21962 18.0828 6.22932 18.0917L12.8641 16.7346C13.1445 16.6772 13.4363 16.7339 13.6748 16.8922C13.9133 17.0505 14.079 17.2972 14.1351 17.5779L14.8961 21.3829C14.9667 21.7358 14.8562 22.1006 14.6018 22.355L12.9297 24.0271L15.1517 23.5827C15.2911 23.5548 15.4345 23.5548 15.5739 23.5827L17.7959 24.0271L16.1238 22.355C15.8694 22.1006 15.7589 21.7358 15.8295 21.3829L16.5905 17.5779C16.6466 17.2972 16.8123 17.0505 17.0508 16.8922C17.2893 16.7339 17.581 16.6772 17.8615 16.7346L24.4963 18.0917C24.5105 18.0787 24.5405 18.0452 24.5711 17.9738L24.7309 17.6008C24.7298 17.5532 24.7219 17.5303 24.7197 17.5248C24.7179 17.5201 24.716 17.5164 24.7114 17.5108C24.7067 17.5051 24.6937 17.4908 24.6647 17.4708Z" fill="inherit"  stroke="none" />
<path d="M19.0832 14.2H17.5832V15.7H19.0832V14.2ZM20.0432 14.2V15.7H21.5432V14.2H20.0432ZM20.0432 13.12L19.9137 11.6256L18.5432 11.7444V13.12H20.0432ZM20.0432 8.26H18.5432V9.40957L19.6532 9.70842L20.0432 8.26ZM20.0432 6.196L20.3431 4.72629L18.5432 4.35896V6.196H20.0432ZM21.6512 7.036L20.6048 8.11071L21.8117 9.28593L22.8396 7.95123L21.6512 7.036ZM22.4552 5.992L23.6436 6.90723L24.4637 5.84234L23.4949 4.91075L22.4552 5.992ZM20.0432 4.912H18.5432V6.25456L19.8775 6.40283L20.0432 4.912ZM20.0432 3.784H21.5432V2.284H20.0432V3.784ZM19.0832 3.784V2.284H17.5832V3.784H19.0832ZM19.0832 4.9L19.2106 6.39458L20.5832 6.27754V4.9H19.0832ZM19.0832 9.544H20.5832V8.37559L19.4503 8.08962L19.0832 9.544ZM19.0832 11.86L18.8597 13.3433L20.5832 13.603V11.86H19.0832ZM17.0672 10.792L18.1673 9.77235L16.923 8.42974L15.8512 9.91376L17.0672 10.792ZM16.2872 11.872L15.0712 10.9938L14.3573 11.9822L15.179 12.8829L16.2872 11.872ZM19.0832 13.12H20.5832V11.731L19.1982 11.6244L19.0832 13.12ZM20.0432 11.872H18.5432V13.6301L20.2793 13.3533L20.0432 11.872ZM20.0432 9.796L20.4861 8.3629L18.5432 7.76234V9.796H20.0432ZM19.0832 6.136H20.5832V4.46982L18.9262 4.64424L19.0832 6.136ZM19.0832 8.008L18.6747 9.45131L20.5832 9.99145V8.008H19.0832ZM19.0832 15.7H20.0432V12.7H19.0832V15.7ZM21.5432 14.2V13.12H18.5432V14.2H21.5432ZM20.1727 14.6144C21.3486 14.5125 22.3664 14.0936 23.0949 13.3367C23.8251 12.5781 24.1352 11.6131 24.1352 10.672H21.1352C21.1352 10.9549 21.0493 11.1359 20.9334 11.2563C20.816 11.3784 20.5378 11.5715 19.9137 11.6256L20.1727 14.6144ZM24.1352 10.672C24.1352 9.35275 23.5403 8.39843 22.693 7.77845C21.9493 7.23434 21.0468 6.9768 20.4331 6.81158L19.6532 9.70842C20.2875 9.8792 20.681 10.0237 20.9214 10.1995C21.019 10.2709 21.0589 10.3259 21.0796 10.365C21.0986 10.401 21.1352 10.4866 21.1352 10.672H24.1352ZM21.5432 8.26V6.196H18.5432V8.26H21.5432ZM19.7432 7.66571C20.0748 7.73338 20.3723 7.88432 20.6048 8.11071L22.6976 5.96129C22.0181 5.29968 21.1875 4.89862 20.3431 4.72629L19.7432 7.66571ZM22.8396 7.95123L23.6436 6.90723L21.2668 5.07677L20.4628 6.12077L22.8396 7.95123ZM23.4949 4.91075C22.6095 4.05945 21.476 3.56197 20.2088 3.42117L19.8775 6.40283C20.5544 6.47803 21.0529 6.72455 21.4155 7.07325L23.4949 4.91075ZM21.5432 4.912V3.784H18.5432V4.912H21.5432ZM20.0432 2.284H19.0832V5.284H20.0432V2.284ZM17.5832 3.784V4.9H20.5832V3.784H17.5832ZM18.9557 3.40542C16.8608 3.58406 15.0392 5.00235 15.0392 7.216H18.0392C18.0392 7.03635 18.1031 6.88492 18.2495 6.74942C18.4076 6.60308 18.7116 6.43713 19.2106 6.39458L18.9557 3.40542ZM15.0392 7.216C15.0392 8.51608 15.6247 9.46058 16.4715 10.07C17.2106 10.6019 18.1059 10.8444 18.7161 10.9984L19.4503 8.08962C18.8245 7.93164 18.4478 7.79612 18.2238 7.63498C18.1352 7.57119 18.1032 7.52488 18.088 7.49612C18.0741 7.46992 18.0392 7.39369 18.0392 7.216H15.0392ZM17.5832 9.544V11.86H20.5832V9.544H17.5832ZM19.3067 10.3767C18.8156 10.3028 18.4279 10.0535 18.1673 9.77235L15.967 11.8116C16.6184 12.5145 17.5987 13.1532 18.8597 13.3433L19.3067 10.3767ZM15.8512 9.91376L15.0712 10.9938L17.5032 12.7502L18.2832 11.6702L15.8512 9.91376ZM15.179 12.8829C16.0911 13.8827 17.3875 14.494 18.9681 14.6156L19.1982 11.6244C18.2828 11.554 17.7313 11.2293 17.3953 10.8611L15.179 12.8829ZM17.5832 13.12V14.2H20.5832V13.12H17.5832ZM19.7072 10.804C19.7072 10.6524 19.7679 10.5091 19.8585 10.4157C19.9438 10.3276 19.9748 10.364 19.807 10.3907L20.2793 13.3533C20.9395 13.248 21.5526 12.9784 22.0129 12.5033C22.4784 12.0229 22.7072 11.4116 22.7072 10.804H19.7072ZM21.5432 11.872V9.796H18.5432V11.872H21.5432ZM19.6002 11.2291C19.7332 11.2702 19.829 11.3055 19.8974 11.3357C19.9676 11.3667 19.9807 11.3802 19.9631 11.3668C19.9423 11.3509 19.8708 11.2912 19.8061 11.1744C19.7363 11.0484 19.7072 10.9148 19.7072 10.804H22.7072C22.7072 9.96747 22.2767 9.3583 21.7823 8.98125C21.3534 8.65422 20.8495 8.47519 20.4861 8.3629L19.6002 11.2291ZM19.4792 7.12C19.4792 7.19044 19.4643 7.27806 19.4236 7.3686C19.3832 7.45867 19.3282 7.52704 19.2767 7.57325C19.1779 7.66192 19.1312 7.63923 19.2402 7.62776L18.9262 4.64424C18.3511 4.70477 17.7525 4.91008 17.2727 5.34075C16.7698 5.79216 16.4792 6.424 16.4792 7.12H19.4792ZM17.5832 6.136V8.008H20.5832V6.136H17.5832ZM19.4917 6.56469C19.3668 6.52936 19.2776 6.49862 19.2156 6.47296C19.1511 6.44629 19.1436 6.43635 19.1672 6.45329C19.1928 6.47166 19.2767 6.53747 19.3539 6.66814C19.4381 6.81085 19.4792 6.97197 19.4792 7.12H16.4792C16.4792 7.96269 16.9434 8.55003 17.4182 8.89071C17.8345 9.18947 18.319 9.35064 18.6747 9.45131L19.4917 6.56469Z" fill="white" stroke="none"/>
<path d="M19.0832 14.2H20.0432V13.12C21.8432 12.964 22.6352 11.896 22.6352 10.672C22.6352 9.064 21.2912 8.596 20.0432 8.26V6.196C20.6312 6.316 21.1952 6.592 21.6512 7.036L22.4552 5.992C21.8312 5.392 21.0152 5.02 20.0432 4.912V3.784H19.0832V4.9C17.5352 5.032 16.5392 5.992 16.5392 7.216C16.5392 8.788 17.8472 9.232 19.0832 9.544V11.86C18.2072 11.728 17.5232 11.284 17.0672 10.792L16.2872 11.872C16.9112 12.556 17.8352 13.024 19.0832 13.12V14.2ZM21.2072 10.804C21.2072 11.26 20.8712 11.74 20.0432 11.872V9.796C20.7032 10 21.2072 10.264 21.2072 10.804ZM17.9792 7.12C17.9792 6.592 18.3992 6.208 19.0832 6.136V8.008C18.4472 7.828 17.9792 7.588 17.9792 7.12Z" fill="inherit" stroke="none" />
</svg>
