<svg width="30" height="31" viewBox="0 0 30 31" fill="#5DA1DE" xmlns="http://www.w3.org/2000/svg">
<path fill-rule="evenodd" clip-rule="evenodd" d="M5.35686 19.2874C5.0727 19.2874 4.80018 19.4003 4.59925 19.6012C4.39832 19.8021 4.28544 20.0747 4.28544 20.3588V27.8588H25.714V20.3588C25.714 20.0747 25.6011 19.8021 25.4002 19.6012C25.1993 19.4003 24.9267 19.2874 24.6426 19.2874H5.35686ZM5.35686 17.1445H24.6426C25.4951 17.1445 26.3126 17.4832 26.9154 18.086C27.5182 18.6888 27.8569 19.5063 27.8569 20.3588V28.9302C27.8569 29.522 27.3772 30.0017 26.7854 30.0017H3.21401C2.62227 30.0017 2.14258 29.522 2.14258 28.9302V20.3588C2.14258 19.5063 2.48123 18.6888 3.08402 18.086C3.68682 17.4832 4.50438 17.1445 5.35686 17.1445Z" fill="inherit" stroke="none"/>
<path fill-rule="evenodd" clip-rule="evenodd" d="M3.21429 12.8577C2.93013 12.8577 2.6576 12.9706 2.45667 13.1715C2.25574 13.3724 2.14286 13.645 2.14286 13.9291V18.2148C2.14286 18.499 2.25574 18.7715 2.45667 18.9725C2.6576 19.1734 2.93013 19.2863 3.21429 19.2863C3.80602 19.2863 4.28571 19.766 4.28571 20.3577C4.28571 20.9494 3.80602 21.4291 3.21429 21.4291C2.3618 21.4291 1.54424 21.0905 0.941443 20.4877C0.338647 19.8849 0 19.0673 0 18.2148V13.9291C0 13.0766 0.338647 12.2591 0.941443 11.6563C1.54424 11.0535 2.3618 10.7148 3.21429 10.7148H26.7857C27.6382 10.7148 28.4558 11.0535 29.0586 11.6563C29.6614 12.2591 30 13.0766 30 13.9291V18.2148C30 19.0673 29.6614 19.8849 29.0586 20.4877C28.4558 21.0905 27.6382 21.4291 26.7857 21.4291C26.194 21.4291 25.7143 20.9494 25.7143 20.3577C25.7143 19.766 26.194 19.2863 26.7857 19.2863C27.0699 19.2863 27.3424 19.1734 27.5433 18.9725C27.7443 18.7715 27.8571 18.499 27.8571 18.2148V13.9291C27.8571 13.645 27.7443 13.3724 27.5433 13.1715C27.3424 12.9706 27.0699 12.8577 26.7857 12.8577H3.21429Z" fill="inherit" stroke="none"/>
<path fill-rule="evenodd" clip-rule="evenodd" d="M5.35742 1.07143C5.35742 0.479695 5.83712 0 6.42885 0H23.5717C24.1634 0 24.6431 0.479695 24.6431 1.07143V11.7857C24.6431 12.3774 24.1634 12.8571 23.5717 12.8571H6.42885C5.83712 12.8571 5.35742 12.3774 5.35742 11.7857V1.07143ZM7.50028 2.14286V10.7143H22.5003V2.14286H7.50028Z" fill="inherit" stroke="none"/>
<path fill-rule="evenodd" clip-rule="evenodd" d="M7.5 23.5714C7.5 22.9797 7.97969 22.5 8.57143 22.5H21.4286C22.0203 22.5 22.5 22.9797 22.5 23.5714C22.5 24.1632 22.0203 24.6429 21.4286 24.6429H8.57143C7.97969 24.6429 7.5 24.1632 7.5 23.5714Z" fill="inherit" stroke="none"/>
</svg>
