<svg width="28" height="31" viewBox="0 0 28 31" fill="#5DA1DE" xmlns="http://www.w3.org/2000/svg">
<path d="M23.8 30.8152H4.2C1.89 30.8152 0 28.9252 0 26.6152V16.8152C0 14.5052 1.89 12.6152 4.2 12.6152H23.8C26.11 12.6152 28 14.5052 28 16.8152V26.6152C28 28.9392 26.11 30.8152 23.8 30.8152ZM4.2 15.4152C3.43 15.4152 2.8 16.0452 2.8 16.8152V26.6152C2.8 27.3852 3.43 28.0152 4.2 28.0152H23.8C24.57 28.0152 25.2 27.3852 25.2 26.6152V16.8152C25.2 16.0452 24.57 15.4152 23.8 15.4152H4.2Z" fill="inherit" stroke="none"/>
<path d="M6.99961 15.4145C6.22961 15.4145 5.59961 14.7845 5.59961 14.0145V8.41449C5.59961 6.3285 6.36961 4.3265 7.76961 2.7725C9.16961 1.2185 11.0876 0.252495 13.1596 0.0424952C15.2316 -0.167505 17.3036 0.406495 18.9836 1.6385C20.6636 2.8705 21.8116 4.6905 22.2316 6.7345C22.3856 7.4905 21.8956 8.2325 21.1396 8.38649C20.3836 8.54049 19.6416 8.05049 19.4876 7.29449C19.2076 5.93649 18.4376 4.7325 17.3176 3.8925C16.1976 3.0665 14.8116 2.6885 13.4396 2.8285C12.0536 2.9685 10.7796 3.6125 9.84161 4.6485C8.90361 5.68449 8.39961 7.02849 8.39961 8.41449V14.0145C8.39961 14.7985 7.76961 15.4145 6.99961 15.4145Z" fill="inherit" stroke="none"/>
</svg>
