<svg width="4" height="18" viewBox="0 0 4 18" fill="none" xmlns="http://www.w3.org/2000/svg">
<path d="M2 4.00371C3.10457 4.00371 4 3.10745 4 2.00186C4 0.896261 3.10457 0 2 0C0.895431 0 0 0.896261 0 2.00186C0 3.10745 0.895431 4.00371 2 4.00371Z" fill="#CDCDCD"/>
<path d="M2 10.6756C3.10457 10.6756 4 9.77932 4 8.67373C4 7.56814 3.10457 6.67188 2 6.67188C0.895431 6.67188 0 7.56814 0 8.67373C0 9.77932 0.895431 10.6756 2 10.6756Z" fill="#CDCDCD"/>
<path d="M2 17.3475C3.10457 17.3475 4 16.4512 4 15.3456C4 14.24 3.10457 13.3438 2 13.3438C0.895431 13.3438 0 14.24 0 15.3456C0 16.4512 0.895431 17.3475 2 17.3475Z" fill="#CDCDCD"/>
</svg>
