<svg width="32" height="32" viewBox="0 0 32 32" fill="#5DA1DE" stroke="none" xmlns="http://www.w3.org/2000/svg">
<path fill-rule="evenodd" clip-rule="evenodd" d="M3.42857 2.28571C3.12547 2.28571 2.83478 2.40612 2.62045 2.62045C2.40612 2.83478 2.28571 3.12547 2.28571 3.42857V28.5714C2.28571 28.8745 2.40612 29.1652 2.62045 29.3796C2.83478 29.5939 3.12547 29.7143 3.42857 29.7143H18.2857C18.9169 29.7143 19.4286 30.226 19.4286 30.8571C19.4286 31.4883 18.9169 32 18.2857 32H3.42857C2.51926 32 1.64719 31.6388 1.00421 30.9958C0.361224 30.3528 0 29.4807 0 28.5714V3.42857C0 2.51926 0.361224 1.64719 1.00421 1.00421C1.64719 0.361224 2.51926 0 3.42857 0H20.5714C21.2026 0 21.7143 0.511675 21.7143 1.14286C21.7143 1.77404 21.2026 2.28571 20.5714 2.28571H3.42857Z" fill="inherit" stroke="none"/>
<path fill-rule="evenodd" clip-rule="evenodd" d="M27.4269 0C27.8598 0 28.2555 0.244574 28.4491 0.631756L31.8777 7.4889C31.957 7.64759 31.9983 7.82258 31.9983 8V27.4286C31.9983 28.641 31.5167 29.8038 30.6594 30.6611C29.8021 31.5184 28.6393 32 27.4269 32C26.2145 32 25.0517 31.5184 24.1944 30.6611C23.3371 29.8038 22.8555 28.641 22.8555 27.4286V8C22.8555 7.82258 22.8968 7.64759 22.9761 7.4889L26.4047 0.631756C26.5983 0.244574 26.994 0 27.4269 0ZM25.1412 8.26979V27.4286C25.1412 28.0348 25.382 28.6162 25.8107 29.0448C26.2393 29.4735 26.8207 29.7143 27.4269 29.7143C28.0331 29.7143 28.6145 29.4735 29.0431 29.0448C29.4718 28.6162 29.7126 28.0348 29.7126 27.4286V8.26979L27.4269 3.69836L25.1412 8.26979Z" fill="inherit" stroke="none"/>
<path fill-rule="evenodd" clip-rule="evenodd" d="M22.8555 21.7132C22.8555 21.082 23.3671 20.5703 23.9983 20.5703H30.8555C31.4867 20.5703 31.9983 21.082 31.9983 21.7132C31.9983 22.3444 31.4867 22.856 30.8555 22.856H23.9983C23.3671 22.856 22.8555 22.3444 22.8555 21.7132Z" fill="inherit" stroke="none"/>
<path fill-rule="evenodd" clip-rule="evenodd" d="M7.99833 0C8.62951 0 9.14118 0.511675 9.14118 1.14286V30.8571C9.14118 31.4883 8.62951 32 7.99833 32C7.36714 32 6.85547 31.4883 6.85547 30.8571V1.14286C6.85547 0.511675 7.36714 0 7.99833 0Z" fill="inherit" stroke="none"/>
<path fill-rule="evenodd" clip-rule="evenodd" d="M12.5703 9.14286C12.5703 8.51167 13.082 8 13.7132 8H18.2846C18.9158 8 19.4275 8.51167 19.4275 9.14286C19.4275 9.77404 18.9158 10.2857 18.2846 10.2857H13.7132C13.082 10.2857 12.5703 9.77404 12.5703 9.14286Z" fill="inherit" stroke="none"/>
</svg>
