<svg width="19" height="25" viewBox="0 0 19 25" fill="#364B91" stroke="none" xmlns="http://www.w3.org/2000/svg">
<path fill-rule="evenodd" clip-rule="evenodd" d="M9.5 1.82927C5.23906 1.82927 1.83871 5.14301 1.83871 9.16578C1.83871 11.6104 2.84501 13.7187 4.64009 15.0317C5.03573 15.3211 5.3742 15.7527 5.50383 16.3003C5.61021 16.7496 5.73197 17.2972 5.85257 17.8775L8.58065 17.8775V16.5574C8.58065 16.3834 8.63054 16.213 8.72448 16.0662L9.70736 14.5304L7.50207 12.8074C7.13036 12.517 7.04054 11.9935 7.29438 11.5968L8.72448 9.36216C8.99718 8.93606 9.56544 8.81055 9.99375 9.08184C10.4221 9.35313 10.5482 9.91848 10.2755 10.3446L9.29264 11.8804L11.4979 13.6034C11.8696 13.8938 11.9595 14.4173 11.7056 14.814L10.4194 16.8239V17.8775H13.1474C13.268 17.2972 13.3898 16.7496 13.4962 16.3003C13.6258 15.7527 13.9643 15.3211 14.3599 15.0317C16.155 13.7187 17.1613 11.6104 17.1613 9.16578C17.1613 5.14301 13.7609 1.82927 9.5 1.82927ZM12.7958 19.7067H6.20415C6.33949 20.4843 6.44567 21.2207 6.47782 21.7493C6.51167 22.3059 6.9298 22.8047 7.54632 22.9372L7.78655 22.9888C8.91483 23.2314 10.0852 23.2314 11.2134 22.9888L11.4537 22.9372C12.0702 22.8047 12.4883 22.3059 12.5222 21.7493C12.5543 21.2207 12.6605 20.4843 12.7958 19.7067ZM0 9.16578C0 4.07459 4.28302 0 9.5 0C14.717 0 19 4.07459 19 9.16578C19 12.1217 17.7698 14.808 15.4491 16.5055C15.3432 16.583 15.299 16.6644 15.2859 16.7196C15.1408 17.3326 14.964 18.1439 14.8028 18.967C14.5788 20.1112 14.3964 21.221 14.3575 21.8598C14.2716 23.2722 13.2272 24.4275 11.842 24.7252L11.6018 24.7769C10.2176 25.0744 8.78244 25.0744 7.39825 24.7769L7.15802 24.7252C5.77282 24.4275 4.72836 23.2722 4.64246 21.8598C4.60362 21.221 4.42121 20.1112 4.19715 18.967C4.03597 18.1439 3.8592 17.3326 3.71409 16.7196C3.70102 16.6644 3.65677 16.583 3.55092 16.5055C1.23018 14.808 0 12.1217 0 9.16578Z" fill="inherit" stroke="none"/>
</svg>
