<svg width="31" height="32" viewBox="0 0 31 32" fill="#5DA1DE" stroke="none" xmlns="http://www.w3.org/2000/svg">
<path fill-rule="evenodd" clip-rule="evenodd" d="M12.3546 26.9756C13.0278 26.5851 13.89 26.8143 14.2805 27.4874C14.4044 27.701 14.5822 27.8782 14.7961 28.0014C15.01 28.1246 15.2525 28.1895 15.4994 28.1895C15.7463 28.1895 15.9888 28.1246 16.2027 28.0014C16.4166 27.8782 16.5944 27.701 16.7183 27.4874C17.1087 26.8143 17.971 26.5851 18.6442 26.9756C19.3173 27.3661 19.5465 28.2284 19.156 28.9015C18.7844 29.5421 18.251 30.0739 17.6093 30.4435C16.9675 30.8131 16.24 31.0077 15.4994 31.0077C14.7588 31.0077 14.0312 30.8131 13.3895 30.4435C12.7478 30.0739 12.2144 29.5421 11.8428 28.9015C11.4523 28.2284 11.6815 27.3661 12.3546 26.9756Z" fill="inherit" stroke="none"/>
<path fill-rule="evenodd" clip-rule="evenodd" d="M23.9778 8.46698C24.7559 8.47943 25.3766 9.12031 25.3642 9.89843C25.3283 12.1441 25.6104 14.3835 26.2023 16.55C26.4074 17.3007 25.965 18.0756 25.2143 18.2806C24.4636 18.4857 23.6888 18.0434 23.4837 17.2927C22.8218 14.8696 22.5062 12.3649 22.5464 9.85336C22.5588 9.07524 23.1997 8.45453 23.9778 8.46698Z" fill="inherit" stroke="none"/>
<path fill-rule="evenodd" clip-rule="evenodd" d="M7.82612 6.07812C8.56981 6.30737 8.98685 7.09609 8.75761 7.83977C8.55458 8.49843 8.45214 9.18396 8.45376 9.87319L8.45377 9.87651C8.45377 15.0159 7.35054 18.4232 6.16807 20.591C6.06085 20.7876 5.95321 20.9736 5.846 21.1492H22.5447C23.3229 21.1492 23.9538 21.7801 23.9538 22.5583C23.9538 23.3365 23.3229 23.9674 22.5447 23.9674H2.8174C2.19646 23.9674 1.64871 23.561 1.46877 22.9667C1.29075 22.3787 1.51428 21.744 2.01942 21.397C2.02041 21.3962 2.02175 21.3953 2.02345 21.394C2.0343 21.3859 2.05945 21.3667 2.09697 21.3355C2.17195 21.273 2.29649 21.1621 2.45498 20.9948C2.77122 20.661 3.22648 20.0987 3.69401 19.2415C4.62507 17.5346 5.63537 14.6013 5.63559 9.87803M2.03366 21.3873C2.03377 21.3872 2.03389 21.3872 2.034 21.3871C2.03399 21.3871 2.03398 21.3871 2.03398 21.3871L2.03366 21.3873Z" fill="inherit" stroke="none"/>
<path fill-rule="evenodd" clip-rule="evenodd" d="M15.0247 0.0114592C16.8095 -0.0746398 18.5841 0.325706 20.1591 1.16973C21.734 2.01376 23.0501 3.26976 23.9668 4.80358C24.8834 6.3374 25.3662 8.09142 25.3636 9.87827C25.3624 10.6565 24.7306 11.2864 23.9524 11.2853C23.1742 11.2841 22.5443 10.6523 22.5454 9.87409C22.5473 8.59777 22.2024 7.3449 21.5477 6.24931C20.8929 5.15373 19.9529 4.25658 18.8279 3.65371C17.7029 3.05083 16.4353 2.76487 15.1605 2.82637C13.8856 2.88787 12.6514 3.29452 11.5897 4.00288C10.9424 4.43479 10.0674 4.26014 9.63553 3.61278C9.20361 2.96541 9.37827 2.09049 10.0256 1.65858C11.512 0.666868 13.2399 0.0975582 15.0247 0.0114592Z" fill="inherit" stroke="none"/>
<path fill-rule="evenodd" clip-rule="evenodd" d="M0.412713 0.424432C0.962997 -0.125852 1.85518 -0.125852 2.40547 0.424432L30.5873 28.6062C31.1376 29.1565 31.1376 30.0487 30.5873 30.599C30.037 31.1493 29.1448 31.1493 28.5945 30.599L0.412713 2.41719C-0.137571 1.8669 -0.137571 0.974716 0.412713 0.424432Z" fill="inherit" stroke="none"/>
</svg>
