<svg width="16" height="9" viewBox="0 0 16 9" fill="white" stroke="none" xmlns="http://www.w3.org/2000/svg">
<path fill-rule="evenodd" clip-rule="evenodd" d="M8.08878 6.13538L14.0698 0.327393C14.2832 0.117548 14.5705 0 14.8698 0C15.1691 0 15.4564 0.117548 15.6698 0.327393C15.7742 0.427367 15.8572 0.547486 15.914 0.68042C15.9708 0.813354 16 0.95641 16 1.10095C16 1.24549 15.9708 1.38855 15.914 1.52148C15.8572 1.65442 15.7742 1.77442 15.6698 1.87439L8.88879 8.47437C8.67564 8.68469 8.38822 8.80261 8.08878 8.80261C7.78933 8.80261 7.50194 8.68469 7.28879 8.47437L0.507782 1.87439C0.403391 1.77442 0.320303 1.65442 0.26355 1.52148C0.206796 1.38855 0.177551 1.24549 0.177551 1.10095C0.177551 0.95641 0.206796 0.813354 0.26355 0.68042C0.320303 0.547486 0.403391 0.427367 0.507782 0.327393C0.721183 0.117548 1.00848 0 1.30777 0C1.60706 0 1.89439 0.117548 2.10779 0.327393L8.08878 6.13538Z" fill="inherit" stroke="none"/>
</svg>
