<svg width="30" height="25" viewBox="0 0 30 25" fill="#2D9643" stroke="none" xmlns="http://www.w3.org/2000/svg">
<path fill-rule="evenodd" clip-rule="evenodd" d="M28.9685 1.03856C29.2397 1.31393 29.2397 1.76039 28.9685 2.03576L21.3296 9.79217C21.0584 10.0675 20.6187 10.0675 20.3475 9.79217L16.8753 6.26653C16.6041 5.99116 16.6041 5.5447 16.8753 5.26933C17.1465 4.99396 17.5862 4.99396 17.8574 5.26933L20.8385 8.29637L27.9864 1.03856C28.2576 0.763189 28.6973 0.763189 28.9685 1.03856Z" fill="inherit" stroke="none"/>
<path fill-rule="evenodd" clip-rule="evenodd" d="M15.59 2.98938C13.5816 2.33684 11.4181 2.33687 9.40974 2.98946C7.40134 3.64205 5.65108 4.9137 4.40982 6.62216C3.16856 8.33061 2.50002 10.3882 2.5 12.4999C2.49998 14.6117 3.1685 16.6693 4.40974 18.3777C5.65097 20.0862 7.40121 21.3579 9.4096 22.0105C11.418 22.6631 13.5814 22.6632 15.5899 22.0107C17.5983 21.3582 19.3486 20.0866 20.5899 18.3782C21.8313 16.6698 22.4999 14.6123 22.5 12.5005C22.5 11.8101 23.0597 11.2505 23.7501 11.2506C24.4404 11.2506 25 11.8103 25 12.5006C24.9999 15.1403 24.1641 17.7122 22.6124 19.8477C21.0607 21.9832 18.8729 23.5727 16.3623 24.3883C13.8518 25.204 11.1475 25.2039 8.637 24.3881C6.12651 23.5723 3.93872 21.9827 2.38717 19.8472C0.835626 17.7116 -1.90732e-05 15.1396 3.26505e-10 12.4999C1.90738e-05 9.86021 0.835702 7.28826 2.38728 5.1527C3.93886 3.01713 6.12667 1.42757 8.63717 0.61183C11.1477 -0.203907 13.852 -0.203944 16.3625 0.611725C17.0191 0.825045 17.3784 1.53023 17.1651 2.1868C16.9518 2.84337 16.2466 3.2027 15.59 2.98938Z" fill="inherit" stroke="none"/>
<path d="M11.9423 17.9991H12.7557V16.8124C14.8223 16.6658 15.5957 15.4124 15.5957 14.2124C15.5957 12.4658 14.129 11.9591 12.7557 11.5724V8.66578C13.5023 8.77245 14.1957 9.10578 14.729 9.69245L15.3957 8.87911C14.7423 8.19911 13.8623 7.74578 12.7557 7.65245V6.42578H11.9423V7.63911C10.3423 7.75911 9.18234 8.73245 9.18234 10.1058C9.18234 11.7458 10.5823 12.1991 11.9423 12.5724V15.8124C10.889 15.6924 10.0757 15.1591 9.56901 14.5591L8.90234 15.4124C9.56901 16.1724 10.5957 16.7324 11.9423 16.8124V17.9991ZM14.449 14.2924C14.449 14.9324 14.0223 15.6924 12.7557 15.8258V12.7858C13.689 13.0658 14.449 13.4258 14.449 14.2924ZM10.329 10.0391C10.329 9.26578 10.9957 8.70578 11.9423 8.63911V11.3591C11.0357 11.0924 10.329 10.7724 10.329 10.0391Z" fill="inherit" stroke="none"/>
</svg>
