<svg width="31" height="27" viewBox="0 0 31 27" fill="#F8812B" stroke="none" xmlns="http://www.w3.org/2000/svg">
<path fill-rule="evenodd" clip-rule="evenodd" d="M27.634 12.5912C28.4152 13.0699 29.1058 13.7531 29.5112 14.2369L30 14.8203L19.0092 27H5.78444L5.51618 26.6799L5.5156 26.6792L0 20.0967L0.338462 19.5581C2.23398 16.5419 4.67659 15.3613 7.00112 15.2031C9.12661 15.0583 11.0661 15.7722 12.305 16.5287H17.5699L17.8382 16.8489C17.9953 17.0364 18.1787 17.2701 18.367 17.5312C19.2295 16.7703 20.2542 15.8775 21.2345 15.0447C22.6446 13.8467 24.0481 12.6984 24.7112 12.3027C25.7643 11.6743 26.9154 12.1508 27.634 12.5912ZM19.2956 19.0795C19.4342 19.3816 19.5519 19.7048 19.6094 20.0238C19.6803 20.4174 19.6896 20.9876 19.2973 21.4558C19.075 21.7211 18.7632 21.867 18.5445 21.952C18.2974 22.048 18.0119 22.1239 17.7171 22.1862C17.1249 22.3115 16.3951 22.4024 15.6419 22.469C14.1299 22.6026 12.4237 22.6466 11.3124 22.6466V20.8821C12.3898 20.8821 14.0396 20.839 15.4823 20.7115C16.2065 20.6475 16.8537 20.5642 17.3422 20.4609C17.5607 20.4147 17.728 20.3685 17.8471 20.3258C17.8155 20.1567 17.7266 19.9151 17.5732 19.6164C17.3382 19.1588 17.009 18.6759 16.7157 18.2932H11.7694L11.5431 18.1432C10.5741 17.5008 8.90769 16.8419 7.12429 16.9634C5.52347 17.0724 3.74149 17.8135 2.20919 19.9638L6.62651 25.2355H18.2068L27.6124 14.8124C27.3374 14.5523 27.0169 14.2902 26.6902 14.09C26.0591 13.7032 25.7511 13.7444 25.6369 13.8125C25.1327 14.1134 23.8612 15.1417 22.4017 16.3817C21.3292 17.2928 20.2012 18.2781 19.2956 19.0795Z" fill="inherit"/>
<path d="M26.0832 11.2H27.0432V10.12C28.8432 9.964 29.6352 8.896 29.6352 7.672C29.6352 6.064 28.2912 5.596 27.0432 5.26V3.196C27.6312 3.316 28.1952 3.592 28.6512 4.036L29.4552 2.992C28.8312 2.392 28.0152 2.02 27.0432 1.912V0.784H26.0832V1.9C24.5352 2.032 23.5392 2.992 23.5392 4.216C23.5392 5.788 24.8472 6.232 26.0832 6.544V8.86C25.2072 8.728 24.5232 8.284 24.0672 7.792L23.2872 8.872C23.9112 9.556 24.8352 10.024 26.0832 10.12V11.2ZM28.2072 7.804C28.2072 8.26 27.8712 8.74 27.0432 8.872V6.796C27.7032 7 28.2072 7.264 28.2072 7.804ZM24.9792 4.12C24.9792 3.592 25.3992 3.208 26.0832 3.136V5.008C25.4472 4.828 24.9792 4.588 24.9792 4.12Z" fill="inherit" stroke="none"/>
</svg>
