<svg width="27" height="27" viewBox="0 0 27 27" fill="#C2383A" stroke="none" xmlns="http://www.w3.org/2000/svg">
<rect width="27" height="27" rx="13.5" fill="inherit" stroke="none"/>
<path fill-rule="evenodd" clip-rule="evenodd" d="M10.6154 13.5C10.6154 11.8125 11.9069 10.4444 13.5 10.4444C15.0931 10.4444 16.3846 11.8125 16.3846 13.5C16.3846 15.1875 15.0931 16.5556 13.5 16.5556C11.9069 16.5556 10.6154 15.1875 10.6154 13.5ZM13.5 11.6667C12.5441 11.6667 11.7692 12.4875 11.7692 13.5C11.7692 14.5125 12.5441 15.3333 13.5 15.3333C14.4559 15.3333 15.2308 14.5125 15.2308 13.5C15.2308 12.4875 14.4559 11.6667 13.5 11.6667Z" fill="white" stroke="none"/>
<path fill-rule="evenodd" clip-rule="evenodd" d="M7.59494 12.397C7.27255 12.8891 7.15385 13.2741 7.15385 13.5C7.15385 13.7259 7.27255 14.1109 7.59494 14.603C7.90659 15.0787 8.36983 15.5943 8.9559 16.0708C10.1306 17.0258 11.7411 17.7778 13.5 17.7778C15.2589 17.7778 16.8694 17.0258 18.0441 16.0708C18.6302 15.5943 19.0934 15.0787 19.4051 14.603C19.7275 14.1109 19.8462 13.7259 19.8462 13.5C19.8462 13.2741 19.7275 12.8891 19.4051 12.397C19.0934 11.9213 18.6302 11.4057 18.0441 10.9292C16.8694 9.97423 15.2589 9.22222 13.5 9.22222C11.7411 9.22222 10.1306 9.97423 8.9559 10.9292C8.36983 11.4057 7.90659 11.9213 7.59494 12.397ZM8.25339 9.95966C9.58435 8.87762 11.4354 8 13.5 8C15.5646 8 17.4157 8.87762 18.7466 9.95966C19.4134 10.5017 19.964 11.1064 20.353 11.7002C20.7313 12.2775 21 12.9111 21 13.5C21 14.0889 20.7313 14.7225 20.353 15.2998C19.964 15.8936 19.4134 16.4983 18.7466 17.0403C17.4157 18.1224 15.5646 19 13.5 19C11.4354 19 9.58435 18.1224 8.25339 17.0403C7.58663 16.4983 7.03601 15.8936 6.647 15.2998C6.26875 14.7225 6 14.0889 6 13.5C6 12.9111 6.26875 12.2775 6.647 11.7002C7.03601 11.1064 7.58663 10.5017 8.25339 9.95966Z" fill="white" stroke="none"/>
</svg>
