<svg width="31" height="31" viewBox="0 0 31 31" fill="#5DA1DE" stroke="none" xmlns="http://www.w3.org/2000/svg">
<path fill-rule="evenodd" clip-rule="evenodd" d="M6.96713 0.324275C7.17476 0.116645 7.45637 0 7.75 0H27.6786C28.5595 0 29.4043 0.349935 30.0272 0.972824C30.6501 1.59571 31 2.44053 31 3.32143V27.6786C31 28.5595 30.6501 29.4043 30.0272 30.0272C29.4043 30.6501 28.5595 31 27.6786 31H3.32143C2.44053 31 1.59571 30.6501 0.972824 30.0272C0.349935 29.4043 0 28.5595 0 27.6786V7.75C0 7.45637 0.116645 7.17476 0.324275 6.96713L6.96713 0.324275ZM8.20859 2.21429L2.21429 8.20859V27.6786C2.21429 27.9722 2.33093 28.2538 2.53856 28.4614C2.74619 28.6691 3.0278 28.7857 3.32143 28.7857H27.6786C27.9722 28.7857 28.2538 28.6691 28.4614 28.4614C28.6691 28.2538 28.7857 27.9722 28.7857 27.6786V3.32143C28.7857 3.0278 28.6691 2.74619 28.4614 2.53856C28.2538 2.33093 27.9722 2.21429 27.6786 2.21429H8.20859Z" fill="inherit" stroke="none"/>
<path fill-rule="evenodd" clip-rule="evenodd" d="M6.64258 18.822C6.64258 18.2105 7.13826 17.7148 7.74972 17.7148H23.2497C23.8612 17.7148 24.3569 18.2105 24.3569 18.822V29.8934C24.3569 30.5049 23.8612 31.0006 23.2497 31.0006H7.74972C7.13826 31.0006 6.64258 30.5049 6.64258 29.8934V18.822ZM8.85686 19.9291V28.7863H22.1426V19.9291H8.85686Z" fill="inherit" stroke="none"/>
<path fill-rule="evenodd" clip-rule="evenodd" d="M8.85742 1.10714C8.85742 0.495685 9.35311 0 9.96456 0H23.2503C23.8617 0 24.3574 0.495685 24.3574 1.10714V9.96429C24.3574 10.5757 23.8617 11.0714 23.2503 11.0714H9.96456C9.35311 11.0714 8.85742 10.5757 8.85742 9.96429V1.10714ZM11.0717 2.21429V8.85714H22.1431V2.21429H11.0717Z" fill="inherit" stroke="none"/>
</svg>
