<svg width="22" height="18" viewBox="0 0 22 18" fill="#364B91" stroke="#364B91" xmlns="http://www.w3.org/2000/svg">
    <mask id="path-1-outside-1_3099_1245" maskUnits="userSpaceOnUse" x="0" y="0" width="22" height="18" fill="black" stroke="none">
    <rect fill="white" stroke="none" width="22" height="18"/>
    <path d="M19.7972 7.00981C19.2239 6.98986 18.6493 6.99342 18.076 7.0041C17.8645 7.00838 17.7963 6.93642 17.8004 6.72057C17.8114 6.17487 17.8094 5.62917 17.8018 5.08347C17.7839 3.79402 17.0156 3.00539 15.7733 3.00255C13.5354 2.99827 11.2981 2.99115 9.06019 3.00397C8.66125 3.00682 8.37738 2.86718 8.16447 2.53378C8.03769 2.33644 7.90747 2.14125 7.77449 1.9489C7.35005 1.33481 6.82295 0.968632 6.04229 1.00212C4.9998 1.047 3.9518 1.06054 2.91069 1.00711C1.81652 0.950827 0.986948 1.9318 1.00624 3.01608C1.01795 3.69215 1.00692 4.36821 1.00692 5.04428C1.00623 8.31919 1.01726 11.5941 1.00003 14.8683C0.994521 15.9611 1.66907 17.0354 3.04091 16.9991C5.44904 16.9357 7.85992 16.9813 10.2694 16.9813V16.9784C12.7602 16.9784 15.2504 16.9713 17.7405 16.9849C18.2373 16.9877 18.6272 16.7989 18.9676 16.4563C19.6752 15.7431 20.0825 14.8384 20.4249 13.9066C20.9644 12.4419 21.331 10.9259 21.6135 9.38639C21.8457 8.12187 21.0457 7.05326 19.7972 7.00981ZM2.49314 14.884C2.46421 14.9823 2.47178 15.0998 2.31882 15.1967C2.31262 15.0621 2.30297 14.9581 2.30297 14.8541C2.30297 10.975 2.30229 7.09601 2.30435 3.21627C2.30504 2.46753 2.44973 2.32007 3.16976 2.31722C4.11096 2.31366 5.05148 2.32149 5.99268 2.31366C6.29516 2.31081 6.52185 2.42194 6.68652 2.6841C6.79952 2.86292 6.93664 3.02464 7.04344 3.2063C7.51473 4.00989 8.18652 4.36395 9.10774 4.344C10.7593 4.30767 12.4116 4.33402 14.0639 4.33473C14.6378 4.33473 15.2118 4.33046 15.785 4.33759C16.2956 4.344 16.4975 4.55202 16.5037 5.0735C16.5106 5.59569 16.4878 6.1186 16.5126 6.63936C16.5278 6.94854 16.4155 7.00695 16.1406 7.00624C13.3411 6.99627 10.5416 6.99984 7.74142 6.99984C7.40862 7.00055 7.0765 7.00481 6.74371 7.00481C5.42768 7.00481 4.47201 7.95802 4.19364 8.99385C3.6631 10.9679 3.06434 12.922 2.49314 14.884ZM20.3105 9.27454C19.9571 11.0783 19.5071 12.8529 18.7354 14.5235C18.6955 14.609 18.6507 14.6916 18.6114 14.7778C18.3144 15.4268 17.8824 15.7203 17.1273 15.699C15.0168 15.6391 12.9036 15.6783 10.7917 15.6783V15.6812C8.51862 15.6812 6.24624 15.6755 3.97316 15.6876C3.66379 15.6897 3.63898 15.6028 3.72097 15.3235C4.30044 13.3516 4.86544 11.374 5.43664 9.39921C5.64403 8.68324 6.07536 8.34271 6.80365 8.34199C11.0625 8.33986 15.3206 8.34057 19.5795 8.34413C20.254 8.34413 20.4456 8.58422 20.3105 9.27454Z"/>
    </mask>
    <path d="M19.7972 7.00981C19.2239 6.98986 18.6493 6.99342 18.076 7.0041C17.8645 7.00838 17.7963 6.93642 17.8004 6.72057C17.8114 6.17487 17.8094 5.62917 17.8018 5.08347C17.7839 3.79402 17.0156 3.00539 15.7733 3.00255C13.5354 2.99827 11.2981 2.99115 9.06019 3.00397C8.66125 3.00682 8.37738 2.86718 8.16447 2.53378C8.03769 2.33644 7.90747 2.14125 7.77449 1.9489C7.35005 1.33481 6.82295 0.968632 6.04229 1.00212C4.9998 1.047 3.9518 1.06054 2.91069 1.00711C1.81652 0.950827 0.986948 1.9318 1.00624 3.01608C1.01795 3.69215 1.00692 4.36821 1.00692 5.04428C1.00623 8.31919 1.01726 11.5941 1.00003 14.8683C0.994521 15.9611 1.66907 17.0354 3.04091 16.9991C5.44904 16.9357 7.85992 16.9813 10.2694 16.9813V16.9784C12.7602 16.9784 15.2504 16.9713 17.7405 16.9849C18.2373 16.9877 18.6272 16.7989 18.9676 16.4563C19.6752 15.7431 20.0825 14.8384 20.4249 13.9066C20.9644 12.4419 21.331 10.9259 21.6135 9.38639C21.8457 8.12187 21.0457 7.05326 19.7972 7.00981ZM2.49314 14.884C2.46421 14.9823 2.47178 15.0998 2.31882 15.1967C2.31262 15.0621 2.30297 14.9581 2.30297 14.8541C2.30297 10.975 2.30229 7.09601 2.30435 3.21627C2.30504 2.46753 2.44973 2.32007 3.16976 2.31722C4.11096 2.31366 5.05148 2.32149 5.99268 2.31366C6.29516 2.31081 6.52185 2.42194 6.68652 2.6841C6.79952 2.86292 6.93664 3.02464 7.04344 3.2063C7.51473 4.00989 8.18652 4.36395 9.10774 4.344C10.7593 4.30767 12.4116 4.33402 14.0639 4.33473C14.6378 4.33473 15.2118 4.33046 15.785 4.33759C16.2956 4.344 16.4975 4.55202 16.5037 5.0735C16.5106 5.59569 16.4878 6.1186 16.5126 6.63936C16.5278 6.94854 16.4155 7.00695 16.1406 7.00624C13.3411 6.99627 10.5416 6.99984 7.74142 6.99984C7.40862 7.00055 7.0765 7.00481 6.74371 7.00481C5.42768 7.00481 4.47201 7.95802 4.19364 8.99385C3.6631 10.9679 3.06434 12.922 2.49314 14.884ZM20.3105 9.27454C19.9571 11.0783 19.5071 12.8529 18.7354 14.5235C18.6955 14.609 18.6507 14.6916 18.6114 14.7778C18.3144 15.4268 17.8824 15.7203 17.1273 15.699C15.0168 15.6391 12.9036 15.6783 10.7917 15.6783V15.6812C8.51862 15.6812 6.24624 15.6755 3.97316 15.6876C3.66379 15.6897 3.63898 15.6028 3.72097 15.3235C4.30044 13.3516 4.86544 11.374 5.43664 9.39921C5.64403 8.68324 6.07536 8.34271 6.80365 8.34199C11.0625 8.33986 15.3206 8.34057 19.5795 8.34413C20.254 8.34413 20.4456 8.58422 20.3105 9.27454Z" fill="inherit" stroke="none"/>
    <path d="M19.7972 7.00981C19.2239 6.98986 18.6493 6.99342 18.076 7.0041C17.8645 7.00838 17.7963 6.93642 17.8004 6.72057C17.8114 6.17487 17.8094 5.62917 17.8018 5.08347C17.7839 3.79402 17.0156 3.00539 15.7733 3.00255C13.5354 2.99827 11.2981 2.99115 9.06019 3.00397C8.66125 3.00682 8.37738 2.86718 8.16447 2.53378C8.03769 2.33644 7.90747 2.14125 7.77449 1.9489C7.35005 1.33481 6.82295 0.968632 6.04229 1.00212C4.9998 1.047 3.9518 1.06054 2.91069 1.00711C1.81652 0.950827 0.986948 1.9318 1.00624 3.01608C1.01795 3.69215 1.00692 4.36821 1.00692 5.04428C1.00623 8.31919 1.01726 11.5941 1.00003 14.8683C0.994521 15.9611 1.66907 17.0354 3.04091 16.9991C5.44904 16.9357 7.85992 16.9813 10.2694 16.9813V16.9784C12.7602 16.9784 15.2504 16.9713 17.7405 16.9849C18.2373 16.9877 18.6272 16.7989 18.9676 16.4563C19.6752 15.7431 20.0825 14.8384 20.4249 13.9066C20.9644 12.4419 21.331 10.9259 21.6135 9.38639C21.8457 8.12187 21.0457 7.05326 19.7972 7.00981ZM2.49314 14.884C2.46421 14.9823 2.47178 15.0998 2.31882 15.1967C2.31262 15.0621 2.30297 14.9581 2.30297 14.8541C2.30297 10.975 2.30229 7.09601 2.30435 3.21627C2.30504 2.46753 2.44973 2.32007 3.16976 2.31722C4.11096 2.31366 5.05148 2.32149 5.99268 2.31366C6.29516 2.31081 6.52185 2.42194 6.68652 2.6841C6.79952 2.86292 6.93664 3.02464 7.04344 3.2063C7.51473 4.00989 8.18652 4.36395 9.10774 4.344C10.7593 4.30767 12.4116 4.33402 14.0639 4.33473C14.6378 4.33473 15.2118 4.33046 15.785 4.33759C16.2956 4.344 16.4975 4.55202 16.5037 5.0735C16.5106 5.59569 16.4878 6.1186 16.5126 6.63936C16.5278 6.94854 16.4155 7.00695 16.1406 7.00624C13.3411 6.99627 10.5416 6.99984 7.74142 6.99984C7.40862 7.00055 7.0765 7.00481 6.74371 7.00481C5.42768 7.00481 4.47201 7.95802 4.19364 8.99385C3.6631 10.9679 3.06434 12.922 2.49314 14.884ZM20.3105 9.27454C19.9571 11.0783 19.5071 12.8529 18.7354 14.5235C18.6955 14.609 18.6507 14.6916 18.6114 14.7778C18.3144 15.4268 17.8824 15.7203 17.1273 15.699C15.0168 15.6391 12.9036 15.6783 10.7917 15.6783V15.6812C8.51862 15.6812 6.24624 15.6755 3.97316 15.6876C3.66379 15.6897 3.63898 15.6028 3.72097 15.3235C4.30044 13.3516 4.86544 11.374 5.43664 9.39921C5.64403 8.68324 6.07536 8.34271 6.80365 8.34199C11.0625 8.33986 15.3206 8.34057 19.5795 8.34413C20.254 8.34413 20.4456 8.58422 20.3105 9.27454Z" stroke="inherit" fill="none" stroke-width="0.4" mask="url(#path-1-outside-1_3099_1245)"/>
    </svg>
    