<svg width="24" height="24" viewBox="0 0 24 24" fill="none" xmlns="http://www.w3.org/2000/svg">
<rect width="24" height="24" fill="#E5E5E5"/>
<rect width="1440" height="1455" transform="translate(-1250 -311)" fill="white"/>
<path d="M190 -121.297H-1194V1040H190V-121.297Z" fill="#F3F6F8"/>
<rect x="-1194" y="-163" width="1384" height="402" fill="#F3F6F8"/>
<rect x="-1194" y="-163" width="1384" height="221" fill="#F3F6F8"/>
<g filter="url(#filter0_d_221_1237)">
<path d="M118 -213H-1120C-1124.42 -213 -1128 -209.418 -1128 -205V124C-1128 128.418 -1124.42 132 -1120 132H118C122.418 132 126 128.418 126 124V-205C126 -209.418 122.418 -213 118 -213Z" fill="white"/>
</g>
<path d="M-1098 10L5.99995 10" stroke="#D9D9D9"/>
<path d="M12 24C18.6274 24 24 18.6274 24 12C24 5.37258 18.6274 0 12 0C5.37258 0 0 5.37258 0 12C0 18.6274 5.37258 24 12 24Z" fill="url(#paint0_linear_221_1237)"/>
<path d="M17.2493 9.08464H6.74935C6.59464 9.08464 6.44627 9.02318 6.33687 8.91378C6.22747 8.80438 6.16602 8.65601 6.16602 8.5013C6.16602 8.34659 6.22747 8.19822 6.33687 8.08882C6.44627 7.97943 6.59464 7.91797 6.74935 7.91797L17.2493 7.91797C17.4041 7.91797 17.5524 7.97943 17.6618 8.08882C17.7712 8.19822 17.8327 8.34659 17.8327 8.5013C17.8327 8.65601 17.7712 8.80438 17.6618 8.91378C17.5524 9.02318 17.4041 9.08464 17.2493 9.08464ZM12.5827 11.418H6.74935C6.59464 11.418 6.44627 11.3565 6.33687 11.2471C6.22747 11.1377 6.16602 10.9893 6.16602 10.8346C6.16602 10.6799 6.22747 10.5316 6.33687 10.4222C6.44627 10.3128 6.59464 10.2513 6.74935 10.2513H12.5827C12.7374 10.2513 12.8858 10.3128 12.9952 10.4222C13.1046 10.5316 13.166 10.6799 13.166 10.8346C13.166 10.9893 13.1046 11.1377 12.9952 11.2471C12.8858 11.3565 12.7374 11.418 12.5827 11.418ZM17.2493 16.0846H6.74935C6.59464 16.0846 6.44627 16.0232 6.33687 15.9138C6.22747 15.8044 6.16602 15.656 6.16602 15.5013C6.16602 15.3466 6.22747 15.1982 6.33687 15.0888C6.44627 14.9794 6.59464 14.918 6.74935 14.918H17.2493C17.4041 14.918 17.5524 14.9794 17.6618 15.0888C17.7712 15.1982 17.8327 15.3466 17.8327 15.5013C17.8327 15.656 17.7712 15.8044 17.6618 15.9138C17.5524 16.0232 17.4041 16.0846 17.2493 16.0846ZM12.5827 13.7513H6.74935C6.59464 13.7513 6.44627 13.6898 6.33687 13.5804C6.22747 13.4711 6.16602 13.3227 6.16602 13.168C6.16602 13.0133 6.22747 12.8649 6.33687 12.7555C6.44627 12.6461 6.59464 12.5846 6.74935 12.5846H12.5827C12.7374 12.5846 12.8858 12.6461 12.9952 12.7555C13.1046 12.8649 13.166 13.0133 13.166 13.168C13.166 13.3227 13.1046 13.4711 12.9952 13.5804C12.8858 13.6898 12.7374 13.7513 12.5827 13.7513Z" fill="white"/>
<path d="M16.0833 13.5563C16.0067 13.5564 15.9308 13.5413 15.86 13.512C15.7892 13.4827 15.7249 13.4398 15.6707 13.3856C15.6166 13.3314 15.5736 13.2671 15.5443 13.1963C15.515 13.1255 15.4999 13.0496 15.5 12.973V11.0287C15.4999 10.9178 15.5315 10.8092 15.591 10.7157C15.6505 10.6221 15.7354 10.5474 15.8358 10.5004C15.9363 10.4533 16.048 10.4359 16.158 10.4501C16.268 10.4644 16.3716 10.5097 16.4567 10.5807L17.6234 11.5528C17.6891 11.6075 17.742 11.676 17.7782 11.7535C17.8145 11.8309 17.8333 11.9154 17.8333 12.0009C17.8333 12.0864 17.8145 12.1708 17.7782 12.2482C17.742 12.3257 17.6891 12.3942 17.6234 12.4489L16.4567 13.421C16.352 13.5085 16.2198 13.5564 16.0833 13.5563Z" fill="white"/>
<rect x="-3389.5" y="-1225.5" width="6391" height="3794" stroke="black" stroke-width="37"/>
<defs>
<filter id="filter0_d_221_1237" x="-1143" y="-228" width="1284" height="375" filterUnits="userSpaceOnUse" color-interpolation-filters="sRGB">
<feFlood flood-opacity="0" result="BackgroundImageFix"/>
<feColorMatrix in="SourceAlpha" type="matrix" values="0 0 0 0 0 0 0 0 0 0 0 0 0 0 0 0 0 0 127 0" result="hardAlpha"/>
<feOffset/>
<feGaussianBlur stdDeviation="7.5"/>
<feComposite in2="hardAlpha" operator="out"/>
<feColorMatrix type="matrix" values="0 0 0 0 0 0 0 0 0 0 0 0 0 0 0 0 0 0 0.06 0"/>
<feBlend mode="normal" in2="BackgroundImageFix" result="effect1_dropShadow_221_1237"/>
<feBlend mode="normal" in="SourceGraphic" in2="effect1_dropShadow_221_1237" result="shape"/>
</filter>
<linearGradient id="paint0_linear_221_1237" x1="8" y1="8.4" x2="18" y2="24" gradientUnits="userSpaceOnUse">
<stop stop-color="#5DA1DE"/>
<stop offset="1" stop-color="#1A5D99"/>
</linearGradient>
</defs>
</svg>
