<svg width="24" height="24" viewBox="0 0 24 24" fill="none" xmlns="http://www.w3.org/2000/svg">
<rect width="24" height="24" fill="#E5E5E5"/>
<rect width="1440" height="1455" transform="translate(-1112 -311)" fill="white"/>
<path d="M328 -121.297H-1056V1040H328V-121.297Z" fill="#F3F6F8"/>
<rect x="-1056" y="-163" width="1384" height="402" fill="#F3F6F8"/>
<rect x="-1056" y="-163" width="1384" height="221" fill="#F3F6F8"/>
<g filter="url(#filter0_d_221_1237)">
<path d="M256 -213H-982C-986.418 -213 -990 -209.418 -990 -205V124C-990 128.418 -986.418 132 -982 132H256C260.418 132 264 128.418 264 124V-205C264 -209.418 260.418 -213 256 -213Z" fill="white"/>
</g>
<path d="M-960 10L144 10" stroke="#D9D9D9"/>
<path d="M12 24C18.6274 24 24 18.6274 24 12C24 5.37258 18.6274 0 12 0C5.37258 0 0 5.37258 0 12C0 18.6274 5.37258 24 12 24Z" fill="url(#paint0_linear_221_1237)"/>
<path d="M15.3926 5.87826C14.7795 5.37398 14.0615 5.01294 13.2911 4.82148C12.5206 4.63003 11.7172 4.61298 10.9393 4.77159C9.90356 4.9808 8.9533 5.49297 8.2091 6.24311C7.4649 6.99325 6.96029 7.94754 6.75931 8.98492C6.61254 9.76274 6.63921 10.5634 6.83742 11.3297C7.03562 12.096 7.40048 12.8091 7.90598 13.4183C8.3751 13.9476 8.644 14.6246 8.66598 15.3316V17.3316C8.66598 17.862 8.87669 18.3707 9.25176 18.7458C9.62684 19.1209 10.1355 19.3316 10.666 19.3316H13.3326C13.8631 19.3316 14.3718 19.1209 14.7469 18.7458C15.1219 18.3707 15.3326 17.862 15.3326 17.3316V15.4583C15.355 14.6777 15.6418 13.9279 16.146 13.3316C17.0294 12.2388 17.4458 10.8415 17.3048 9.44334C17.1637 8.04521 16.4765 6.75925 15.3926 5.86492V5.87826ZM13.9993 17.3316C13.9993 17.5084 13.9291 17.678 13.804 17.803C13.679 17.928 13.5095 17.9983 13.3326 17.9983H10.666C10.4892 17.9983 10.3196 17.928 10.1946 17.803C10.0695 17.678 9.99931 17.5084 9.99931 17.3316V16.6649H13.9993V17.3316ZM15.1126 12.5049C14.4423 13.3 14.0512 14.2929 13.9993 15.3316H12.666V13.3316C12.666 13.1548 12.5957 12.9852 12.4707 12.8602C12.3457 12.7352 12.1761 12.6649 11.9993 12.6649C11.8225 12.6649 11.6529 12.7352 11.5279 12.8602C11.4029 12.9852 11.3326 13.1548 11.3326 13.3316V15.3316H9.99931C9.98172 14.3103 9.60394 13.3281 8.93264 12.5583C8.48974 12.0276 8.1919 11.3912 8.06818 10.7112C7.94446 10.0311 7.99908 9.3306 8.2267 8.67794C8.45433 8.02528 8.84719 7.44275 9.36699 6.98714C9.88679 6.53153 10.5158 6.21839 11.1926 6.07825C11.7743 5.95848 12.3754 5.96975 12.9522 6.11123C13.529 6.25272 14.0671 6.52087 14.5273 6.89622C14.9876 7.27158 15.3585 7.74471 15.6131 8.28127C15.8677 8.81783 15.9996 9.40435 15.9993 9.99826C16.0042 10.9115 15.6907 11.7979 15.1126 12.5049V12.5049Z" fill="white"/>
<rect x="-3251.5" y="-1225.5" width="6391" height="3794" stroke="black" stroke-width="37"/>
<defs>
<filter id="filter0_d_221_1237" x="-1005" y="-228" width="1284" height="375" filterUnits="userSpaceOnUse" color-interpolation-filters="sRGB">
<feFlood flood-opacity="0" result="BackgroundImageFix"/>
<feColorMatrix in="SourceAlpha" type="matrix" values="0 0 0 0 0 0 0 0 0 0 0 0 0 0 0 0 0 0 127 0" result="hardAlpha"/>
<feOffset/>
<feGaussianBlur stdDeviation="7.5"/>
<feComposite in2="hardAlpha" operator="out"/>
<feColorMatrix type="matrix" values="0 0 0 0 0 0 0 0 0 0 0 0 0 0 0 0 0 0 0.06 0"/>
<feBlend mode="normal" in2="BackgroundImageFix" result="effect1_dropShadow_221_1237"/>
<feBlend mode="normal" in="SourceGraphic" in2="effect1_dropShadow_221_1237" result="shape"/>
</filter>
<linearGradient id="paint0_linear_221_1237" x1="8" y1="8.4" x2="18" y2="24" gradientUnits="userSpaceOnUse">
<stop stop-color="#9375B8"/>
<stop offset="1" stop-color="#4F2584"/>
</linearGradient>
</defs>
</svg>
