<svg width="30" height="32" viewBox="0 0 30 32" fill="#76B8F5" stroke="none" xmlns="http://www.w3.org/2000/svg">
<path fill-rule="evenodd" clip-rule="evenodd" d="M4.65455 0.581818C4.92924 0.215555 5.36035 0 5.81818 0H23.2727C23.7306 0 24.1617 0.215555 24.4364 0.581818L28.8 6.4C28.9888 6.65178 29.0909 6.95801 29.0909 7.27273V27.6364C29.0909 28.7937 28.6312 29.9036 27.8128 30.7219C26.9945 31.5403 25.8846 32 24.7273 32H4.36364C3.20633 32 2.09642 31.5403 1.27808 30.7219C0.459739 29.9036 0 28.7937 0 27.6364V7.27273C0 6.95801 0.102077 6.65178 0.290909 6.4L4.65455 0.581818ZM6.54545 2.90909L2.90909 7.75758V27.6364C2.90909 28.0221 3.06234 28.3921 3.33512 28.6649C3.6079 28.9377 3.97787 29.0909 4.36364 29.0909H24.7273C25.113 29.0909 25.483 28.9377 25.7558 28.6649C26.0286 28.3921 26.1818 28.0221 26.1818 27.6364V7.75758L22.5455 2.90909H6.54545Z" fill="inherit" stroke="none"/>
<path fill-rule="evenodd" clip-rule="evenodd" d="M0 7.2729C0 6.46958 0.651222 5.81836 1.45455 5.81836H27.6364C28.4397 5.81836 29.0909 6.46958 29.0909 7.2729C29.0909 8.07623 28.4397 8.72745 27.6364 8.72745H1.45455C0.651222 8.72745 0 8.07623 0 7.2729Z" fill="inherit" stroke="none"/>
<path fill-rule="evenodd" clip-rule="evenodd" d="M8.72798 11.6367C9.53131 11.6367 10.1825 12.2879 10.1825 13.0913C10.1825 14.2486 10.6423 15.3585 11.4606 16.1768C12.2789 16.9952 13.3889 17.4549 14.5462 17.4549C15.7035 17.4549 16.8134 16.9952 17.6317 16.1768C18.4501 15.3585 18.9098 14.2486 18.9098 13.0913C18.9098 12.2879 19.561 11.6367 20.3643 11.6367C21.1677 11.6367 21.8189 12.2879 21.8189 13.0913C21.8189 15.0201 21.0527 16.87 19.6888 18.2339C18.3249 19.5978 16.475 20.364 14.5462 20.364C12.6173 20.364 10.7675 19.5978 9.40357 18.2339C8.03967 16.87 7.27344 15.0201 7.27344 13.0913C7.27344 12.2879 7.92466 11.6367 8.72798 11.6367Z" fill="inherit" stroke="none"/>
</svg>
