<svg width="16" height="15" viewBox="0 0 16 15" fill="none" xmlns="http://www.w3.org/2000/svg">
<g clip-path="url(#clip0_394_171)">
<path d="M-0.000107288 7.82227C0.00739288 7.83486 0.0180173 7.84687 0.0220799 7.86035C0.18958 8.44922 0.606143 8.75185 1.25645 8.75215C2.77177 8.75303 4.28708 8.75215 5.80239 8.75215C5.90646 8.75215 6.01083 8.75303 6.11489 8.75215C6.83458 8.74453 7.33021 8.28105 7.33521 7.60693C7.33864 7.1335 7.33583 6.65977 7.33583 6.18633C7.33583 4.56563 7.33583 2.94492 7.33583 1.32393C7.33583 0.547852 7.11802 0.257227 6.34364 0H0.968643C0.698643 0.0793945 0.43083 0.175781 0.270205 0.404883C0.156143 0.56748 0.0883303 0.759082 -0.000107288 0.9375V7.82227ZM0.999893 4.38135C0.999893 3.31729 0.999893 2.25352 0.999893 1.18945C0.999893 0.973828 1.03958 0.9375 1.27427 0.9375C2.87239 0.9375 4.47052 0.9375 6.06864 0.9375C6.28927 0.9375 6.33521 0.979102 6.33521 1.18389C6.33552 3.31172 6.33552 5.43955 6.33521 7.56738C6.33521 7.76982 6.28646 7.81465 6.06614 7.81465C4.46802 7.81494 2.86989 7.81494 1.27177 7.81465C1.04271 7.81465 0.99958 7.77363 0.99958 7.5583C0.99958 6.49922 0.99958 5.44014 0.99958 4.38105L0.999893 4.38135Z" fill="black"/>
<path d="M16 7.17773C15.9766 7.1083 15.9556 7.03799 15.9291 6.96972C15.7634 6.54228 15.3459 6.25312 14.8369 6.25078C13.1706 6.24375 11.5041 6.2417 9.83781 6.25078C9.14406 6.25459 8.66594 6.73916 8.66469 7.40742C8.66219 8.65224 8.66406 9.89707 8.66406 11.1419C8.66406 11.9815 8.66406 12.8212 8.66406 13.6608C8.66406 14.4524 8.87531 14.7375 9.65625 14.9994H15C15.3687 14.9171 15.6741 14.7486 15.8563 14.4252C15.9156 14.3194 15.9528 14.2028 16 14.0912C16 11.7864 16 9.48193 16 7.17715V7.17773ZM15 10.6145C15 11.6786 15 12.7424 15 13.8064C15 14.0253 14.9606 14.0625 14.73 14.0625C13.1319 14.0625 11.5338 14.0625 9.93563 14.0625C9.70781 14.0625 9.66437 14.0218 9.66437 13.8053C9.66437 11.6871 9.66437 9.56924 9.66437 7.45107C9.66437 7.22637 9.70781 7.18535 9.945 7.18535C11.5378 7.18535 13.1309 7.18535 14.7237 7.18535C14.9606 7.18535 15 7.22402 15 7.45224C15 8.50635 15 9.56045 15 10.6148V10.6145Z" fill="black"/>
<path d="M9.65607 0C9.46201 0.0884766 9.24764 0.151465 9.07826 0.270996C8.7867 0.47666 8.66576 0.77959 8.66482 1.11885C8.66232 2.04141 8.65764 2.96396 8.66607 3.88652C8.67201 4.5293 9.16732 4.99717 9.85357 5.0001C11.5042 5.00713 13.1545 5.00537 14.8051 5.00068C15.3926 4.99893 15.8258 4.66963 15.9711 4.13965C15.9773 4.1165 15.9898 4.09482 15.9995 4.07227C15.9995 3.01758 15.9995 1.96289 15.9995 0.908203C15.9804 0.858984 15.9598 0.810059 15.9423 0.760547C15.8364 0.463184 15.6351 0.243164 15.3323 0.10957C15.2351 0.0667969 15.1317 0.0360352 15.0311 0C13.2395 0 11.4476 0 9.65607 0ZM12.3251 0.9375C13.137 0.9375 13.9489 0.937207 14.7608 0.9375C14.9498 0.9375 14.9995 0.984668 14.9995 1.16367C15.0001 2.05166 15.0001 2.93965 14.9995 3.82764C14.9995 4.01572 14.9504 4.06406 14.7536 4.06406C13.1401 4.06465 11.5267 4.06465 9.91357 4.06406C9.71607 4.06406 9.66451 4.01455 9.6642 3.82793C9.66326 2.94492 9.66326 2.06162 9.6642 1.17861C9.6642 0.982031 9.71264 0.937207 9.92045 0.937207C10.722 0.936914 11.5236 0.937207 12.3248 0.937207L12.3251 0.9375Z" fill="black"/>
<path d="M6.34372 15C6.45528 14.9619 6.57247 14.9341 6.67747 14.8843C7.10122 14.683 7.32685 14.3511 7.33185 13.9102C7.34216 12.968 7.3456 12.0258 7.33122 11.0836C7.32153 10.4514 6.81341 10.0017 6.12997 9.99873C4.93247 9.99375 3.73466 9.99727 2.53716 9.99727C2.11028 9.99727 1.6831 9.99639 1.25622 9.99727C0.605596 9.99873 0.189657 10.3002 0.0221572 10.8891C0.0184073 10.9025 0.00747013 10.9146 -3.00407e-05 10.9272V14.0619C0.0815325 14.2324 0.14247 14.4155 0.249657 14.5702C0.422157 14.8187 0.701532 14.93 0.99997 14.9994H6.34372V15ZM3.67091 14.0625C2.86935 14.0625 2.06778 14.0625 1.26653 14.0625C1.04278 14.0625 1.00028 14.0235 1.00028 13.8176C0.99997 12.9393 1.00028 12.0609 1.00028 11.1829C1.00028 10.979 1.04622 10.9356 1.26622 10.9356C2.86934 10.9354 4.47216 10.9354 6.07528 10.9356C6.28466 10.9356 6.3356 10.9825 6.33591 11.1756C6.33685 12.0586 6.33685 12.9419 6.33591 13.8249C6.33591 14.0183 6.28622 14.0625 6.0756 14.0628C5.27403 14.0631 4.47247 14.0628 3.67122 14.0628L3.67091 14.0625Z" fill="black"/>
</g>
<defs>
<clipPath id="clip0_394_171">
<rect width="16" height="15" fill="white" transform="matrix(-1 0 0 1 16 0)"/>
</clipPath>
</defs>
</svg>
