<svg width="12" height="15" viewBox="0 0 12 15" fill="none" xmlns="http://www.w3.org/2000/svg">
<path d="M11.3332 14.6667H9.99984V13.3333C9.99984 12.2287 9.10444 11.3333 7.99984 11.3333H3.99984C2.89527 11.3333 1.99984 12.2287 1.99984 13.3333V14.6667H0.666504V13.3333C0.666504 11.4924 2.15889 10 3.99984 10H7.99984C9.84077 10 11.3332 11.4924 11.3332 13.3333V14.6667ZM5.99984 8.66667C3.7907 8.66667 1.99984 6.8758 1.99984 4.66667C1.99984 2.45753 3.7907 0.666667 5.99984 0.666667C8.20897 0.666667 9.99984 2.45753 9.99984 4.66667C9.99984 6.8758 8.20897 8.66667 5.99984 8.66667ZM5.99984 7.33333C7.47257 7.33333 8.6665 6.13943 8.6665 4.66667C8.6665 3.19391 7.47257 2 5.99984 2C4.52708 2 3.33317 3.19391 3.33317 4.66667C3.33317 6.13943 4.52708 7.33333 5.99984 7.33333Z" fill="black"/>
</svg>
