<svg width="16" height="15" viewBox="0 0 16 15" fill="none" xmlns="http://www.w3.org/2000/svg">
<g clip-path="url(#clip0_394_1051)">
<path d="M10.4189 2.87612C11.4158 2.31497 12.461 2.72984 12.8904 3.42529C13.3062 4.09916 13.21 5.17631 12.1656 5.73627C12.1974 5.79182 12.2283 5.84858 12.2618 5.90333C12.6289 6.50406 13.001 7.10239 13.3626 7.70631C13.7572 8.36579 13.3952 9.15836 12.6259 9.31784C12.2584 9.39418 11.9261 9.30624 11.6311 9.08202C11.5769 9.04085 11.4904 9.00808 11.4239 9.01447C9.75387 9.17954 8.16358 9.6172 6.63983 10.2775C6.62118 10.2855 6.60381 10.2971 6.52666 10.3398C6.59745 10.3806 6.66103 10.4038 6.70553 10.4453C7.32096 11.0229 7.93385 11.6024 8.54674 12.182C8.81504 12.4354 8.81419 12.6012 8.54463 12.8558C8.15977 13.22 7.77449 13.5841 7.38878 13.9474C7.15015 14.172 6.9573 14.1732 6.72121 13.9498C5.92056 13.1944 5.1199 12.4386 4.32051 11.6816C4.27982 11.6428 4.24973 11.594 4.21582 11.5513C3.83224 11.7143 3.46264 11.8075 3.07015 11.7947C2.21185 11.7663 1.53072 11.4222 1.06321 10.7423C0.778803 10.3286 0.520677 9.89698 0.276538 9.46012C-0.314736 8.40216 0.0718175 7.0808 1.15306 6.4553C1.66211 6.16073 2.19023 5.89574 2.70055 5.60397C4.41842 4.62115 5.86673 3.35934 7.0497 1.82655C7.08149 1.78579 7.09632 1.71704 7.087 1.66668C6.9857 1.11192 7.27137 0.612713 7.80458 0.422463C8.34287 0.230615 8.91211 0.429657 9.21728 0.924067C9.59027 1.52759 9.95732 2.13391 10.3278 2.73903C10.3562 2.7858 10.3884 2.83016 10.4185 2.87533L10.4189 2.87612ZM11.0971 8.32302C9.89332 6.35338 8.70654 4.41211 7.51085 2.45606C6.43299 3.80299 5.1572 4.91691 3.70127 5.86496C4.49387 7.16154 5.27969 8.44692 6.06806 9.7367C7.66979 9.01487 9.32748 8.53246 11.0971 8.32302ZM3.05404 6.24466C2.55305 6.51805 2.06774 6.77185 1.5943 7.04363C0.78177 7.51006 0.532545 8.41855 0.994968 9.20632C1.20223 9.55964 1.4184 9.90857 1.63626 10.2559C2.14149 11.0617 3.1155 11.3075 3.97889 10.8474C4.3239 10.6636 4.66511 10.4741 5.008 10.2871C5.13516 10.2179 5.26189 10.148 5.3954 10.0744C4.61255 8.79345 3.8369 7.52445 3.05447 6.24426L3.05404 6.24466ZM12.784 8.24748C12.7403 8.15875 12.703 8.06602 12.6513 7.98129C11.3031 5.77264 9.95351 3.56518 8.60396 1.35732C8.57514 1.30976 8.54674 1.2614 8.51156 1.21783C8.38949 1.06755 8.18477 1.02958 8.01608 1.12271C7.85459 1.21184 7.78508 1.39609 7.85375 1.56436C7.87451 1.61512 7.90673 1.66188 7.93597 1.70905C9.28764 3.9213 10.6397 6.13355 11.9918 8.3454C12.0236 8.39696 12.0541 8.45052 12.0944 8.49609C12.1987 8.61519 12.3754 8.65396 12.5259 8.59641C12.6738 8.53965 12.7653 8.40815 12.784 8.24668V8.24748ZM5.85655 10.6552C5.52425 10.8366 5.20721 11.0101 4.91815 11.168C5.64463 11.8546 6.36263 12.5337 7.06453 13.1972C7.29765 12.9761 7.54603 12.7403 7.79907 12.5001C7.79653 12.4969 7.78508 12.4805 7.77025 12.4669C7.13616 11.8662 6.50166 11.2659 5.85655 10.6548V10.6552ZM10.8059 3.52002C11.128 4.0468 11.451 4.57518 11.7735 5.10277C12.339 4.82379 12.5259 4.23225 12.2139 3.76262C11.9151 3.31218 11.2649 3.19547 10.8055 3.52042L10.8059 3.52002Z" fill="black"/>
<path d="M15.5826 5.92172C15.5593 5.91653 15.5025 5.90653 15.4478 5.89015C15.0218 5.76065 14.5959 5.63035 14.1707 5.49846C13.9185 5.42012 13.8058 5.24066 13.8732 5.03322C13.9393 4.83058 14.1517 4.73826 14.3983 4.813C14.8447 4.94809 15.2906 5.08438 15.7343 5.22667C15.9242 5.28742 16.0255 5.45329 15.995 5.62236C15.9632 5.79822 15.8072 5.92212 15.5826 5.92132V5.92172Z" fill="black"/>
<path d="M12.132 2.05797C11.8984 2.05718 11.7128 1.86693 11.7577 1.6511C11.8531 1.19106 11.9574 0.732621 12.0676 0.275383C12.1171 0.0695452 12.3172 -0.0355718 12.5296 0.0111913C12.7194 0.0531581 12.8453 0.230618 12.8046 0.423665C12.7088 0.878506 12.6075 1.33255 12.5007 1.78539C12.46 1.95765 12.31 2.05877 12.1316 2.05797H12.132Z" fill="black"/>
<path d="M14.0198 3.34456C13.8057 3.34536 13.665 3.24663 13.6154 3.08836C13.5667 2.93248 13.6213 2.77701 13.7769 2.68668C14.0011 2.55598 14.2321 2.43567 14.4606 2.31097C14.6432 2.21105 14.8247 2.10913 15.009 2.01241C15.2265 1.8985 15.4498 1.94846 15.5583 2.13112C15.6652 2.31097 15.6041 2.51241 15.3956 2.62872C14.9912 2.85414 14.5839 3.07477 14.1757 3.2934C14.1181 3.32417 14.0486 3.33536 14.0198 3.34416V3.34456Z" fill="black"/>
</g>
<defs>
<clipPath id="clip0_394_1051">
<rect width="16" height="14.1176" fill="white"/>
</clipPath>
</defs>
</svg>
