<svg width="12" height="14" viewBox="0 0 12 14" fill="none" xmlns="http://www.w3.org/2000/svg">
<path d="M11.3333 13.6667H0.666667C0.29848 13.6667 0 13.3682 0 13V1C0 0.631816 0.29848 0.333336 0.666667 0.333336H11.3333C11.7015 0.333336 12 0.631816 12 1V13C12 13.3682 11.7015 13.6667 11.3333 13.6667ZM10.6667 12.3333V1.66667H1.33333V12.3333H10.6667ZM2.66667 3H5.33333V5.66667H2.66667V3ZM2.66667 7H9.33333V8.33334H2.66667V7ZM2.66667 9.66667H9.33333V11H2.66667V9.66667ZM6.66667 3.66667H9.33333V5H6.66667V3.66667Z" fill="black"/>
</svg>
