<svg width="22" height="30" viewBox="0 0 22 30" fill="#5DA1DE" stroke="#5DA1DE" xmlns="http://www.w3.org/2000/svg">
<path d="M13.4132 26.0254C10.2392 26.0254 7.66615 23.4318 7.66615 20.2324C7.66615 17.0331 10.2392 14.4395 13.4132 14.4395C16.5871 14.4395 19.1602 17.0331 19.1602 20.2324C19.1602 23.4318 16.5871 26.0254 13.4132 26.0254Z" stroke="inherit" fill="none" stroke-width="2" stroke-miterlimit="10"/>
<path d="M21 28.9995L16.5556 24.5195" fill="none" stroke="inherit" stroke-width="2" stroke-miterlimit="10"/>
<path d="M7.97318 23.4H3C1.89543 23.4 1 22.5046 1 21.4V3C1 1.89543 1.89543 1 3 1H14.5556C15.6601 1 16.5556 1.89543 16.5556 3V15" fill="none" stroke="inherit" stroke-width="2"/>
<rect x="4.33398" y="5.48047" width="8.88889" height="2.24" rx="1.12" fill="inherit" stroke="none"/>
<rect x="4.33398" y="9.96094" width="8.88889" height="2.24" rx="1.12" fill="inherit" stroke="none"/>
</svg>
