<svg width="22" height="29" viewBox="0 0 22 29" fill="#5DA1DE" stroke="#5DA1DE" xmlns="http://www.w3.org/2000/svg">
<rect x="5.26562" y="6.40039" width="5.68571" height="1.35" rx="0.675" fill="inherit" stroke="none"/>
<rect x="5.26562" y="9.09961" width="11.3714" height="1.35" rx="0.675" fill="inherit" stroke="none"/>
<rect x="5.26562" y="11.8008" width="11.3714" height="1.35" rx="0.675" fill="inherit" stroke="none"/>
<path d="M3 1H18.9C20.0046 1 20.9 1.89543 20.9 3V26C20.9 27.1046 20.0046 28 18.9 28H3C1.89543 28 1 27.1046 1 26V3C1 1.89543 1.89543 1 3 1Z" fill="none" stroke="inherit" stroke-width="2"/>
<path d="M16.136 19.8996C16.136 21.8362 14.4753 23.4496 12.3717 23.4496C10.2681 23.4496 8.60742 21.8362 8.60742 19.8996C8.60742 17.963 10.2681 16.3496 12.3717 16.3496C14.4753 16.3496 16.136 17.963 16.136 19.8996Z" fill="none" stroke="inherit"/>
</svg>
