<svg width="22" height="30" viewBox="0 0 22 30" fill="#5DA1DE" stroke="#5DA1DE" xmlns="http://www.w3.org/2000/svg">
<path d="M3 1H19C20.1046 1 21 1.89543 21 3V27C21 28.1045 20.1046 29 19 29H3C1.89543 29 1 28.1045 1 27V3C1 1.89543 1.89543 1 3 1Z" stroke="inherit" fill="none" stroke-width="2"/>
<path d="M10.9095 22.4656H12.2695V20.9356C14.8195 20.7146 15.9415 19.2016 15.9415 17.4676C15.9415 15.1896 14.0375 14.5266 12.2695 14.0506V11.1266C13.1025 11.2966 13.9015 11.6876 14.5475 12.3166L15.6865 10.8376C14.8025 9.98762 13.6465 9.46062 12.2695 9.30762V7.70962H10.9095V9.29062C8.71652 9.47762 7.30552 10.8376 7.30552 12.5716C7.30552 14.7986 9.15852 15.4276 10.9095 15.8696V19.1506C9.66852 18.9636 8.69952 18.3346 8.05352 17.6376L6.94852 19.1676C7.83252 20.1366 9.14152 20.7996 10.9095 20.9356V22.4656ZM13.9185 17.6546C13.9185 18.3006 13.4425 18.9806 12.2695 19.1676V16.2266C13.2045 16.5156 13.9185 16.8896 13.9185 17.6546ZM9.34552 12.4356C9.34552 11.6876 9.94052 11.1436 10.9095 11.0416V13.6936C10.0085 13.4386 9.34552 13.0986 9.34552 12.4356Z" fill="inherit" stroke="none"/>
</svg>
