<svg width="24" height="24" viewBox="0 0 24 24" fill="none" xmlns="http://www.w3.org/2000/svg">
<path d="M12 24C5.37258 24 0 18.6274 0 12C0 5.37258 5.37258 0 12 0C18.6274 0 24 5.37258 24 12C24 18.6274 18.6274 24 12 24Z" fill="url(#paint0_linear_1174_41408)"/>
<path d="M12.3442 5.71094C13.52 5.71094 14.6694 6.0596 15.647 6.71283C16.6246 7.36605 17.3866 8.29451 17.8365 9.38079C18.2865 10.4671 18.4042 11.6624 18.1748 12.8156C17.9454 13.9688 17.3793 15.028 16.5479 15.8594C15.7165 16.6908 14.6572 17.257 13.504 17.4864C12.3508 17.7158 11.1555 17.5981 10.0692 17.1481C8.98294 16.6982 8.05448 15.9362 7.40125 14.9586C6.74802 13.9809 6.39936 12.8316 6.39936 11.6558C6.40392 10.0805 7.03172 8.57107 8.1456 7.45718C9.25949 6.34329 10.7689 5.7155 12.3442 5.71094V5.71094ZM12.3442 16.4115C13.2848 16.4115 14.2043 16.1326 14.9863 15.61C15.7684 15.0875 16.378 14.3447 16.7379 13.4757C17.0979 12.6067 17.1921 11.6505 17.0086 10.728C16.8251 9.80547 16.3721 8.95808 15.707 8.29298C15.0419 7.62788 14.1945 7.17494 13.272 6.99144C12.3495 6.80794 11.3933 6.90212 10.5243 7.26207C9.65528 7.62202 8.91254 8.23157 8.38997 9.01365C7.86741 9.79572 7.58849 10.7152 7.58849 11.6558C7.59222 12.9159 8.09446 14.1234 8.98553 15.0145C9.87659 15.9055 11.0841 16.4078 12.3442 16.4115Z" fill="white"/>
<path d="M12.0461 8.68359H12.9375V12.2502L9.84608 14.1525L9.3709 13.3796L12.0461 11.7742V8.68359Z" fill="white"/>
<defs>
<linearGradient id="paint0_linear_1174_41408" x1="22.8" y1="-0.8" x2="5.2" y2="24" gradientUnits="userSpaceOnUse">
<stop stop-color="#FFEB00"/>
<stop offset="1" stop-color="#FE8F00"/>
</linearGradient>
</defs>
</svg>
