<svg width="24" height="32" viewBox="0 0 24 32" fill="#5DA1DE" stroke="#5DA1DE" xmlns="http://www.w3.org/2000/svg">
<path fill-rule="evenodd" clip-rule="evenodd" d="M13.3802 13.2862C13.7229 12.9645 14.2422 12.9645 14.5849 13.2862C16.5328 15.1146 19.0945 16.06 21.7078 15.9148C22.1364 15.891 22.5217 16.1864 22.629 16.6211C22.8723 17.6067 23.0022 18.639 23.0022 19.7029C23.0022 25.4205 19.2648 30.2216 14.2073 31.5832C14.0599 31.6229 13.9052 31.6229 13.7578 31.5832C8.70026 30.2216 4.96289 25.4195 4.96289 19.7029C4.96215 18.6633 5.08756 17.6277 5.33611 16.621C5.44344 16.1864 5.82869 15.891 6.25724 15.9148C8.87061 16.06 11.4323 15.1146 13.3802 13.2862ZM6.9303 17.8155C6.82114 18.4374 6.76633 19.0689 6.76682 19.7022C6.76682 24.4519 9.81747 28.4601 13.9825 29.6921C18.1477 28.4602 21.1983 24.4535 21.1983 19.7029C21.1983 19.0577 21.142 18.4272 21.0347 17.8155C18.4759 17.7815 15.9976 16.8689 13.9825 15.2191C11.9675 16.8689 9.48918 17.7815 6.9303 17.8155ZM17.3262 19.9793C17.6785 20.3478 17.6785 20.9452 17.3262 21.3137L13.7184 25.0881C13.3661 25.4566 12.795 25.4566 12.4428 25.0881L10.6389 23.2009C10.2866 22.8324 10.2866 22.235 10.6389 21.8665C10.9911 21.498 11.5622 21.498 11.9144 21.8665L13.0806 23.0865L16.0507 19.9793C16.4029 19.6108 16.974 19.6108 17.3262 19.9793Z" fill="inherit" stroke="inherit" stroke-width="0.5" stroke-linecap="round" stroke-linejoin="round"/>
<path fill-rule="evenodd" clip-rule="evenodd" d="M0 2.19049C0 0.980714 0.980715 0 2.19049 0H18.0393C19.2491 0 20.2298 0.980714 20.2298 2.19049V16.4287H18.0393V2.19049L2.19049 2.19049V23.5899H6.24933V25.7804H2.19049C0.980714 25.7804 0 24.7996 0 23.5899V2.19049Z" fill="inherit" stroke="none"/>
<path d="M4.96289 5.81231C4.96289 5.16089 5.49097 4.63281 6.14238 4.63281H14.0916C14.743 4.63281 15.2711 5.16089 15.2711 5.81231C15.2711 6.46372 14.743 6.9918 14.0916 6.9918H6.14238C5.49097 6.9918 4.96289 6.46372 4.96289 5.81231Z" fill="inherit" stroke="none"/>
<path d="M4.96289 10.5311C4.96289 9.87964 5.49097 9.35156 6.14238 9.35156H14.0916C14.743 9.35156 15.2711 9.87964 15.2711 10.5311C15.2711 11.1825 14.743 11.7105 14.0916 11.7105H6.14238C5.49097 11.7105 4.96289 11.1825 4.96289 10.5311Z" fill="inherit" stroke="none"/>
</svg>
