<svg width="26" height="26" viewBox="0 0 26 26" fill="#C2383A" stroke="none" xmlns="http://www.w3.org/2000/svg">
<path d="M3.9203 18.7213C4.0266 18.9885 4.2347 19.2025 4.49882 19.3163C4.76293 19.4301 5.06142 19.4343 5.32863 19.328C5.59584 19.2217 5.80987 19.0136 5.92364 18.7494C6.03741 18.4853 6.0416 18.1868 5.9353 17.9196L4.72196 14.8646L11.9153 13.2721V18.418C11.9153 18.7053 12.0294 18.9808 12.2326 19.184C12.4358 19.3872 12.7113 19.5013 12.9986 19.5013C13.2859 19.5013 13.5615 19.3872 13.7647 19.184C13.9678 18.9808 14.082 18.7053 14.082 18.418V13.2721L21.2753 14.8646L20.062 17.9196C20.0092 18.0519 19.983 18.1933 19.985 18.3357C19.9869 18.4782 20.0169 18.6188 20.0733 18.7496C20.1296 18.8804 20.2112 18.9988 20.3134 19.0981C20.4155 19.1973 20.5362 19.2754 20.6686 19.328C20.7962 19.3784 20.9323 19.4041 21.0695 19.4038C21.2864 19.404 21.4985 19.3391 21.6781 19.2174C21.8577 19.0957 21.9967 18.9229 22.077 18.7213L23.7561 14.4855C23.8138 14.339 23.8388 14.1817 23.8294 14.0245C23.8201 13.8673 23.7766 13.7141 23.702 13.5755C23.6296 13.4373 23.5282 13.3165 23.4048 13.2211C23.2814 13.1258 23.1389 13.0582 22.987 13.023L19.4986 12.2538V7.58464C19.4986 7.29732 19.3845 7.02177 19.1813 6.8186C18.9782 6.61544 18.7026 6.5013 18.4153 6.5013H16.2486V3.2513C16.2486 2.96398 16.1345 2.68843 15.9313 2.48527C15.7282 2.28211 15.4526 2.16797 15.1653 2.16797H10.832C10.5446 2.16797 10.2691 2.28211 10.0659 2.48527C9.86277 2.68843 9.74863 2.96398 9.74863 3.2513V6.5013H7.58196C7.29465 6.5013 7.0191 6.61544 6.81593 6.8186C6.61277 7.02177 6.49863 7.29732 6.49863 7.58464V12.2538L3.0103 13.0013C2.85837 13.0365 2.71584 13.1041 2.59244 13.1994C2.46904 13.2948 2.36769 13.4157 2.2953 13.5538C2.22069 13.6924 2.17719 13.8457 2.16784 14.0028C2.15848 14.16 2.18349 14.3173 2.24113 14.4638L3.9203 18.7213ZM11.9153 4.33464H14.082V6.5013H11.9153V4.33464ZM8.6653 8.66797H17.332V11.7663L13.237 10.8346H13.1286H12.9986H12.8686H12.7603L8.6653 11.7663V8.66797ZM22.4345 20.888C22.0544 21.0044 21.6904 21.1682 21.3511 21.3755C21.006 21.5773 20.6134 21.6837 20.2136 21.6837C19.8138 21.6837 19.4212 21.5773 19.0761 21.3755C18.3257 20.9521 17.4786 20.7297 16.617 20.7297C15.7553 20.7297 14.9083 20.9521 14.1578 21.3755C13.808 21.5749 13.4122 21.6799 13.0095 21.6799C12.6067 21.6799 12.211 21.5749 11.8611 21.3755C11.11 20.9541 10.2632 20.7329 9.40196 20.7329C8.54073 20.7329 7.69393 20.9541 6.9428 21.3755C6.59768 21.5773 6.20509 21.6837 5.8053 21.6837C5.4055 21.6837 5.01291 21.5773 4.6678 21.3755C4.32853 21.1682 3.96457 21.0044 3.58446 20.888C3.44032 20.8367 3.28695 20.8166 3.13446 20.8289C2.98197 20.8412 2.83381 20.8856 2.69974 20.9593C2.56567 21.033 2.44873 21.1343 2.35661 21.2564C2.2645 21.3785 2.19929 21.5188 2.1653 21.668C2.08442 21.9424 2.11535 22.2376 2.25133 22.4892C2.38731 22.7409 2.6173 22.9286 2.89113 23.0113C3.10927 23.0704 3.31739 23.1617 3.50863 23.2821C4.1659 23.6678 4.91325 23.8733 5.6753 23.878C6.46678 23.8781 7.24421 23.6688 7.92863 23.2713C8.35327 23.0371 8.83033 22.9142 9.3153 22.9142C9.80026 22.9142 10.2773 23.0371 10.702 23.2713C11.3815 23.6599 12.1508 23.8643 12.9336 23.8643C13.7165 23.8643 14.4857 23.6599 15.1653 23.2713C15.5899 23.0371 16.067 22.9142 16.552 22.9142C17.0369 22.9142 17.514 23.0371 17.9386 23.2713C18.6101 23.6721 19.3775 23.8837 20.1595 23.8837C20.9414 23.8837 21.7088 23.6721 22.3803 23.2713C22.5715 23.1509 22.7797 23.0596 22.9978 23.0005C23.142 22.9713 23.2787 22.9131 23.3996 22.8294C23.5206 22.7456 23.6232 22.6382 23.7012 22.5135C23.7793 22.3888 23.8311 22.2495 23.8536 22.1042C23.8761 21.9588 23.8687 21.8104 23.832 21.668C23.7975 21.5214 23.7329 21.3835 23.6422 21.2633C23.5516 21.1431 23.4368 21.0431 23.3053 20.9697C23.1738 20.8963 23.0284 20.8511 22.8785 20.837C22.7286 20.823 22.5773 20.8403 22.4345 20.888Z" fill="inherit" stroke="none"/>
</svg>
