<svg width="27" height="27" viewBox="0 0 27 27" fill="none" stroke="#9A7FE7" xmlns="http://www.w3.org/2000/svg">
<path d="M23.49 18.15H23.8608L24.0267 17.8183C24.4755 16.9207 24.6221 15.8935 24.7524 14.9809L24.759 14.9349L24.8568 14.25H24.165H22.95C22.6813 14.25 22.5041 14.1631 22.3955 14.0545C22.2869 13.9459 22.2 13.7687 22.2 13.5C22.2 13.2313 22.2869 13.0541 22.3955 12.9455C22.5041 12.8369 22.6813 12.75 22.95 12.75H24.165H24.8568L24.759 12.0651C24.4781 10.0988 23.7716 8.09672 22.4694 6.50506L22.0495 5.99193L21.5807 6.46074L20.6357 7.40574C20.3301 7.71142 19.9 7.71142 19.5943 7.40574L19.2026 7.79736L19.5943 7.40574C19.2886 7.10005 19.2886 6.66995 19.5943 6.36426L19.17 5.94L19.5943 6.36426L20.5393 5.41926L21.0081 4.95046L20.4949 4.53063C18.9033 3.22836 16.9012 2.52193 14.9349 2.24103L14.25 2.14319V2.835V4.05C14.25 4.31865 14.1631 4.4959 14.0545 4.60449C13.9459 4.71307 13.7687 4.8 13.5 4.8C13.2313 4.8 13.0541 4.71307 12.9455 4.60449C12.8369 4.4959 12.75 4.31865 12.75 4.05V2.835V2.14319L12.0651 2.24103C10.0988 2.52193 8.09672 3.22836 6.50506 4.53063L5.99193 4.95046L6.46074 5.41926L7.40574 6.36426C7.71142 6.66995 7.71142 7.10005 7.40574 7.40574C7.10005 7.71142 6.66995 7.71142 6.36426 7.40574L5.41926 6.46074L4.93008 5.97156L4.515 6.525C3.25385 8.20653 2.38209 10.0693 2.23652 12.1073L2.19061 12.75H2.835H4.05C4.31865 12.75 4.4959 12.8369 4.60449 12.9455C4.71307 13.0541 4.8 13.2313 4.8 13.5C4.8 13.7687 4.71307 13.9459 4.60449 14.0545C4.4959 14.1631 4.31865 14.25 4.05 14.25H2.835H2.14319L2.24103 14.9349L2.24761 14.9809C2.37789 15.8935 2.52452 16.9207 2.97334 17.8183L3.13918 18.15H3.51H9.45H10.05V17.55C10.05 16.0514 10.9665 14.797 12.3397 14.3392L12.75 14.2025V13.77V9.45C12.75 9.18135 12.8369 9.0041 12.9455 8.89551C13.0541 8.78693 13.2313 8.7 13.5 8.7C13.7687 8.7 13.9459 8.78693 14.0545 8.89551C14.1631 9.0041 14.25 9.18135 14.25 9.45V13.77V14.2025L14.6603 14.3392C16.0335 14.797 16.95 16.0514 16.95 17.55V18.15H17.55H23.49ZM0.6 13.5C0.6 6.40637 6.40637 0.6 13.5 0.6C20.5936 0.6 26.4 6.40637 26.4 13.5C26.4 20.5936 20.5936 26.4 13.5 26.4C6.40637 26.4 0.6 20.5936 0.6 13.5ZM11.55 17.55C11.55 18.0914 11.7331 18.5891 12.097 18.953C12.4609 19.3169 12.9587 19.5 13.5 19.5C14.0413 19.5 14.5391 19.3169 14.903 18.953C15.2669 18.5891 15.45 18.0914 15.45 17.55C15.45 17.0087 15.2669 16.5109 14.903 16.147C14.5391 15.7831 14.0413 15.6 13.5 15.6C12.9587 15.6 12.4609 15.7831 12.097 16.147C11.7331 16.5109 11.55 17.0087 11.55 17.55Z" stroke="inherit" stroke-width="1.2" fill="none"/>
</svg>
