<svg width="21" height="25" viewBox="0 0 21 25" fill="#E8A700" xmlns="http://www.w3.org/2000/svg">
<path fill-rule="evenodd" clip-rule="evenodd" d="M7.39844 1.13348C7.39844 0.507477 7.90591 0 8.53192 0H13.0658C13.6918 0 14.1993 0.507477 14.1993 1.13348C14.1993 1.75948 13.6918 2.26696 13.0658 2.26696H8.53192C7.90591 2.26696 7.39844 1.75948 7.39844 1.13348Z" fill="inherit" stroke="none"/>
<path fill-rule="evenodd" clip-rule="evenodd" d="M10.7975 9.06836C11.4235 9.06836 11.931 9.57584 11.931 10.2018V14.7358C11.931 15.3618 11.4235 15.8692 10.7975 15.8692C10.1715 15.8692 9.66406 15.3618 9.66406 14.7358V10.2018C9.66406 9.57584 10.1715 9.06836 10.7975 9.06836Z" fill="inherit" stroke="none"/>
<path fill-rule="evenodd" clip-rule="evenodd" d="M0.597656 18.1354C0.597656 17.5094 1.10513 17.002 1.73114 17.002H7.39854C8.02454 17.002 8.53202 17.5094 8.53202 18.1354C8.53202 18.7614 8.02454 19.2689 7.39854 19.2689H2.86462V23.8028C2.86462 24.4288 2.35714 24.9363 1.73114 24.9363C1.10513 24.9363 0.597656 24.4288 0.597656 23.8028V18.1354Z" fill="inherit" stroke="none"/>
<path fill-rule="evenodd" clip-rule="evenodd" d="M7.46959 7.40372C8.96001 6.72695 10.6213 6.52042 12.232 6.81164C13.8428 7.10287 15.3266 7.87802 16.4857 9.03381C17.6448 10.1896 18.4242 11.6712 18.72 13.2811C19.0158 14.891 18.814 16.5529 18.1415 18.0452C17.469 19.5376 16.3577 20.7895 14.9556 21.6343C13.5536 22.4792 11.9274 22.8767 10.2938 22.7739C8.66014 22.6712 7.09658 22.0731 5.81144 21.0593C4.5263 20.0455 3.5806 18.6641 3.10034 17.0993L1.04688 17.7295C1.04693 17.7297 1.04699 17.7299 1.04704 17.7301C1.27204 18.4631 1.57767 19.1643 1.95584 19.8219C2.60024 20.9425 3.4553 21.9365 4.48108 22.7457C6.10899 24.0299 8.08959 24.7876 10.159 24.9177C12.2284 25.0478 14.2883 24.5443 16.0642 23.4742C17.8402 22.404 19.2479 20.8181 20.0998 18.9277C20.9517 17.0373 21.2073 14.9322 20.8326 12.8929C20.4579 10.8536 19.4706 8.97685 18.0024 7.51278C16.5341 6.04871 14.6546 5.06681 12.6142 4.69791C11.3285 4.46546 10.0174 4.48336 8.75109 4.74288C8.00802 4.89517 7.28035 5.13065 6.58227 5.44756C6.58202 5.44768 6.58176 5.4478 6.5815 5.44791L7.46959 7.40372Z" fill="inherit" stroke="none"/>
<path d="M2.84277 15.9826H3.60333V14.873C5.53592 14.7358 6.25908 13.5638 6.25908 12.4416C6.25908 10.8083 4.88757 10.3345 3.60333 9.97291V7.25483C4.30156 7.35457 4.94991 7.66628 5.44864 8.21489L6.07205 7.45432C5.46111 6.81844 4.6382 6.39452 3.60333 6.30724V5.16016H2.84277V6.29477C1.34658 6.40698 0.261834 7.31717 0.261834 8.6014C0.261834 10.135 1.571 10.5589 2.84277 10.908V13.9378C1.85777 13.8256 1.09721 13.3269 0.623414 12.7658L0 13.5638C0.623414 14.2745 1.58347 14.7981 2.84277 14.873V15.9826ZM5.18681 12.5164C5.18681 13.1149 4.78782 13.8256 3.60333 13.9503V11.1075C4.47611 11.3694 5.18681 11.706 5.18681 12.5164ZM1.33411 8.53906C1.33411 7.8159 1.95752 7.29223 2.84277 7.22989V9.77342C1.99493 9.52406 1.33411 9.22482 1.33411 8.53906Z" fill="inherit" stroke="none"/>
</svg>
