<svg width="23" height="23" viewBox="0 0 23 23" fill="#3E3E3E" stroke="none" xmlns="http://www.w3.org/2000/svg">
<path d="M22.1495 12.9081C22.1511 12.1013 21.9064 11.3133 21.448 10.6494C20.9896 9.98554 20.3395 9.47742 19.5845 9.19303V8.51094C19.5845 7.39326 19.3644 6.28654 18.9366 5.25394C18.5089 4.22135 17.882 3.28311 17.0917 2.4928C16.3014 1.70248 15.3632 1.07557 14.3306 0.647857C13.298 0.220142 12.1912 0 11.0736 0C9.95589 0 8.84917 0.220142 7.81657 0.647857C6.78398 1.07557 5.84574 1.70248 5.05542 2.4928C4.26511 3.28311 3.6382 4.22135 3.21048 5.25394C2.78277 6.28654 2.56263 7.39326 2.56263 8.51094V9.19303C1.69653 9.52215 0.972627 10.1435 0.516057 10.9498C0.0594878 11.756 -0.101058 12.6964 0.0621689 13.6084C0.225396 14.5205 0.702139 15.3468 1.40999 15.9446C2.11785 16.5425 3.01232 16.8742 3.93881 16.8825H5.36115C5.45036 16.8821 5.53862 16.8642 5.6209 16.8297C5.70319 16.7953 5.77787 16.7449 5.84069 16.6816C5.90352 16.6182 5.95325 16.5431 5.98705 16.4606C6.02086 16.378 6.03807 16.2896 6.0377 16.2004V9.61853C6.03807 9.52932 6.02086 9.44091 5.98705 9.35835C5.95325 9.27579 5.90352 9.2007 5.84069 9.13736C5.77787 9.07403 5.70319 9.02368 5.6209 8.98921C5.53862 8.95473 5.45036 8.9368 5.36115 8.93644H4.7049V8.51094C4.67977 7.65916 4.82584 6.811 5.13446 6.01669C5.44307 5.22239 5.90795 4.4981 6.50156 3.88672C7.09517 3.27534 7.80544 2.7893 8.5903 2.4574C9.37516 2.1255 10.2186 1.95449 11.0708 1.95449C11.9229 1.95449 12.7664 2.1255 13.5513 2.4574C14.3362 2.7893 15.0464 3.27534 15.64 3.88672C16.2336 4.4981 16.6985 5.22239 17.0071 6.01669C17.3158 6.811 17.4618 7.65916 17.4367 8.51094V8.93459H16.7841C16.6949 8.93495 16.6067 8.95289 16.5244 8.98736C16.4421 9.02184 16.3674 9.07218 16.3046 9.13552C16.2418 9.19886 16.192 9.27395 16.1582 9.35651C16.1244 9.43907 16.1072 9.52747 16.1076 9.61668V16.2013C16.1072 16.2905 16.1244 16.379 16.1582 16.4615C16.192 16.5441 16.2418 16.6192 16.3046 16.6825C16.3674 16.7458 16.4421 16.7962 16.5244 16.8307C16.6067 16.8651 16.6949 16.8831 16.7841 16.8834H17.0869C16.7504 17.6687 16.2053 18.3469 15.5106 18.8443C14.816 19.3417 13.9984 19.6394 13.1466 19.705C13.0997 19.4798 12.9768 19.2774 12.7985 19.1319C12.6202 18.9864 12.3974 18.9066 12.1673 18.9057H9.95213C9.81929 18.9053 9.68772 18.9314 9.56508 18.9825C9.44245 19.0335 9.33122 19.1085 9.2379 19.203C9.14457 19.2975 9.07102 19.4097 9.02155 19.533C8.97208 19.6563 8.94767 19.7882 8.94975 19.921V21.0637C8.94767 21.1965 8.97208 21.3284 9.02155 21.4517C9.07102 21.5749 9.14457 21.6871 9.2379 21.7817C9.33122 21.8762 9.44245 21.9512 9.56508 22.0022C9.68772 22.0533 9.81929 22.0793 9.95213 22.079H12.1673C12.4054 22.0804 12.6358 21.9954 12.8159 21.8397C12.996 21.684 13.1135 21.4683 13.1466 21.2326C14.4141 21.1588 15.6284 20.6975 16.6251 19.9111C17.6219 19.1246 18.353 18.051 18.7197 16.8354C19.6692 16.7053 20.5396 16.2359 21.17 15.514C21.8004 14.7921 22.1484 13.8665 22.1495 12.9081Z" fill="inherit" stroke="none"/>
</svg>
