<svg width="27" height="27" viewBox="0 0 27 27" fill="#C2383A" stroke="none" xmlns="http://www.w3.org/2000/svg">
<rect width="27" height="27" rx="13.5" fill="inherit" stroke="none"/>
<path d="M9.2988 7.47108C8.31828 7.58548 7.53342 8.39337 7.41998 9.40596C7.11523 12.1261 7.11523 14.8739 7.41998 17.594C7.53342 18.6066 8.31828 19.4145 9.2988 19.5289C11.8493 19.8265 14.4878 19.8265 17.0383 19.5289C18.0188 19.4145 18.8037 18.6066 18.9171 17.594C19.1361 15.6396 19.1978 13.6708 19.102 11.7082C19.0996 11.6575 19.1177 11.6081 19.1521 11.5722L20.0421 10.6431C20.1451 10.5356 20.3211 10.6028 20.332 10.7545C20.5 13.0844 20.4539 15.4269 20.1936 17.7499C20.0095 19.3929 18.7459 20.6797 17.1811 20.8623C14.5357 21.1709 11.8014 21.1709 9.15605 20.8623C7.59125 20.6797 6.32759 19.3929 6.14351 17.7499C5.82716 14.9263 5.82716 12.0737 6.14351 9.25011C6.32759 7.60707 7.59125 6.32031 9.15606 6.13774C11.8014 5.82909 14.5357 5.82909 17.1811 6.13774C17.7322 6.20204 18.246 6.40331 18.6884 6.70888C18.7754 6.76901 18.7841 6.89677 18.7102 6.97382L18.0224 7.69194C17.9661 7.75068 17.8788 7.76056 17.8087 7.72133C17.5744 7.5903 17.3141 7.50326 17.0383 7.47108C14.4878 7.1735 11.8493 7.1735 9.2988 7.47108Z" fill="white" stroke="none"/>
<path d="M20.9055 8.16056C21.1565 7.89859 21.1565 7.47385 20.9055 7.21187C20.6546 6.9499 20.2477 6.9499 19.9968 7.21187L12.7402 14.7874L10.6242 12.5784C10.3733 12.3165 9.9664 12.3165 9.71545 12.5784C9.46451 12.8404 9.46451 13.2652 9.71545 13.5271L12.2858 16.2104C12.5367 16.4724 12.9436 16.4724 13.1945 16.2104L20.9055 8.16056Z" fill="white" stroke="none"/>
</svg>
